<!-- nav icon -->

<svg class="menuIcon" width="25" height="18" viewBox="0 0 25 18" fill="none" xmlns="http://www.w3.org/2000/svg">
  <rect y="16" width="25" height="2" rx="1" fill="currentColor"/>
  <rect y="8" width="25" height="2" rx="1" fill="currentColor"/>
  <rect width="25" height="2" rx="1" fill="currentColor"/>
</svg>

<!-- close icon -->
<svg class="closeIcon" width="24" height="24" viewBox="0 0 24 24" fill="none" xmlns="http://www.w3.org/2000/svg">
  <path d="M14.4 12L23.5091 21.1091C24.1636 21.7636 24.1636 22.8545 23.5091 23.5091C22.8545 24.1636 21.7636 24.1636 21.1091 23.5091L12 14.4L2.89089 23.5091C2.23634 24.1636 1.14545 24.1636 0.490909 23.5091C-0.163636 22.8545 -0.163636 21.7636 0.490909 21.1091L9.59999 12L0.490909 2.89091C-0.163636 2.23637 -0.163636 1.14545 0.490909 0.490909C1.14545 -0.163636 2.23634 -0.163636 2.89089 0.490909L12 9.6L21.1091 0.490909C21.7636 -0.163636 22.8545 -0.163636 23.5091 0.490909C24.1636 1.14545 24.1636 2.23637 23.5091 2.89091L14.4 12Z" fill="currentColor"/>
</svg>

<!-- scroll icon -->
<svg width="39" height="56" viewBox="0 0 39 56" fill="none" xmlns="http://www.w3.org/2000/svg">
  <rect x="1" y="1" width="36.4478" height="54" rx="18.2239" stroke="currentColor" stroke-width="2"/>
  <rect x="17.5518" y="10.0298" width="3.34328" height="13.3731" rx="1.67164" fill="currentColor"/>
</svg>

<!-- prev carousel icon -->
<svg width="40" height="40" viewBox="0 0 40 40" fill="none" xmlns="http://www.w3.org/2000/svg">
  <circle cx="20" cy="20" r="19.5" stroke="currentColor"/>
  <path fill-rule="evenodd" clip-rule="evenodd" d="M22.7428 26.1762C22.8822 26.0367 22.8822 25.8106 22.7428 25.6711L17.4395 20.3677L22.7428 15.0643C22.8822 14.9248 22.8822 14.6987 22.7428 14.5592C22.6033 14.4198 22.3772 14.4198 22.2377 14.5592L16.6819 20.1152C16.5425 20.2546 16.5425 20.4808 16.6819 20.6202L22.2377 26.1762C22.3772 26.3156 22.6033 26.3156 22.7428 26.1762Z" fill="currentColor"/>
</svg>

<!-- next carousel icon -->
<svg width="40" height="40" viewBox="0 0 40 40" fill="none" xmlns="http://www.w3.org/2000/svg">
  <circle cx="20" cy="20" r="19.5" stroke="currentColor"/>
  <path fill-rule="evenodd" clip-rule="evenodd" d="M17.9506 26.1762C17.8111 26.0367 17.8111 25.8106 17.9506 25.6711L23.2538 20.3677L17.9506 15.0643C17.8111 14.9248 17.8111 14.6987 17.9506 14.5592C18.0901 14.4198 18.3162 14.4198 18.4557 14.5592L24.0114 20.1152C24.1509 20.2546 24.1509 20.4808 24.0114 20.6202L18.4557 26.1762C18.3162 26.3156 18.0901 26.3156 17.9506 26.1762Z" fill="currentColor"/>
</svg>

<!-- chevron up icon -->
<svg width="13" height="13" viewBox="0 0 13 13" fill="none" xmlns="http://www.w3.org/2000/svg">
  <path fill-rule="evenodd" clip-rule="evenodd" d="M0.252534 6.31358C0.392005 6.45305 0.618132 6.45305 0.757603 6.31358L6.06082 1.0102L11.364 6.31358C11.5035 6.45305 11.7296 6.45305 11.8691 6.31358C12.0086 6.1741 12.0086 5.94797 11.8691 5.80849L6.31336 0.252571C6.17389 0.113096 5.94776 0.113096 5.80829 0.252571L0.252534 5.80849C0.113063 5.94797 0.113063 6.1741 0.252534 6.31358Z" fill="currentColor"/>
</svg>


<!-- chevron down icon -->
<svg width="13" height="13" viewBox="0 0 13 13" fill="none" xmlns="http://www.w3.org/2000/svg">
  <path fill-rule="evenodd" clip-rule="evenodd" d="M0.252534 5.80849C0.392005 5.66902 0.618132 5.66902 0.757603 5.80849L6.06082 11.1119L11.364 5.80849C11.5035 5.66902 11.7296 5.66902 11.8691 5.80849C12.0086 5.94797 12.0086 6.1741 11.8691 6.31358L6.31336 11.8695C6.17389 12.009 5.94776 12.009 5.80829 11.8695L0.252534 6.31358C0.113063 6.1741 0.113063 5.94797 0.252534 5.80849Z" fill="currentColor"/>
</svg>

<!-- tick icon -->
<svg width="11" height="8" viewBox="0 0 11 8" fill="none" xmlns="http://www.w3.org/2000/svg">
  <path d="M10.398 0.168224C10.1844 -0.0560748 9.84607 -0.0560748 9.65022 0.168224L3.47194 6.65421L0.908047 3.96262C0.694389 3.73832 0.356097 3.73832 0.160243 3.96262C-0.0534145 4.18692 -0.0534145 4.54206 0.160243 4.74766L3.09804 7.83178C3.20487 7.94392 3.34731 8 3.47194 8C3.59658 8 3.73901 7.94392 3.84584 7.83178L10.398 0.953271C10.5939 0.747663 10.5939 0.392523 10.398 0.168224Z" fill="currentColor"/>
</svg>

<!-- error icon -->
<svg width="24" height="24" viewBox="0 0 24 24" fill="none" xmlns="http://www.w3.org/2000/svg">
<path d="M12 0C9.62663 0 7.30655 0.703788 5.33316 2.02236C3.35977 3.34094 1.8217 5.21508 0.913451 7.4078C0.00519941 9.60051 -0.232441 12.0133 0.230582 14.3411C0.693605 16.6689 1.83649 18.807 3.51472 20.4853C5.19295 22.1635 7.33115 23.3064 9.65892 23.7694C11.9867 24.2324 14.3995 23.9948 16.5922 23.0866C18.7849 22.1783 20.6591 20.6402 21.9776 18.6668C23.2962 16.6935 24 14.3734 24 12C24 8.8174 22.7357 5.76515 20.4853 3.51472C18.2348 1.26428 15.1826 0 12 0ZM12 22.9565C9.83301 22.9565 7.71468 22.3139 5.91289 21.11C4.1111 19.9061 2.70677 18.1949 1.8775 16.1929C1.04823 14.1908 0.83125 11.9878 1.25401 9.86249C1.67677 7.73713 2.72028 5.78487 4.25257 4.25257C5.78487 2.72027 7.73714 1.67676 9.86249 1.254C11.9878 0.831245 14.1908 1.04822 16.1929 1.87749C18.1949 2.70677 19.9061 4.11109 21.11 5.91288C22.3139 7.71467 22.9565 9.833 22.9565 12C22.9565 14.9058 21.8022 17.6927 19.7474 19.7474C17.6927 21.8022 14.9059 22.9565 12 22.9565ZM12.5217 6V14.8696C12.5217 15.0079 12.4668 15.1406 12.3689 15.2385C12.2711 15.3363 12.1384 15.3913 12 15.3913C11.8616 15.3913 11.7289 15.3363 11.6311 15.2385C11.5332 15.1406 11.4783 15.0079 11.4783 14.8696V6C11.4783 5.86163 11.5332 5.72892 11.6311 5.63107C11.7289 5.53323 11.8616 5.47826 12 5.47826C12.1384 5.47826 12.2711 5.53323 12.3689 5.63107C12.4668 5.72892 12.5217 5.86163 12.5217 6ZM12.48 17.8017C12.5067 17.8645 12.5209 17.9318 12.5217 18C12.5243 18.0347 12.5243 18.0696 12.5217 18.1043C12.516 18.137 12.5055 18.1687 12.4904 18.1983C12.479 18.2315 12.4632 18.2631 12.4435 18.2922L12.3809 18.3704C12.3313 18.4179 12.2727 18.4552 12.2087 18.48C12.146 18.5067 12.0786 18.5209 12.0104 18.5217C11.8723 18.5198 11.74 18.4658 11.64 18.3704L11.5774 18.2922C11.5576 18.2631 11.5419 18.2315 11.5304 18.1983C11.5081 18.17 11.4905 18.1383 11.4783 18.1043C11.4757 18.0696 11.4757 18.0347 11.4783 18C11.4791 17.9318 11.4933 17.8645 11.52 17.8017C11.5448 17.7377 11.5821 17.6792 11.6296 17.6296C11.6781 17.5807 11.7358 17.5418 11.7994 17.5154C11.8629 17.4889 11.9311 17.4752 12 17.4752C12.0689 17.4752 12.1371 17.4889 12.2007 17.5154C12.2642 17.5418 12.3219 17.5807 12.3704 17.6296C12.4179 17.6792 12.4552 17.7377 12.48 17.8017Z" fill="currentColor"/>
</svg>

<!-- section 1 play icon-->
<svg width="32" height="32" viewBox="0 0 32 32" fill="none" xmlns="http://www.w3.org/2000/svg">
  <circle cx="16" cy="16" r="15.5" stroke="currentColor"/>
  <path d="M12.8 20.0422C12.8189 20.9361 13.6661 21.4773 14.4084 21.0518L20.3774 17.3914C20.7025 17.1918 20.9231 16.826 20.9231 16.3974C20.9231 15.9687 20.7025 15.603 20.3774 15.4034L14.4084 11.7482C13.6661 11.3226 12.8189 11.8587 12.8 12.7526V20.0422Z" fill="currentColor"/>
</svg>

<!-- video thumbnail play icon -->
<svg width="80" height="80" viewBox="0 0 80 80" fill="none" xmlns="http://www.w3.org/2000/svg">
  <circle cx="40" cy="40" r="40" fill="black" fill-opacity="0.4"/>
  <path d="M32 50.1065C32.0471 52.3411 34.1652 53.6943 36.0209 52.6304L50.9434 43.4795C51.7562 42.9805 52.3076 42.0661 52.3076 40.9945C52.3076 39.9228 51.7562 39.0084 50.9434 38.5094L36.0209 29.3714C34.1652 28.3076 32.0471 29.6478 32 31.8824V50.1065Z" fill="currentColor"/>
</svg>

