<?xml version="1.0" standalone="no"?>
<!DOCTYPE svg PUBLIC "-//W3C//DTD SVG 1.1//EN" "http://www.w3.org/Graphics/SVG/1.1/DTD/svg11.dtd" >
<svg xmlns="http://www.w3.org/2000/svg" xmlns:xlink="http://www.w3.org/1999/xlink" version="1.1">
<metadata>
Created by FontForge 20190801 at Mon Mar 17 12:28:10 2003
 By Jimmy Wärting
Copyright 1996, 2003 Adobe Systems Incorporated. All Rights Reserved. 
</metadata>
<defs>
<font id="KeplerStd-Medium" horiz-adv-x="1000" >
  <font-face 
    font-family="Kepler Std"
    font-weight="500"
    font-stretch="normal"
    units-per-em="1000"
    panose-1="2 4 6 3 6 7 10 6 2 4"
    ascent="700"
    descent="-300"
    x-height="430"
    cap-height="633"
    bbox="-177 -332 3778.1 877"
    underline-thickness="58"
    underline-position="-140"
    stemh="29"
    stemv="100"
    unicode-range="U+0020-FB06"
  />
<missing-glyph horiz-adv-x="500" 
d="M0 0v700h500v-700h-500zM250 395l170 255h-340zM280 350l170 -255v510zM80 50h340l-170 255zM50 605v-510l170 255z" />
    <glyph glyph-name="T_h" unicode="Th" horiz-adv-x="1057" 
d="M262 243v217c0 65 1 114 -1 140c-127 0 -159 -9 -177 -48c-16 -34 -26 -69 -37 -109l-27 6c10 51 19 147 22 191c30 -7 115 -10 233 -10h83c127 0 194 2 232 8c-1 10 -1 21 -1 27c22 0 85 7 107 11c-2 -41 -4 -99 -4 -179v-131c36 35 91 75 160 75c71 0 100 -38 110 -58
c9 -18 13 -42 13 -72v-258c0 -21 4 -24 62 -27l-1 -29c-30 0 -70 3 -112 3c-47 0 -81 -3 -108 -3l1 29c45 2 53 8 55 26c1 20 4 67 4 141c0 128 -2 142 -8 156c-9 23 -28 40 -64 40c-42 0 -77 -17 -101 -58c-9 -15 -11 -29 -11 -48v-112c0 -51 1 -92 2 -115
c2 -24 8 -28 56 -30l-1 -29c-25 0 -74 3 -111 3c-49 0 -82 -3 -109 -3v29c48 2 58 6 59 28c2 31 4 68 4 158v284c0 38 0 65 -1 95c-28 3 -106 11 -219 9c-1 -26 -1 -77 -1 -131v-226c0 -102 2 -157 4 -181c2 -19 7 -27 26 -29c30 -4 45 -6 69 -7l-2 -29c-32 0 -92 3 -162 3
c-48 0 -100 -3 -141 -3l-4 28c20 1 33 4 65 7c21 2 31 9 32 28c3 33 4 77 4 183z" />
    <glyph glyph-name="f_f_i" unicode="ffi" horiz-adv-x="853" 
d="M27 426h66v20c0 55 15 107 51 145c36 42 90 74 169 74c62 0 108 -28 128 -53c34 38 89 66 162 66c102 0 152 -49 152 -105c0 -35 -23 -57 -60 -57c-24 0 -40 11 -40 29c1 10 4 24 4 38c0 39 -24 63 -71 63c-44 0 -78 -28 -90 -83c-8 -29 -14 -64 -14 -137h109
c88 0 150 6 182 14c-2 -24 -4 -73 -4 -160v-108c0 -68 1 -96 2 -117c2 -23 9 -27 63 -29l-1 -29c-37 0 -73 3 -119 3c-54 0 -83 -3 -113 -3v29c55 1 63 8 65 27c1 19 3 62 3 130v85c0 58 -2 94 -3 108c-2 11 -12 15 -41 15l-144 1c-1 -44 -1 -103 -1 -169
c0 -73 1 -136 3 -164c2 -27 11 -30 71 -33l-2 -29c-35 0 -72 3 -113 3s-94 -3 -125 -3l1 29c50 2 59 5 61 23c2 23 4 88 4 164v178h-189c-1 -44 -1 -101 -1 -167c0 -76 1 -140 3 -166s9 -29 71 -32l-4 -29c-31 0 -67 3 -107 3c-44 0 -98 -3 -133 -3l1 29c54 2 63 5 65 23
c2 23 4 85 4 167v175l-68 6zM194 426h189c0 42 6 91 18 125c-9 39 -47 81 -100 81c-43 0 -79 -23 -94 -77c-10 -31 -14 -80 -13 -129z" />
    <glyph glyph-name="f_f_l" unicode="ffl" horiz-adv-x="853" 
d="M25 427h68v16c0 58 17 111 51 149c36 41 91 73 170 73c62 0 104 -28 124 -50c36 40 91 63 150 63c50 0 82 -12 103 -26c23 7 55 14 85 20c-1 -33 -5 -101 -5 -219v-224c0 -105 0 -150 2 -173c1 -26 8 -28 67 -30l-2 -29c-41 0 -100 3 -139 3c-41 0 -74 -3 -98 -3v29
c55 1 63 8 65 32c2 18 5 95 5 182v272c0 44 -3 70 -10 85c-11 25 -37 49 -80 49c-37 0 -70 -22 -82 -64c-10 -31 -15 -78 -15 -155h111l-8 -30l-104 -5c-1 -44 -1 -103 -1 -169c0 -73 1 -135 3 -163c3 -27 9 -31 69 -34l-2 -29c-32 0 -74 3 -118 3c-43 0 -89 -3 -119 -3
l1 29c52 2 60 6 63 24c2 24 3 85 3 161v181h-189c-1 -45 -1 -101 -1 -167c0 -76 1 -141 2 -166c2 -28 10 -31 70 -33l-3 -29c-29 0 -65 3 -106 3c-43 0 -99 -3 -133 -3l1 29c55 1 63 5 65 23c2 24 4 96 4 168v175l-70 6zM194 427h189c0 44 4 84 16 125c-9 36 -42 80 -99 80
c-39 0 -76 -20 -93 -77c-9 -28 -13 -75 -13 -128z" />
    <glyph glyph-name="f_f" unicode="ff" horiz-adv-x="579" 
d="M28 427h64v26c0 69 18 122 53 159c30 32 69 51 117 51c70 0 102 -39 102 -77c0 -28 -22 -49 -51 -49c-17 0 -26 12 -26 28c0 37 -10 66 -44 66c-28 0 -44 -26 -50 -70c-4 -29 -1 -67 1 -134h188v17c0 52 5 96 26 132c26 58 77 102 151 102c73 0 105 -40 105 -78
c0 -28 -22 -47 -51 -47c-18 0 -28 11 -28 27c0 39 -10 66 -46 66c-30 0 -46 -24 -53 -74c-5 -27 -5 -66 -3 -145h101l-6 -30l-96 -6c0 -41 -1 -99 -1 -165c0 -72 1 -138 3 -166c1 -21 7 -28 25 -30c18 -1 35 -4 54 -4l-3 -29c-34 0 -79 3 -120 3s-91 -3 -124 -3l1 29
c50 2 59 5 60 23c2 23 4 91 4 167v176h-188c-1 -47 -1 -103 -1 -170c0 -74 1 -138 2 -163c1 -20 7 -27 21 -29c15 -2 32 -3 49 -4l-4 -29c-30 0 -70 3 -110 3c-44 0 -92 -3 -128 -3l1 29c54 2 63 5 65 23c2 24 4 95 4 168v175l-67 6z" />
    <glyph glyph-name="f_i" unicode="fi" horiz-adv-x="563" 
d="M22 396l3 30h68v18c0 68 17 118 48 155c39 47 95 79 174 79c102 0 151 -48 151 -103c0 -33 -22 -58 -60 -58c-24 0 -39 14 -39 32c1 9 5 24 5 38c0 38 -25 59 -74 59c-45 0 -79 -28 -92 -84c-7 -28 -12 -62 -12 -136h110c87 0 149 6 181 14c-2 -24 -4 -73 -4 -160v-108
c0 -68 1 -96 3 -117c1 -23 8 -27 63 -29l-1 -29c-37 0 -74 3 -121 3c-54 0 -83 -3 -114 -3l1 29c55 1 64 9 65 27c2 19 4 63 4 132v83c0 58 -1 94 -4 108c-1 11 -12 15 -40 15h-145v-172c0 -68 1 -131 2 -159c2 -27 14 -31 69 -34l-2 -29c-34 1 -74 3 -114 3
c-43 0 -87 -3 -126 -3l1 29c56 2 63 5 65 24c2 22 5 88 5 166v175z" />
    <glyph glyph-name="f_l" unicode="fl" horiz-adv-x="564" 
d="M25 426h68v26c0 75 19 127 59 167c36 37 87 59 150 59c46 0 78 -11 99 -24c22 5 56 13 85 19c-1 -35 -5 -101 -5 -219v-226c0 -104 1 -149 2 -173s9 -27 68 -29l-2 -29c-42 0 -99 3 -136 3c-43 0 -79 -3 -102 -3v29c55 1 62 8 65 32c1 19 5 95 5 182v278
c0 39 -4 67 -10 81c-12 23 -35 47 -81 47c-36 0 -68 -21 -81 -65c-11 -32 -15 -79 -15 -155h111l-8 -30l-105 -6v-172c0 -71 1 -130 2 -159c1 -25 11 -29 70 -33l-3 -29c-33 0 -71 3 -111 3c-47 0 -95 -3 -129 -3l1 29c55 2 63 6 65 24c2 23 5 95 5 166v174l-71 6z" />
    <glyph glyph-name=".notdef" horiz-adv-x="500" 
d="M0 0v700h500v-700h-500zM250 395l170 255h-340zM280 350l170 -255v510zM80 50h340l-170 255zM50 605v-510l170 255z" />
    <glyph glyph-name="space" unicode=" " horiz-adv-x="206" 
 />
    <glyph glyph-name="exclam" unicode="!" horiz-adv-x="230" 
d="M116 656h1c32 0 69 -46 69 -82c0 -24 -6 -51 -15 -82c-25 -97 -40 -206 -40 -284h-32c0 78 -15 187 -41 284c-8 31 -14 57 -14 82c0 46 49 82 72 82zM116 -14h-1c-33 0 -62 28 -62 68c0 39 29 67 65 67c35 0 64 -28 64 -67s-27 -68 -66 -68z" />
    <glyph glyph-name="quotedbl" unicode="&#x22;" horiz-adv-x="320" 
d="M255 707h1c20 0 28 -35 28 -52c0 -44 -34 -143 -49 -180h-24c-3 69 -17 167 -29 201c10 10 51 31 73 31zM109 707h1c20 0 28 -35 28 -52c0 -44 -34 -143 -50 -180h-23c-3 69 -17 168 -29 201c10 10 51 31 73 31z" />
    <glyph glyph-name="numbersign" unicode="#" horiz-adv-x="478" 
d="M300 393h-103l-31 -123h104zM212 590l42 3c-8 -20 -24 -73 -40 -134h102c14 51 25 96 33 131l42 3c-12 -36 -27 -85 -39 -134c47 0 73 0 92 1c-7 -20 -16 -53 -20 -69c-18 0 -46 1 -89 1l-31 -121c55 1 75 1 103 2c-7 -17 -14 -49 -18 -70c-25 0 -55 0 -101 1
c-15 -64 -26 -113 -33 -151l-44 -4c7 23 22 78 42 155h-103c-18 -70 -31 -122 -37 -151l-42 -6c8 24 20 67 43 157c-29 -1 -53 0 -88 -1c7 20 13 47 17 69c18 0 41 -1 88 -2l32 123c-41 1 -74 0 -103 -1c6 17 13 43 18 68c20 -1 59 -1 101 -1c14 50 25 101 33 131z" />
    <glyph glyph-name="dollar" unicode="$" horiz-adv-x="486" 
d="M365 141v1c0 62 -42 78 -108 108l-8 -207c58 2 116 30 116 98zM129 477v-1c0 -53 44 -80 105 -103l8 200c-68 -2 -113 -38 -113 -96zM248 676l37 7l-6 -83c41 -2 82 -18 102 -34l18 38l22 -5c-14 -71 -16 -141 -16 -183l-27 2c1 92 -42 141 -102 153l-12 -210
c75 -33 109 -49 130 -65c35 -24 55 -57 55 -110c0 -46 -18 -83 -44 -110c-34 -35 -89 -60 -158 -63l-2 -85l-40 -8l6 93c-66 2 -126 20 -170 32c8 47 11 107 13 171l27 4c-4 -126 51 -169 133 -177l12 219c-31 14 -70 29 -93 41c-62 34 -82 80 -82 134c0 51 20 91 56 121
c29 24 78 43 138 44z" />
    <glyph glyph-name="percent" unicode="%" horiz-adv-x="728" 
d="M160 -23l-34 25c88 120 319 462 387 563c-33 -19 -74 -31 -128 -31c-27 0 -60 7 -78 12c10 -25 16 -56 16 -89c0 -112 -57 -184 -143 -184c-82 0 -142 55 -142 168c-1 117 75 182 155 182c25 0 45 -5 65 -16l15 12c23 -26 72 -51 131 -51c89 0 125 32 136 44
c7 8 14 20 28 42l56 5c-83 -120 -297 -423 -464 -682zM198 591h-1c-17 0 -30 -6 -42 -19c-13 -16 -30 -53 -31 -126c-1 -59 12 -104 30 -123c10 -11 25 -18 43 -18c37 0 81 40 81 153c0 57 -13 133 -80 133zM557 357h1c100 0 133 -81 133 -170c0 -106 -55 -179 -142 -179
c-83 0 -142 55 -143 165c0 120 75 184 151 184zM567 327h-1c-15 0 -32 -8 -43 -22c-13 -16 -29 -56 -30 -124c0 -65 13 -106 30 -124c10 -11 25 -17 42 -17c42 0 83 46 83 148c0 57 -14 139 -81 139z" />
    <glyph glyph-name="ampersand" unicode="&#x26;" horiz-adv-x="719" 
d="M673 26l-1 -28c-40 -10 -80 -16 -122 -16c-43 0 -82 25 -148 93c-36 -50 -89 -90 -172 -90c-55 0 -99 12 -134 44c-31 28 -52 72 -52 123s20 85 51 112c24 20 57 43 84 60c-31 42 -60 91 -60 147c0 90 63 158 168 158c98 0 152 -64 152 -132c0 -45 -21 -71 -54 -95
c-21 -15 -47 -32 -95 -58c47 -57 103 -118 146 -162c29 63 38 82 56 118c35 76 71 121 118 121c35 0 48 -22 48 -44c0 -13 -7 -26 -15 -32c-6 -7 -12 -8 -19 -5c-6 3 -13 5 -22 5c-27 0 -46 -16 -75 -65c-18 -29 -38 -68 -66 -120c78 -81 139 -136 212 -134zM282 598h-1
c-39 0 -74 -29 -74 -98c0 -49 29 -94 61 -133c53 35 89 78 89 133s-27 98 -75 98zM144 186v-1c0 -77 51 -144 130 -144c58 0 88 32 104 56c-43 45 -110 118 -178 202c-30 -25 -56 -59 -56 -113z" />
    <glyph glyph-name="quoteright" unicode="&#x2019;" horiz-adv-x="200" 
d="M36 483l-6 24c53 10 93 48 92 91c0 5 -3 5 -6 3c-8 -5 -22 -9 -32 -9c-24 0 -48 21 -48 56c0 33 28 59 60 59c44 0 71 -35 71 -87c0 -86 -74 -133 -131 -137z" />
    <glyph glyph-name="parenleft" unicode="(" horiz-adv-x="338" 
d="M48 263v1c0 150 38 267 112 356c33 41 77 77 122 99l14 -27c-41 -22 -104 -73 -130 -197c-15 -76 -19 -157 -19 -235c0 -89 6 -171 20 -234c25 -126 88 -175 129 -197l-14 -28c-45 23 -90 58 -123 100c-80 96 -111 218 -111 362z" />
    <glyph glyph-name="parenright" unicode=")" horiz-adv-x="338" 
d="M292 259v-1c0 -142 -34 -264 -112 -358c-33 -41 -77 -76 -122 -99l-14 27c41 22 104 73 130 198c13 63 19 145 19 234c0 76 -3 160 -19 235c-26 126 -89 174 -130 196l14 28c45 -23 90 -58 123 -99c78 -95 111 -213 111 -361z" />
    <glyph glyph-name="asterisk" unicode="*" horiz-adv-x="410" 
d="M235 522l-3 19c44 13 83 55 102 58c21 4 41 -25 43 -34c3 -11 -3 -47 -27 -50c-19 -3 -72 14 -115 7zM219 499l15 13c29 -31 87 -46 100 -60c14 -17 0 -48 -7 -54c-8 -7 -40 -23 -55 -3c-12 13 -22 71 -53 104zM189 500l19 -7c-11 -42 6 -98 0 -116
c-8 -21 -42 -24 -52 -22c-10 4 -38 25 -31 48c6 16 48 53 64 97zM177 525l3 -20c-44 -12 -82 -55 -100 -58c-23 -4 -42 26 -46 34c-1 11 4 47 27 50c19 3 72 -13 116 -6zM193 551l-15 -15c-32 31 -89 46 -102 61c-13 16 1 47 8 55c8 7 40 21 54 3c13 -14 26 -71 55 -104z
M222 548l-20 6c11 41 -4 100 2 117c8 21 41 23 51 20s38 -24 29 -47c-6 -16 -47 -53 -62 -96z" />
    <glyph glyph-name="plus" unicode="+" horiz-adv-x="521" 
d="M290 10h-56v199h-181v53h181v180h56v-180h179v-53h-179v-199z" />
    <glyph glyph-name="comma" unicode="," horiz-adv-x="215" 
d="M40 -113l-7 26c53 11 97 48 97 99c0 5 -4 6 -8 3c-8 -6 -21 -9 -31 -9c-27 0 -52 21 -51 59c0 35 28 64 63 64c47 0 74 -40 74 -95c0 -96 -82 -143 -137 -147z" />
    <glyph glyph-name="hyphen" unicode="-" horiz-adv-x="317" 
d="M36 199l12 65c76 -2 148 -2 233 0l-11 -65c-84 2 -158 2 -234 0z" />
    <glyph glyph-name="period" unicode="." horiz-adv-x="215" 
d="M107 124h1c38 0 64 -30 64 -69c0 -41 -29 -69 -65 -69s-65 28 -65 69c0 39 29 69 65 69z" />
    <glyph glyph-name="slash" unicode="/" horiz-adv-x="407" 
d="M319 700l50 -16c-12 -28 -91 -241 -146 -403c-38 -114 -86 -260 -129 -381l-50 14c29 76 82 232 136 385c53 151 123 353 139 401z" />
    <glyph glyph-name="zero" unicode="0" horiz-adv-x="486" 
d="M250 625h1c54 0 100 -19 136 -59c50 -57 72 -152 72 -250c-1 -152 -41 -240 -95 -286c-41 -34 -89 -44 -126 -44c-48 0 -97 16 -133 52c-56 58 -78 157 -78 264c1 115 31 221 103 280c35 28 75 43 120 43zM245 594h-1c-31 0 -50 -16 -68 -51c-23 -47 -37 -142 -37 -232
c0 -93 10 -180 33 -233c15 -36 39 -60 75 -60c33 0 53 19 70 57c21 47 32 129 32 232c0 111 -13 192 -32 235c-16 33 -37 52 -72 52z" />
    <glyph glyph-name="one" unicode="1" horiz-adv-x="486" 
d="M413 25l1 -28c-65 0 -127 3 -167 3c-49 0 -105 -3 -156 -3l-5 28l80 8c23 2 31 8 32 24c2 24 4 69 4 143v199c0 72 0 123 -2 154c0 12 -4 16 -12 16c-19 -1 -62 -4 -88 -5l6 29c68 7 175 23 200 32l5 -3c-1 -37 -4 -101 -4 -221v-198c0 -74 1 -113 3 -146
c1 -16 5 -23 23 -25z" />
    <glyph glyph-name="two" unicode="2" horiz-adv-x="486" 
d="M432 178l27 -12c-21 -74 -30 -142 -33 -171c-21 2 -74 5 -287 5c-45 0 -80 0 -109 -2l-3 9c6 17 17 42 24 56c125 88 216 195 241 280c12 38 16 74 16 118c0 65 -24 133 -93 133c-62 0 -89 -37 -89 -99c0 -16 4 -32 8 -47c2 -9 -2 -22 -10 -30c-9 -9 -23 -14 -37 -14
c-30 -1 -52 22 -52 63c0 39 20 76 53 106c35 32 89 52 148 52c54 0 98 -16 124 -37c47 -36 64 -92 64 -150c0 -61 -22 -106 -62 -149c-34 -38 -108 -102 -228 -207c155 3 229 7 249 9c13 2 21 7 27 22c5 14 15 40 22 65z" />
    <glyph glyph-name="three" unicode="3" horiz-adv-x="486" 
d="M244 625h1c85 0 175 -44 175 -139c0 -53 -27 -84 -58 -106c-29 -19 -68 -33 -106 -46v-4c64 -4 122 -21 155 -52c29 -25 44 -56 44 -104c0 -59 -27 -104 -63 -134c-37 -31 -99 -54 -173 -54c-117 0 -187 57 -187 115c0 29 23 53 53 53c19 0 28 -11 34 -35
c16 -72 51 -102 105 -102c77 0 110 64 110 152c0 78 -32 133 -123 133c-17 0 -38 -3 -52 -8l-20 24l3 8c33 5 66 14 88 29c36 18 78 50 78 126c0 60 -28 112 -89 112c-55 0 -88 -30 -88 -86c0 -10 2 -23 5 -33c2 -10 -2 -20 -8 -27c-9 -9 -21 -12 -34 -12
c-26 0 -46 18 -46 55c0 58 69 135 196 135z" />
    <glyph glyph-name="four" unicode="4" horiz-adv-x="486" 
d="M273 217c4 114 4 247 6 325c-73 -103 -153 -215 -209 -309c20 -7 105 -17 203 -16zM18 192l-8 27c98 138 227 313 268 376c24 7 69 21 98 33l6 -3c-3 -81 -5 -242 -5 -345v-62c59 1 85 10 104 16l-1 -27c-16 -11 -48 -24 -103 -28c0 -56 1 -116 2 -179
c-38 1 -82 -5 -107 -13l-5 5c2 31 3 95 5 184c-119 -1 -226 9 -254 16z" />
    <glyph glyph-name="five" unicode="5" horiz-adv-x="486" 
d="M92 250l-25 25c23 73 43 303 41 340c12 -4 32 -8 58 -10c26 -3 58 -5 90 -5c99 0 147 7 175 42l16 -17c-14 -38 -41 -75 -71 -92c-27 -16 -74 -23 -125 -23c-49 0 -91 4 -111 8c-7 -62 -20 -152 -31 -204c35 28 95 54 154 54c106 0 187 -49 187 -171
c0 -45 -12 -90 -38 -125c-37 -50 -103 -86 -190 -86c-115 0 -184 54 -184 112c0 29 24 52 54 52c18 0 27 -11 33 -34c15 -70 51 -99 101 -99c75 0 107 70 107 163c0 52 -15 93 -39 116c-20 19 -43 28 -76 28c-66 0 -106 -37 -126 -74z" />
    <glyph glyph-name="six" unicode="6" horiz-adv-x="486" 
d="M407 621l3 -32c-10 3 -26 4 -38 4c-143 0 -223 -137 -231 -289c34 38 88 82 156 82c101 0 161 -75 161 -178c0 -67 -21 -119 -53 -155c-34 -39 -89 -67 -159 -67c-57 0 -105 16 -141 48c-48 42 -75 119 -75 212c0 132 44 234 117 301c63 56 139 80 210 80
c22 0 40 -3 50 -6zM254 334h-1c-53 0 -87 -36 -104 -77c-7 -15 -8 -29 -8 -51c0 -29 4 -74 18 -111c17 -48 46 -78 88 -78c36 0 62 18 78 52c17 34 23 76 23 118c0 34 -4 61 -14 87c-14 35 -41 60 -80 60z" />
    <glyph glyph-name="seven" unicode="7" horiz-adv-x="486" 
d="M62 418l-26 7c17 55 29 168 26 195c20 -6 50 -9 202 -9c134 0 164 0 185 1l4 -7c-7 -30 -22 -78 -42 -118c-95 -178 -168 -330 -171 -496l-7 -5c-24 -1 -50 4 -67 11c-14 6 -21 19 -21 33s4 26 10 44c37 128 175 314 232 447c-36 4 -89 4 -150 4c-121 0 -136 -6 -150 -39
c-8 -18 -16 -39 -25 -68z" />
    <glyph glyph-name="eight" unicode="8" horiz-adv-x="486" 
d="M255 626h1c87 0 166 -56 166 -148c0 -36 -15 -63 -32 -81c-18 -18 -43 -36 -77 -59c115 -62 138 -112 138 -176c0 -50 -21 -92 -58 -123c-38 -33 -98 -53 -156 -53c-122 0 -200 58 -200 156c0 41 17 70 37 90c21 21 53 40 91 66c-69 42 -103 88 -103 153
c0 50 14 81 36 109c31 38 82 66 157 66zM241 595h-1c-48 0 -95 -35 -95 -100c0 -32 11 -59 36 -79c27 -23 69 -45 105 -63c39 29 62 64 62 119c0 68 -39 123 -107 123zM252 17h1c62 0 104 40 104 105c0 64 -41 97 -163 161c-44 -26 -74 -68 -74 -126c0 -71 41 -140 132 -140
z" />
    <glyph glyph-name="nine" unicode="9" horiz-adv-x="486" 
d="M86 -9v30c20 -3 42 -3 63 2c114 13 184 116 196 278c-40 -40 -93 -72 -148 -72c-105 0 -167 75 -167 181c0 58 17 103 48 141c33 41 88 74 166 74c58 0 106 -19 139 -53c54 -53 73 -132 73 -223c0 -133 -48 -235 -112 -292c-58 -52 -131 -73 -194 -73c-26 0 -48 2 -64 7z
M239 593h-1c-31 0 -57 -14 -76 -50c-16 -33 -23 -68 -23 -113c0 -83 38 -149 103 -149c51 0 77 27 93 58c8 15 10 34 10 63c1 60 -12 116 -32 147c-18 27 -40 44 -74 44z" />
    <glyph glyph-name="colon" unicode=":" horiz-adv-x="214" 
d="M108 121h1c37 0 63 -30 63 -67c0 -40 -29 -68 -65 -68c-35 0 -64 27 -64 68c0 38 29 67 65 67zM109 405h1c38 0 63 -30 63 -67c0 -40 -29 -68 -64 -68c-36 0 -65 27 -65 68c0 38 29 67 65 67z" />
    <glyph glyph-name="semicolon" unicode=";" horiz-adv-x="215" 
d="M107 405h1c37 0 63 -30 63 -67c0 -40 -29 -68 -65 -68c-35 0 -64 28 -64 68c0 38 30 67 65 67zM41 -112l-8 25c53 11 97 47 97 97c0 6 -4 6 -7 3c-8 -5 -22 -8 -32 -8c-26 0 -51 22 -51 59c1 34 29 63 63 63c47 0 74 -39 74 -94c0 -95 -82 -141 -136 -145z" />
    <glyph glyph-name="less" unicode="&#x3c;" horiz-adv-x="501" 
d="M71 207v60l357 191v-62l-302 -158v-3l302 -157v-63z" />
    <glyph glyph-name="equal" unicode="=" horiz-adv-x="521" 
d="M468 171v-53h-416v53h416zM468 352v-53h-416v53h416z" />
    <glyph glyph-name="greater" unicode="&#x3e;" horiz-adv-x="501" 
d="M428 267v-60l-356 -192v62l300 158v3l-300 158v62z" />
    <glyph glyph-name="question" unicode="?" horiz-adv-x="419" 
d="M219 209l-25 -11c-22 24 -51 64 -52 103c0 26 14 48 30 66c28 30 81 83 103 106c14 15 24 32 24 56c0 68 -38 97 -87 97c-53 0 -78 -35 -78 -69c0 -18 4 -30 10 -42c4 -13 1 -22 -10 -30c-15 -13 -31 -17 -45 -17c-26 0 -49 20 -49 56c0 85 99 132 176 132
c103 0 171 -62 171 -167c0 -52 -24 -83 -55 -107c-35 -31 -75 -66 -94 -87c-26 -26 -33 -48 -19 -86zM207 -14h-1c-32 0 -62 28 -62 68c0 39 29 67 65 67c35 0 64 -28 64 -67c0 -40 -27 -68 -66 -68z" />
    <glyph glyph-name="at" unicode="@" horiz-adv-x="762" 
d="M300 110v-1c0 -19 7 -35 22 -35c61 0 127 108 149 177c9 26 11 34 15 53c1 31 -14 52 -43 52c-24 0 -53 -18 -77 -52c-46 -69 -66 -140 -66 -194zM543 -29l13 -26c-74 -83 -161 -103 -248 -103c-161 0 -264 107 -264 282c0 219 148 423 406 423c183 0 270 -117 270 -253
c0 -145 -98 -266 -226 -266c-74 0 -69 44 -48 118c-38 -61 -101 -118 -165 -118c-46 0 -62 36 -62 84c1 75 46 189 131 244c34 22 61 29 91 29c31 0 51 -17 59 -37l8 24h72c-33 -93 -65 -218 -74 -268c-5 -27 -1 -40 18 -40c86 -1 155 104 155 224c0 135 -84 225 -237 225
c-95 0 -172 -39 -225 -108c-67 -91 -89 -183 -89 -282c0 -80 21 -143 54 -178c36 -41 92 -65 157 -65c87 0 151 31 204 91z" />
    <glyph glyph-name="A" unicode="A" horiz-adv-x="626" 
d="M634 26v-29c-24 1 -76 3 -129 3c-51 0 -91 -2 -139 -3l-1 29c60 5 69 9 64 30c-9 35 -35 121 -54 183c-18 1 -59 1 -100 1c-40 0 -79 0 -95 -1c-27 -85 -41 -128 -48 -155c-10 -43 0 -53 82 -58l-1 -29c-32 0 -63 3 -108 3c-30 0 -78 -3 -117 -3v29c55 4 74 11 96 66
c33 81 143 393 170 476c10 28 15 43 17 60c22 1 74 7 93 15c49 -166 152 -499 189 -586c9 -19 20 -26 43 -28zM284 554c-24 -72 -53 -156 -91 -279c16 -1 53 -1 89 -1s71 0 83 1c-24 88 -56 194 -81 279z" />
    <glyph glyph-name="B" unicode="B" horiz-adv-x="596" 
d="M22 -3v29c66 3 81 7 82 25c2 30 4 78 4 141v259c0 64 0 97 -3 130c-1 14 -17 20 -82 23v29c33 0 79 -3 126 -3c48 0 109 3 162 3c95 0 134 -12 165 -40c26 -23 39 -59 39 -98c0 -75 -43 -112 -81 -129c-23 -11 -46 -17 -72 -22v-5c58 -7 104 -18 137 -40
c34 -22 56 -57 56 -118c0 -64 -27 -109 -77 -141c-48 -32 -120 -42 -194 -42c-45 0 -92 2 -137 2c-29 0 -91 -2 -125 -3zM217 467v-115c11 -1 29 -1 48 -1c84 0 133 31 133 133c0 34 -7 60 -19 79c-15 23 -42 39 -102 39c-49 0 -56 -6 -56 -18c-2 -29 -4 -64 -4 -117z
M217 319v-138c0 -65 1 -103 3 -135c1 -11 11 -17 48 -17c76 0 117 20 138 52c15 23 24 60 24 102c0 45 -9 74 -30 98c-22 25 -63 41 -135 41c-20 0 -37 -1 -48 -3z" />
    <glyph glyph-name="C" unicode="C" horiz-adv-x="619" 
d="M561 421l-27 -4c-8 102 -54 197 -166 197c-60 0 -102 -22 -136 -66c-39 -49 -63 -132 -63 -229c0 -80 18 -153 50 -203c36 -57 90 -84 152 -84c90 0 152 44 189 150l27 -17c-35 -118 -118 -181 -250 -181c-102 0 -179 33 -228 100c-42 53 -65 131 -65 221
c0 117 40 205 102 262c51 49 120 79 212 79c82 0 138 -25 169 -56l19 52l24 -8c-8 -57 -13 -147 -9 -213z" />
    <glyph glyph-name="D" unicode="D" horiz-adv-x="684" 
d="M108 229v202c0 78 -1 124 -2 145c-1 18 -7 22 -26 24l-58 6l2 27c23 0 83 -3 127 -3c48 0 103 3 163 4c110 0 165 -15 207 -41c75 -46 120 -133 120 -257c0 -131 -46 -249 -170 -307c-46 -21 -109 -32 -177 -32c-49 0 -99 3 -148 3c-43 0 -110 -3 -130 -3l1 29l47 3
c28 2 37 10 38 28c2 21 6 81 6 172zM217 426v-199c0 -119 1 -154 3 -177c2 -14 11 -22 61 -22c98 0 149 30 181 74c32 43 55 116 55 229c0 100 -21 169 -56 209c-37 42 -88 62 -166 62c-68 0 -73 -8 -74 -21c-1 -15 -4 -51 -4 -155z" />
    <glyph glyph-name="E" unicode="E" horiz-adv-x="567" 
d="M23 605v28c30 0 100 -3 151 -3h170c66 0 121 3 143 7c-4 -28 -5 -121 -3 -172l-27 -2c-4 27 -12 60 -24 88c-17 38 -33 47 -129 47h-66c-13 0 -16 -4 -17 -16c-2 -30 -4 -78 -4 -133v-106c11 -1 42 -1 57 -1c87 0 102 19 111 86h26c-6 -68 -7 -157 -2 -220l-27 1
c-8 74 -19 100 -109 100c-18 0 -45 0 -56 -2v-91c0 -61 1 -125 3 -160c1 -20 7 -25 91 -25c92 0 120 6 147 34c24 25 44 77 55 117l25 -4c-1 -24 -21 -157 -26 -183c-34 3 -98 5 -213 5h-124c-51 0 -125 -3 -160 -3l1 28l60 6c20 1 26 10 28 36c3 39 4 89 4 152v206
c0 73 -1 123 -2 151c-1 17 -9 23 -33 25z" />
    <glyph glyph-name="F" unicode="F" horiz-adv-x="539" 
d="M23 605l-2 28c33 0 98 -3 160 -3h143c114 0 154 4 181 7c-8 -70 -6 -149 -6 -178l-26 -1c-4 24 -9 57 -21 88c-14 37 -35 52 -135 52h-77c-11 0 -19 -3 -20 -14c-1 -9 -3 -53 -3 -138v-114c11 -1 50 -1 73 -1c83 0 100 13 112 90l25 -1c-7 -63 -5 -191 0 -227h-27
c-13 79 -18 104 -113 104c-22 0 -61 0 -70 -1v-104c0 -80 2 -112 3 -131c1 -17 7 -26 26 -28c16 -1 47 -6 73 -7l-3 -29c-36 0 -100 3 -149 3c-48 0 -113 -3 -147 -3l-1 29l56 5c18 1 26 9 28 26c2 21 4 73 4 151v231c0 85 -1 122 -2 138c-1 14 -8 21 -21 22z" />
    <glyph glyph-name="G" unicode="G" horiz-adv-x="679" 
d="M576 418h-29c-8 126 -68 198 -172 198c-59 0 -108 -19 -148 -76c-38 -54 -57 -134 -57 -226c0 -84 18 -161 51 -212c38 -61 91 -86 157 -86c62 0 96 22 100 57c4 30 4 85 4 132c0 55 -5 62 -55 66l-51 4l-1 29c34 0 111 -3 153 -3c44 0 97 1 124 3v-28
c-49 -7 -58 -11 -60 -34c-4 -41 -2 -77 -2 -107c0 -52 3 -80 7 -103c-24 -5 -70 -20 -99 -28c-36 -10 -87 -20 -136 -20c-124 0 -202 32 -256 102c-41 53 -63 131 -63 223c0 131 53 234 146 291c54 33 111 46 185 46c90 0 148 -31 171 -53l21 51l24 -8
c-7 -35 -18 -141 -14 -218z" />
    <glyph glyph-name="H" unicode="H" horiz-adv-x="708" 
d="M108 195v250c0 61 0 94 -2 126c-1 26 -18 32 -81 33l1 29c27 0 87 -3 133 -3c34 0 99 3 137 3l-1 -29c-59 -1 -73 -8 -75 -34s-3 -70 -3 -116v-107c26 -1 78 -1 131 -1c54 0 102 0 144 1v111c0 59 -1 91 -2 118c-1 21 -20 27 -77 28v29c43 -1 104 -3 132 -3
c45 0 116 2 137 3v-29c-60 -1 -76 -8 -78 -33c-2 -31 -3 -70 -3 -120v-248c0 -68 1 -116 4 -146c1 -23 15 -28 77 -31l-1 -29c-35 1 -92 3 -139 3c-44 0 -101 -2 -131 -3v29c60 2 77 9 78 33c1 22 3 56 3 135v117c-38 1 -90 2 -145 2c-54 0 -104 -1 -130 -2v-117
c0 -64 1 -106 3 -135c1 -26 19 -31 80 -33v-29c-36 1 -95 3 -148 3c-42 0 -93 -2 -130 -3v29c63 2 80 8 82 32c1 24 4 59 4 137z" />
    <glyph glyph-name="I" unicode="I" horiz-adv-x="325" 
d="M107 197v254c0 65 0 91 -1 116c-2 30 -16 33 -83 37l1 29c28 -1 87 -3 136 -3c47 0 104 3 137 3l1 -29c-63 -2 -76 -8 -78 -31c-1 -20 -3 -53 -3 -118v-256c0 -72 2 -109 3 -138c2 -27 17 -32 79 -35l-1 -29c-36 1 -94 3 -141 3c-45 0 -102 -2 -135 -3l1 29
c63 3 78 9 80 33c2 23 4 58 4 138z" />
    <glyph glyph-name="J" unicode="J" horiz-adv-x="315" 
d="M23 605l4 29c26 0 77 -4 132 -4c44 0 106 4 134 4l-1 -29l-39 -4c-25 -2 -30 -9 -31 -27c-2 -29 -4 -150 -4 -413c0 -41 -2 -79 -7 -113c-6 -57 -28 -116 -62 -156c-45 -52 -102 -80 -154 -80c-44 0 -71 22 -71 45c0 22 26 47 43 47c11 0 16 -3 23 -12
c20 -24 37 -34 55 -34c30 0 51 26 56 99c5 69 7 158 7 275l1 207c0 63 -1 106 -2 134c0 16 -6 24 -24 26c-17 2 -41 5 -60 6z" />
    <glyph glyph-name="K" unicode="K" horiz-adv-x="644" 
d="M107 204v228c0 77 0 115 -1 142c-2 25 -15 27 -78 31l2 29c27 0 83 -3 130 -3c48 0 105 3 131 3l3 -29c-60 -4 -71 -5 -73 -29s-5 -69 -5 -142v-104c68 30 213 194 247 247c9 14 5 18 -8 20l-58 7l7 29c31 0 70 -2 114 -2s86 2 112 3l1 -29c-59 -3 -85 -10 -112 -33
c-40 -36 -122 -123 -198 -200c70 -101 204 -276 241 -315c21 -22 38 -27 100 -31l-6 -29c-40 2 -72 1 -102 -1c-35 -1 -67 -4 -89 -7c-19 34 -161 223 -207 288c-19 25 -28 33 -42 28v-95c0 -84 3 -129 4 -153c2 -24 12 -26 81 -31l-1 -29c-37 0 -95 3 -146 3
c-53 0 -106 -3 -135 -3l1 29c67 5 81 8 83 31c1 19 4 68 4 147z" />
    <glyph glyph-name="L" unicode="L" horiz-adv-x="539" 
d="M490 193l28 -1c-8 -46 -16 -133 -23 -196c-18 2 -62 3 -121 3c-58 1 -133 1 -208 1c-44 0 -125 -3 -150 -3v29l56 5c22 3 29 8 30 25c3 32 6 96 6 178v212c0 79 -1 111 -2 132c-1 15 -8 21 -28 22l-52 4l1 29c27 0 97 -3 136 -3c38 0 83 3 139 3l3 -29l-55 -4
c-21 -2 -27 -8 -28 -26c-2 -37 -5 -90 -5 -167v-176c0 -82 1 -156 3 -183c1 -11 7 -17 66 -17c101 0 133 6 156 39c21 30 35 73 48 123z" />
    <glyph glyph-name="M" unicode="M" horiz-adv-x="848" 
d="M25 604l2 29c57 -2 96 -3 124 -3c35 0 68 1 82 3c22 -64 137 -322 199 -470c82 197 174 424 189 470c22 -2 44 -3 82 -3c43 0 86 3 116 3l3 -29c-20 -1 -51 -4 -65 -6c-13 -1 -18 -8 -18 -22c-1 -18 0 -58 0 -126c0 -191 1 -336 6 -385c2 -28 9 -32 30 -34l53 -6v-28
c-24 1 -89 3 -138 3c-41 0 -93 -2 -139 -3l1 28c61 4 74 11 75 34c3 55 8 311 11 526h-1c-104 -269 -187 -491 -220 -580l-49 -11c-39 124 -161 419 -222 584h-2c0 -202 4 -377 7 -479c1 -50 7 -64 48 -68l52 -6v-28c-34 0 -81 3 -125 3c-47 0 -89 -3 -112 -3v28
c16 1 29 3 46 5c25 5 38 14 41 72c4 69 10 257 10 472l-3 12c-2 7 -12 13 -30 14z" />
    <glyph glyph-name="N" unicode="N" horiz-adv-x="671" 
d="M16 604v29c19 0 70 -3 107 -3c36 0 60 1 86 3c9 -16 24 -38 54 -83c29 -46 134 -196 279 -403c1 280 -5 382 -8 409c-4 34 -15 42 -52 45l-51 3l5 29c43 0 88 -3 123 -3c37 0 81 3 106 3l1 -29c-21 -2 -37 -4 -51 -7c-17 -4 -23 -13 -27 -36c-6 -37 -12 -159 -12 -311
v-253c-17 -1 -49 -6 -65 -10c-89 139 -251 377 -366 547c0 -226 2 -425 8 -463c4 -25 16 -34 34 -37c16 -2 43 -6 69 -8l-2 -29c-35 0 -81 3 -135 3c-47 0 -82 -3 -108 -3l1 29c14 0 35 3 52 6c24 3 30 18 34 46c5 38 15 250 15 483c-3 10 -5 16 -12 24c-6 8 -17 13 -39 15z
" />
    <glyph glyph-name="O" unicode="O" horiz-adv-x="681" 
d="M348 646h1c185 0 289 -143 289 -321c0 -223 -118 -341 -298 -341c-181 0 -297 120 -297 326c0 182 104 336 305 336zM340 616h-1c-52 0 -95 -25 -125 -74c-25 -43 -44 -119 -44 -219c0 -99 22 -187 51 -233c32 -52 75 -74 128 -74c48 0 90 19 120 72c26 45 42 127 42 223
c0 94 -16 178 -44 229c-29 50 -70 76 -127 76z" />
    <glyph glyph-name="P" unicode="P" horiz-adv-x="564" 
d="M108 251v190c0 78 -1 111 -2 133c-1 16 -5 24 -23 25l-64 7l7 28c20 0 74 -4 119 -4c41 0 93 4 159 4c101 0 142 -19 173 -47c34 -31 52 -80 52 -136c0 -62 -19 -110 -53 -143c-38 -39 -94 -57 -152 -57c-29 0 -57 4 -72 10l2 29c13 -4 32 -6 51 -6c29 0 57 12 74 36
c18 26 31 69 31 125c0 53 -12 95 -32 119c-23 27 -54 38 -103 38c-46 0 -52 -6 -53 -17c-2 -31 -5 -82 -5 -160v-129v-124c0 -57 2 -90 3 -111c2 -21 9 -26 36 -29l61 -7l-1 -28c-45 0 -103 3 -161 3c-48 0 -98 -3 -139 -3l1 28l42 4c34 3 42 8 44 38c3 43 5 113 5 184z" />
    <glyph glyph-name="Q" unicode="Q" horiz-adv-x="682" 
d="M703 -95l1 -24c-32 -30 -87 -48 -135 -48c-62 0 -126 41 -204 108c-37 32 -62 43 -98 51c-102 20 -224 100 -224 313c0 190 106 341 307 341c176 0 288 -128 288 -323c0 -230 -129 -315 -232 -333v-4c25 -12 70 -33 104 -47c50 -21 96 -35 138 -37c18 -3 41 0 55 3z
M341 617h-1c-52 0 -94 -24 -125 -75c-25 -44 -45 -122 -45 -224c0 -96 21 -185 50 -231c32 -49 75 -74 130 -74c47 0 87 19 117 67c27 46 44 129 44 236c0 94 -18 176 -44 225c-29 51 -71 76 -126 76z" />
    <glyph glyph-name="R" unicode="R" horiz-adv-x="602" 
d="M107 214v207c0 95 -1 133 -2 155c-1 14 -6 21 -26 23l-60 6l5 28c22 0 78 -3 126 -3c49 0 104 3 156 3c98 0 142 -15 170 -42c29 -27 39 -66 39 -103c0 -107 -81 -148 -175 -163v-4c96 -12 157 -47 173 -132c7 -30 11 -69 14 -102c4 -44 20 -64 53 -64c8 0 21 2 28 5
l-4 -30c-13 -5 -46 -9 -71 -9c-83 0 -123 34 -130 120c-2 28 -4 55 -6 83c-9 93 -59 112 -152 112h-29v-99c0 -79 1 -116 3 -145c2 -25 11 -29 83 -34l-3 -29c-35 0 -96 3 -139 3c-54 0 -103 -3 -139 -3l1 29c65 4 80 9 81 30c2 23 4 65 4 158zM216 444v-109h29
c101 0 153 39 153 142c0 34 -8 65 -20 84c-15 23 -40 41 -98 41c-19 0 -36 -2 -46 -5c-9 -2 -13 -7 -14 -18c-1 -12 -4 -47 -4 -135z" />
    <glyph glyph-name="S" unicode="S" horiz-adv-x="493" 
d="M51 206l28 6c-3 -122 52 -195 155 -195c67 0 121 37 121 116c0 41 -16 71 -52 92c-29 18 -110 57 -157 85c-66 38 -92 92 -92 155c0 113 82 182 198 182c58 0 109 -17 132 -40l18 44l25 -6c-14 -79 -16 -158 -16 -194l-28 -4c-1 113 -59 169 -132 169
c-66 0 -105 -44 -105 -110c0 -44 19 -77 67 -103c75 -41 128 -66 165 -90c51 -29 78 -71 78 -136c0 -131 -107 -193 -237 -193c-62 0 -134 20 -176 39c6 56 7 129 8 183z" />
    <glyph glyph-name="T" unicode="T" horiz-adv-x="598" 
d="M349 467v-224c0 -101 2 -156 4 -181c2 -19 7 -27 26 -29c33 -4 47 -6 76 -7l-2 -29c-32 0 -99 3 -168 3c-48 0 -103 -3 -150 -3l-3 28c21 1 40 4 71 7c21 2 32 8 33 27c3 34 4 79 4 185v214c0 66 0 115 -1 142c-128 0 -140 -9 -157 -48c-16 -35 -26 -71 -37 -111l-27 7
c10 51 18 148 22 192c30 -7 95 -10 214 -10h82c145 0 193 1 231 10c-2 -16 -12 -108 -9 -184l-28 -9c-7 60 -17 99 -25 118c-10 27 -27 37 -155 35c0 -26 -1 -79 -1 -133z" />
    <glyph glyph-name="U" unicode="U" horiz-adv-x="663" 
d="M367 29h1c87 0 153 29 163 172c9 131 4 290 0 358c-3 37 -18 40 -43 42l-50 5l-3 28c33 0 73 -4 107 -4c36 0 73 4 110 4l4 -28l-38 -4c-28 -2 -34 -12 -35 -38c-6 -137 -6 -311 -16 -394c-10 -70 -35 -112 -77 -143c-37 -28 -92 -43 -159 -43c-83 0 -151 21 -189 66
c-30 34 -43 76 -44 161c-1 73 -1 309 -2 358c-1 21 -5 30 -21 31l-55 6v28c39 0 91 -4 134 -4c39 0 93 4 132 4l2 -28l-54 -6c-14 -1 -20 -8 -21 -25c-7 -75 -9 -278 -2 -388c4 -68 17 -93 40 -116c25 -27 74 -42 116 -42z" />
    <glyph glyph-name="V" unicode="V" horiz-adv-x="628" 
d="M-12 604l-2 29c24 0 83 -3 132 -3c44 0 90 3 137 3l5 -29l-53 -6c-17 -2 -20 -7 -16 -22c10 -41 100 -299 161 -468c67 176 143 387 160 462c4 18 -1 25 -16 27c-18 2 -38 5 -59 7l-5 29c20 0 65 -3 107 -3c34 0 69 3 111 3l6 -29c-61 -1 -77 -11 -100 -62
c-42 -96 -135 -344 -207 -553c-17 3 -57 1 -71 -2c-66 203 -171 490 -206 574c-17 35 -30 41 -84 43z" />
    <glyph glyph-name="W" unicode="W" horiz-adv-x="916" 
d="M726 604l-2 29c31 0 69 -3 112 -3c49 1 71 3 104 3v-29c-60 -6 -70 -11 -89 -61c-48 -131 -120 -367 -176 -554c-23 1 -52 0 -70 -2c-29 112 -92 317 -149 514c-73 -264 -107 -380 -141 -512c-16 3 -51 -1 -70 -2c-45 168 -129 453 -164 556c-18 52 -31 60 -90 61v29
c25 -1 72 -3 125 -3c43 0 87 3 133 3l6 -29l-51 -6c-14 -2 -18 -8 -14 -23c30 -120 96 -348 125 -453c61 215 128 467 136 508c25 -2 61 0 78 1c14 -59 76 -270 149 -515c61 195 115 384 127 445c6 28 2 35 -20 37z" />
    <glyph glyph-name="X" unicode="X" horiz-adv-x="603" 
d="M13 605l-2 28c32 -1 88 -3 133 -3c42 0 84 3 133 3l6 -28l-47 -6c-14 -2 -16 -8 -10 -21c15 -29 36 -70 102 -182c56 82 92 140 109 174c10 21 7 28 -17 31l-45 4l5 28c38 0 80 -4 104 -4c44 -1 81 4 113 4l4 -28c-75 -5 -89 -14 -124 -55c-22 -28 -62 -82 -132 -184
c101 -181 152 -264 175 -300c15 -22 32 -34 65 -37l37 -3v-29c-29 0 -83 4 -134 4s-100 -3 -145 -4l-2 29c57 5 62 11 53 30c-19 34 -40 73 -123 226c-49 -77 -98 -156 -120 -201c-17 -33 -13 -47 18 -50l50 -5l5 -29c-29 0 -70 3 -120 3c-51 0 -77 -2 -116 -3l-4 29
c51 4 74 11 102 45s108 153 166 242c-97 174 -134 237 -149 260c-17 24 -37 30 -90 32z" />
    <glyph glyph-name="Y" unicode="Y" horiz-adv-x="561" 
d="M440 26l4 -29c-62 1 -113 3 -168 3s-100 -3 -149 -3l-3 29c23 2 47 5 68 8c25 2 34 11 36 34c3 35 5 134 5 190c0 18 -4 31 -12 49c-20 43 -103 187 -143 250c-26 40 -40 46 -95 47l-1 29c20 0 77 -3 124 -3c59 0 103 3 138 3l3 -29l-44 -4c-15 -1 -16 -8 -9 -22
c21 -46 90 -172 131 -250c67 121 103 195 122 240c9 22 6 29 -9 30c-17 3 -35 5 -55 6l3 29c23 0 68 -3 104 -3c33 0 65 3 99 3l3 -29c-58 -3 -73 -10 -99 -48c-35 -53 -100 -170 -138 -242c-9 -17 -12 -32 -12 -49c-1 -57 -1 -166 3 -210c2 -13 6 -20 24 -22
c15 -1 38 -4 70 -7z" />
    <glyph glyph-name="Z" unicode="Z" horiz-adv-x="603" 
d="M282 630h33h135c36 0 69 2 101 3c-11 -40 -18 -50 -24 -61c-25 -39 -68 -109 -158 -245c-95 -147 -147 -225 -189 -295c275 -2 292 5 319 50c20 33 34 78 47 128l26 -8c-5 -41 -18 -124 -20 -208c-29 3 -65 4 -105 5s-81 1 -127 1h-189c-45 0 -59 0 -91 -3l-8 18
c90 133 294 434 382 583h-115c-140 0 -164 -16 -183 -59c-14 -31 -23 -68 -34 -112l-26 7c13 69 18 158 14 204c18 -5 38 -7 68 -8h144z" />
    <glyph glyph-name="bracketleft" unicode="[" horiz-adv-x="339" 
d="M294 -140l-6 -32c-82 2 -156 2 -187 -4c1 66 3 164 3 438c0 217 -1 373 -3 434c22 -5 142 -3 193 0l-4 -31c-34 0 -75 -5 -87 -7c-10 -1 -15 -6 -16 -19c-6 -35 -9 -123 -9 -377c0 -244 3 -351 6 -384c2 -10 10 -16 29 -16z" />
    <glyph glyph-name="backslash" unicode="\" horiz-adv-x="377" 
d="M41 681l47 21c13 -47 78 -257 129 -416c41 -125 87 -288 117 -371l-51 -18c-26 90 -74 256 -118 396c-47 155 -113 359 -124 388z" />
    <glyph glyph-name="bracketright" unicode="]" horiz-adv-x="339" 
d="M44 661l6 32c82 -2 156 -2 188 4c-1 -67 -3 -164 -3 -438c0 -216 1 -372 3 -433c-22 5 -142 4 -194 0l4 31c35 0 75 4 88 7c9 1 15 6 16 19c5 35 8 122 8 376c0 244 -2 352 -6 385c-1 10 -10 15 -28 15z" />
    <glyph glyph-name="asciicircum" unicode="^" horiz-adv-x="499" 
d="M445 287h-62l-135 289l-129 -289h-64l167 352h56z" />
    <glyph glyph-name="underscore" unicode="_" horiz-adv-x="500" 
d="M500 -111v-58h-500v58h500z" />
    <glyph glyph-name="quoteleft" unicode="&#x2018;" horiz-adv-x="200" 
d="M166 712l5 -25c-53 -10 -92 -48 -92 -90c0 -6 4 -6 7 -3c8 5 21 8 31 8c25 0 48 -22 48 -56c0 -32 -28 -59 -60 -59c-44 0 -71 36 -71 88c0 85 75 132 132 137z" />
    <glyph glyph-name="a" unicode="a" horiz-adv-x="487" 
d="M304 289v39c0 44 -20 83 -74 83c-55 0 -80 -29 -80 -71c0 -11 2 -22 3 -30c2 -9 -2 -18 -9 -22c-9 -7 -23 -12 -37 -12c-24 0 -48 13 -48 47c0 53 75 118 188 118c88 0 126 -36 140 -58c8 -13 14 -34 14 -52v-252c0 -36 11 -43 23 -43c15 0 31 21 41 62l26 -11
c-14 -74 -55 -101 -106 -101c-53 0 -75 30 -81 73c-44 -47 -95 -73 -143 -73c-78 0 -123 52 -123 124c0 42 17 75 56 91c70 29 169 59 210 88zM146 127v-1c0 -45 23 -84 67 -84s70 27 85 61c4 11 6 27 6 42v111c-25 -14 -75 -35 -109 -54c-29 -15 -49 -31 -49 -75z" />
    <glyph glyph-name="b" unicode="b" horiz-adv-x="534" 
d="M5 634l1 28c46 0 135 6 171 14c0 -32 -4 -100 -4 -224v-83c53 46 99 72 156 72c63 0 105 -27 132 -68c23 -35 35 -86 35 -138c0 -156 -81 -249 -231 -249c-45 0 -97 14 -123 30c-16 -7 -41 -19 -64 -30l-7 5c0 41 2 142 2 258v232c0 73 -1 106 -3 134c-1 17 -9 19 -65 19
zM266 17h1c85 0 120 86 120 207c0 50 -10 95 -28 125c-17 27 -42 42 -77 42c-44 0 -81 -29 -100 -60c-8 -13 -11 -24 -11 -133c0 -111 5 -118 13 -133c17 -33 50 -48 82 -48z" />
    <glyph glyph-name="c" unicode="c" horiz-adv-x="457" 
d="M405 137l27 -15c-27 -84 -86 -136 -186 -136c-75 0 -125 22 -162 65c-30 36 -46 89 -46 156c0 129 82 234 229 234c92 0 158 -42 158 -109c0 -39 -28 -56 -56 -56c-10 0 -21 3 -28 8c-6 5 -10 13 -8 23c1 10 4 21 4 32c0 45 -21 72 -74 72c-76 0 -115 -84 -115 -191
c0 -49 9 -94 27 -126c23 -40 58 -60 103 -60c65 0 101 33 127 103z" />
    <glyph glyph-name="d" unicode="d" horiz-adv-x="543" 
d="M287 635l3 27c42 2 135 8 178 14c-2 -43 -5 -121 -6 -224v-230c0 -95 1 -139 4 -171c2 -17 8 -22 23 -22h46l-5 -29c-44 -1 -129 -6 -169 -15c0 20 1 49 0 69h-2c-42 -41 -88 -68 -144 -68c-61 0 -106 24 -135 63c-28 37 -43 90 -43 149c0 131 74 243 228 243
c43 0 80 -12 97 -25c0 101 0 158 -2 195c-1 24 -8 26 -73 24zM146 217v-1c0 -51 11 -103 32 -133c20 -30 50 -44 82 -44c37 0 69 14 92 54c7 12 10 28 10 151c0 89 -1 104 -7 114c-12 23 -35 51 -85 51c-84 0 -124 -85 -124 -192z" />
    <glyph glyph-name="e" unicode="e" horiz-adv-x="458" 
d="M425 117c-32 -92 -97 -131 -183 -131c-79 0 -129 25 -162 68c-28 35 -43 92 -43 151c0 125 71 236 214 236c149 0 176 -116 175 -174c0 -20 -6 -34 -20 -40c-17 -8 -64 -13 -129 -14c-34 0 -87 -1 -131 0c-2 -51 11 -98 29 -126c21 -34 53 -53 98 -53c60 0 98 29 125 97z
M246 411h-1c-64 0 -94 -82 -97 -166h77c43 0 68 3 83 6c13 3 20 14 20 36c0 51 -19 124 -82 124z" />
    <glyph glyph-name="f" unicode="f" horiz-adv-x="291" 
d="M26 397l4 30h63v32c1 73 16 127 53 166c32 34 73 53 121 53c73 0 105 -41 105 -77c0 -29 -23 -48 -52 -48c-17 0 -27 11 -27 27c0 36 -9 66 -45 66c-28 0 -45 -25 -52 -69c-4 -30 -4 -78 -2 -150h97l-5 -31l-93 -6c-1 -38 -1 -96 -1 -179c0 -72 0 -123 2 -152
c1 -19 7 -26 24 -28s37 -4 56 -5l-3 -29c-32 0 -82 3 -125 3s-91 -3 -122 -3l2 29c52 2 61 8 62 25c2 25 4 78 4 151v188z" />
    <glyph glyph-name="g" unicode="g" horiz-adv-x="480" 
d="M129 -39l15 -18c-26 -11 -46 -28 -46 -61c0 -55 59 -91 142 -91c115 0 168 55 168 117c0 38 -28 60 -66 60c-73 1 -140 0 -178 1c-43 0 -79 10 -105 40c-15 16 -25 38 -25 66c0 50 35 84 66 103c-26 28 -36 65 -36 100c0 111 89 163 181 163c57 0 92 -18 103 -25
c32 26 64 48 95 48c25 0 43 -18 43 -31c-1 -16 -22 -37 -35 -43c-11 9 -28 16 -49 16c-12 0 -22 -2 -32 -6c30 -28 45 -70 45 -112c0 -109 -91 -158 -182 -158c-54 0 -93 14 -111 28c-22 -7 -39 -28 -39 -52c0 -27 26 -42 58 -42c55 0 122 3 214 3c30 0 59 -8 82 -26
c26 -22 41 -57 41 -91c0 -133 -139 -196 -264 -196c-119 0 -186 45 -186 113c0 26 13 46 38 63c15 11 41 24 63 31zM238 411h-1c-48 0 -73 -45 -73 -125c0 -65 21 -127 75 -127c56 0 74 56 74 126c0 60 -14 126 -75 126z" />
    <glyph glyph-name="h" unicode="h" horiz-adv-x="548" 
d="M21 637v27c54 1 141 8 165 12c-2 -40 -4 -106 -4 -187v-124c35 36 91 76 161 76c71 0 100 -38 110 -58c10 -18 14 -42 14 -72v-258c0 -21 4 -24 62 -27l-2 -29c-29 0 -69 3 -112 3c-47 0 -81 -3 -108 -3l1 29c45 2 53 8 55 26c2 20 4 67 4 141c0 128 -3 142 -9 156
c-9 23 -28 40 -63 40c-43 0 -78 -18 -102 -59c-9 -15 -11 -29 -11 -48v-111c0 -51 1 -92 2 -115c1 -24 8 -28 56 -30l-1 -29c-25 0 -74 3 -111 3c-49 0 -82 -3 -109 -3v29c48 2 58 6 60 28c1 31 3 65 3 155v281c0 77 -1 108 -3 130c-1 14 -10 17 -58 17z" />
    <glyph glyph-name="i" unicode="i" horiz-adv-x="274" 
d="M136 636h1c35 0 55 -23 55 -58c0 -34 -26 -56 -60 -56c-29 0 -54 21 -54 55s24 59 58 59zM255 26l-1 -29c-31 0 -69 3 -120 3c-53 0 -81 -3 -112 -3l1 29c57 2 64 9 66 28c1 19 3 58 3 116v109c0 51 -1 85 -2 101c-2 14 -11 17 -63 15l2 28c50 3 117 7 166 17
c-1 -24 -3 -77 -3 -156v-115c0 -62 1 -93 3 -114c1 -22 10 -26 60 -29z" />
    <glyph glyph-name="j" unicode="j" horiz-adv-x="263" 
d="M132 636h1c35 0 55 -20 55 -58c0 -34 -27 -56 -60 -56c-29 0 -54 21 -54 55c0 35 25 59 58 59zM18 397v28c56 2 124 9 170 16l3 -3c0 -67 -1 -130 -1 -308c0 -86 -1 -131 -7 -170c-6 -52 -23 -98 -53 -132c-43 -49 -104 -70 -133 -70c-12 0 -20 4 -25 10
c-6 7 -11 14 -14 23l6 11c10 -3 23 -5 37 -5c39 0 74 22 81 110c5 52 8 132 8 284c0 114 -2 163 -4 190c-1 12 -4 16 -20 16h-48z" />
    <glyph glyph-name="k" unicode="k" horiz-adv-x="504" 
d="M20 633v28c63 1 130 7 165 13c-1 -46 -4 -130 -4 -212v-223c44 7 122 96 153 141c6 10 5 15 -7 16l-43 4v27c61 0 133 2 200 6v-26c-53 -6 -74 -11 -96 -30c-26 -22 -75 -69 -110 -105c41 -62 135 -193 166 -226c14 -14 28 -19 49 -20h30l-2 -28c-56 0 -127 -4 -164 -12
c-32 54 -123 180 -144 211c-13 18 -20 20 -32 18c0 -68 -1 -111 2 -162c1 -21 9 -25 62 -27l-2 -29c-35 0 -70 3 -120 3c-57 0 -84 -3 -110 -3l1 29c53 1 61 9 63 26c2 19 4 76 4 158v250c0 77 0 124 -2 157c0 10 -5 14 -21 15z" />
    <glyph glyph-name="l" unicode="l" horiz-adv-x="263" 
d="M16 635l1 28c65 0 124 7 169 13c-1 -36 -4 -100 -4 -201v-251c0 -102 0 -145 2 -169c1 -23 12 -27 65 -29l-2 -29c-36 0 -84 3 -125 3c-47 0 -83 -3 -109 -3v29c55 1 63 8 64 32c1 19 5 86 5 171v249c0 82 0 111 -2 137c-1 17 -8 20 -64 20z" />
    <glyph glyph-name="m" unicode="m" horiz-adv-x="834" 
d="M92 175v83c0 52 -1 93 -3 120c-1 13 -8 16 -61 16l2 28c50 0 108 5 156 15c3 -16 6 -60 7 -76c36 36 89 80 161 80c56 0 83 -24 96 -42c9 -12 14 -25 18 -37c34 32 84 79 162 79c61 0 93 -31 107 -55c11 -20 15 -43 15 -66v-267c0 -22 4 -23 63 -28l-2 -28
c-32 0 -70 4 -116 4c-47 0 -80 -4 -105 -4v28c45 3 54 9 56 27c2 24 4 65 4 143c0 127 -1 140 -8 154c-10 24 -31 39 -64 39c-42 0 -78 -26 -98 -62c-7 -13 -10 -27 -10 -44v-133c0 -39 1 -74 2 -97c1 -20 10 -24 60 -26l-4 -29c-24 0 -71 3 -113 3c-44 0 -78 -3 -103 -3v29
c43 2 53 6 55 30c2 29 3 62 3 123v83c0 63 -1 74 -7 90c-11 24 -29 36 -61 36c-41 0 -79 -25 -101 -65c-8 -15 -11 -27 -11 -47v-130c0 -41 1 -70 2 -94c2 -20 10 -24 59 -26l-4 -29c-24 0 -72 3 -111 3c-41 0 -79 -3 -109 -3v29c50 2 59 5 60 30c2 24 3 65 3 119z" />
    <glyph glyph-name="n" unicode="n" horiz-adv-x="558" 
d="M28 -3v29c51 2 59 5 61 30c2 30 3 65 3 112v90c0 52 -1 94 -3 120c0 13 -7 15 -58 16l2 28c50 0 104 5 153 15c3 -19 6 -57 7 -72c35 34 83 76 154 76c66 0 100 -30 116 -60c9 -17 13 -38 13 -62v-266c0 -22 5 -23 64 -27l-2 -29c-34 0 -72 3 -117 3
c-48 0 -81 -3 -105 -3l1 29c44 2 53 8 55 27c2 21 4 64 4 143c1 128 -1 140 -10 156c-11 23 -30 36 -62 36c-45 0 -79 -23 -101 -61c-9 -14 -11 -27 -11 -49v-120c0 -40 0 -82 2 -105c2 -20 10 -25 59 -27l-2 -29c-25 0 -76 3 -114 3c-43 0 -79 -3 -109 -3z" />
    <glyph glyph-name="o" unicode="o" horiz-adv-x="521" 
d="M265 441h1c134 0 218 -91 218 -224c0 -140 -85 -231 -225 -231c-150 0 -222 96 -222 223c0 128 81 232 228 232zM260 410h-1c-38 0 -63 -18 -81 -47c-17 -29 -28 -79 -28 -137c0 -62 11 -117 28 -151c20 -38 51 -58 89 -58c37 0 63 16 81 51c15 30 24 78 24 139
c0 64 -11 118 -28 149c-17 32 -44 54 -84 54z" />
    <glyph glyph-name="p" unicode="p" horiz-adv-x="543" 
d="M-2 -232l5 28c61 4 71 9 73 29c2 32 6 86 6 201v219c0 78 -2 114 -3 133c-1 16 -11 19 -66 17l6 27c50 3 111 7 159 17c2 -23 3 -57 5 -78c47 47 98 80 161 80c53 0 92 -22 117 -54c27 -34 45 -88 45 -151c0 -154 -79 -250 -222 -250c-39 0 -80 11 -103 29
c0 -85 -1 -135 3 -185c1 -24 10 -29 80 -31l-5 -28c-26 0 -67 2 -128 2c-62 0 -105 -4 -133 -5zM278 19h1c89 0 119 97 119 202c0 47 -10 97 -28 126c-17 25 -40 41 -74 41c-46 0 -81 -27 -102 -65c-7 -11 -11 -21 -11 -39c-1 -82 -1 -127 0 -186c0 -13 3 -22 9 -31
c19 -31 52 -48 86 -48z" />
    <glyph glyph-name="q" unicode="q" horiz-adv-x="534" 
d="M461 212v-224c0 -77 4 -140 6 -167c1 -14 10 -17 72 -19l-4 -29c-89 1 -183 -2 -269 -9l4 29c73 7 86 13 87 31c2 21 4 55 4 126v96c-42 -37 -89 -60 -145 -60c-50 0 -95 18 -124 48c-33 34 -55 92 -55 162c0 140 83 245 235 245c50 0 90 -14 114 -28l66 23h13
c-1 -39 -4 -116 -4 -224zM271 409h-1c-89 0 -123 -100 -123 -191c0 -56 12 -108 33 -137c22 -31 52 -45 85 -45c45 0 71 22 87 47c7 11 10 21 10 106c0 82 -1 124 -3 149c-2 13 -5 23 -12 34c-16 24 -44 37 -76 37z" />
    <glyph glyph-name="r" unicode="r" horiz-adv-x="385" 
d="M92 175v79c0 62 -3 104 -7 123c-2 10 -7 15 -20 15l-38 1l1 28c44 2 106 6 148 18l4 -3c3 -24 6 -75 7 -98h3c24 54 59 103 121 103c41 0 64 -31 64 -62c0 -46 -33 -60 -50 -60c-15 0 -26 5 -30 16c-7 21 -13 34 -35 34c-27 0 -49 -37 -61 -76c-5 -17 -7 -33 -7 -56
c0 -109 0 -156 2 -180c1 -23 9 -28 84 -31l-4 -29c-39 1 -85 3 -131 3s-82 -2 -119 -3l3 29c50 2 59 7 61 24c2 21 4 67 4 125z" />
    <glyph glyph-name="s" unicode="s" horiz-adv-x="405" 
d="M338 287l-27 -6c-5 73 -48 129 -112 129c-44 0 -71 -27 -71 -67c0 -28 14 -44 36 -55c31 -16 99 -39 137 -57c50 -22 70 -57 70 -102c0 -102 -95 -143 -183 -143c-55 0 -113 16 -142 28c1 25 3 91 1 148l26 3c2 -21 7 -53 20 -79c19 -45 59 -68 109 -68c54 0 85 28 85 70
c0 22 -10 41 -35 53c-32 16 -84 37 -119 52c-52 22 -81 57 -81 111c0 87 69 137 155 137c41 0 82 -13 98 -27l12 35l27 -8c-8 -53 -8 -113 -6 -154z" />
    <glyph glyph-name="t" unicode="t" horiz-adv-x="342" 
d="M186 427h134l-4 -31l-132 -6c0 -35 -2 -80 -2 -157c0 -87 1 -138 5 -167c4 -24 19 -38 42 -38c45 0 69 37 81 84h12l11 -37c-24 -57 -75 -89 -143 -89c-45 0 -76 14 -92 36c-12 15 -17 34 -17 63c0 78 3 228 3 305l-67 6l5 31h64v112c42 14 79 33 96 47l9 -3
c-2 -26 -5 -103 -5 -156z" />
    <glyph glyph-name="u" unicode="u" horiz-adv-x="548" 
d="M297 399l-2 28c33 0 74 2 106 3c32 2 57 4 68 5c-2 -28 -4 -80 -4 -145v-117c0 -58 1 -97 4 -124c2 -19 7 -22 68 -21l-2 -28c-25 -1 -57 -3 -92 -6c-31 -2 -59 -6 -77 -9c-1 26 -2 66 -2 92c-30 -39 -93 -91 -176 -91c-61 0 -89 26 -99 46c-8 15 -12 35 -12 59
c1 55 3 145 3 211c0 44 -1 67 -2 82s-12 16 -61 16l3 28c32 0 68 1 98 4c29 2 52 4 69 6c-4 -26 -8 -83 -8 -201c0 -89 0 -142 6 -165c4 -22 21 -36 49 -36c55 0 100 41 121 91c8 22 10 38 10 59v100c0 46 -1 75 -3 95c-2 16 -13 17 -65 18z" />
    <glyph glyph-name="v" unicode="v" horiz-adv-x="458" 
d="M-6 401l-1 29c22 -1 65 -3 103 -3c42 0 88 3 118 3l4 -29l-36 -4c-17 -2 -19 -7 -14 -24c26 -80 76 -210 98 -270c30 80 73 191 94 267c6 18 2 25 -14 27l-44 4l1 29c32 0 65 -3 94 -3c36 0 62 3 82 3l-1 -29c-46 -4 -59 -12 -79 -55c-49 -109 -104 -255 -140 -354
c-18 0 -36 -2 -54 -5c-42 116 -119 315 -143 371c-16 35 -23 41 -68 43z" />
    <glyph glyph-name="w" unicode="w" horiz-adv-x="706" 
d="M-4 402v28c22 -1 55 -3 105 -3c41 0 83 2 122 3l3 -28l-42 -5c-17 -2 -18 -8 -14 -24c21 -75 58 -184 83 -264c26 75 70 214 105 319c19 -1 31 -1 53 2c16 -52 90 -249 117 -325c37 107 70 215 80 264c5 19 1 25 -20 28l-45 5l2 28c33 0 68 -3 100 -3c38 0 64 3 83 3
l1 -28c-50 -5 -60 -11 -81 -58c-28 -66 -80 -218 -126 -352c-19 -1 -36 -2 -54 -5c-21 64 -80 216 -116 315c-36 -107 -80 -227 -109 -315c-18 3 -35 4 -53 4c-29 98 -102 310 -125 369c-14 34 -24 39 -69 42z" />
    <glyph glyph-name="x" unicode="x" horiz-adv-x="473" 
d="M10 402v28c21 0 65 -3 105 -3c39 0 74 2 113 3l1 -28l-24 -3c-14 -2 -13 -8 -7 -19c19 -34 42 -72 60 -103c32 46 57 83 68 103c7 13 2 16 -12 18l-28 4l2 28c24 0 57 -3 89 -3c31 0 65 3 86 3l-1 -28c-46 -4 -66 -11 -90 -32c-22 -22 -54 -63 -96 -121
c58 -97 103 -168 124 -193c17 -21 32 -27 84 -30v-29c-22 0 -68 3 -116 3c-43 0 -84 -2 -118 -3l-1 29l25 3c15 3 15 11 9 21c-18 33 -47 82 -75 127c-47 -65 -65 -94 -79 -122c-8 -16 -5 -23 13 -25l35 -4l-2 -29c-32 0 -71 3 -103 3c-35 0 -62 -3 -81 -3v29
c48 3 66 14 93 44c25 29 70 88 106 137c-38 63 -70 118 -99 159c-19 28 -33 33 -81 36z" />
    <glyph glyph-name="y" unicode="y" horiz-adv-x="450" 
d="M-7 401l2 29c28 -1 63 -3 107 -3c40 0 85 2 113 3l4 -29l-34 -4c-16 -2 -18 -8 -14 -23c31 -89 85 -223 102 -270c26 74 65 199 79 257c7 28 1 34 -27 37l-35 3l3 29c24 0 58 -3 87 -3c27 0 59 3 90 3l-1 -29c-43 -2 -55 -10 -75 -58c-37 -90 -105 -284 -153 -423
c-37 -111 -71 -163 -132 -163c-42 0 -68 27 -68 62c0 34 23 52 46 52c16 0 26 -8 30 -19c6 -19 14 -30 29 -30c33 0 64 112 78 157c-8 9 -19 29 -28 51c-45 118 -107 277 -131 329c-15 31 -24 37 -50 40z" />
    <glyph glyph-name="z" unicode="z" horiz-adv-x="456" 
d="M78 274l-27 -5c3 41 11 111 10 168c18 -7 54 -10 111 -10h86c73 0 111 2 154 3c-4 -20 -13 -41 -25 -59c-24 -41 -171 -266 -218 -341c72 0 120 3 150 7c41 6 65 32 85 132l26 -7c-8 -46 -15 -122 -17 -167c-32 2 -149 5 -262 5c-59 0 -89 -2 -106 -3l-12 20
c98 123 226 329 250 379c-39 0 -80 0 -117 -4c-39 -4 -54 -11 -66 -43c-10 -25 -16 -51 -22 -75z" />
    <glyph glyph-name="braceleft" unicode="{" horiz-adv-x="340" 
d="M293 708l-3 -32c-74 -4 -97 -29 -88 -114c6 -59 16 -110 15 -162c-2 -79 -37 -116 -117 -144c77 -28 117 -63 117 -151c0 -39 -6 -86 -10 -137c-9 -98 -2 -128 83 -132l1 -32c-63 -6 -171 34 -171 155c0 52 8 149 8 202c0 60 -31 79 -88 79l-6 31c59 1 94 21 94 81
c0 53 -8 138 -8 181c0 138 109 179 173 175z" />
    <glyph glyph-name="bar" unicode="|" horiz-adv-x="256" 
d="M93 751h71v-1000h-71v1000z" />
    <glyph glyph-name="braceright" unicode="}" horiz-adv-x="340" 
d="M48 -196l2 32c75 4 99 29 90 114c-6 59 -18 109 -16 161c2 81 36 117 115 145c-77 27 -115 64 -115 152c0 39 5 86 10 136c10 99 0 128 -84 133l-1 31c63 6 172 -32 172 -155c0 -51 -9 -147 -9 -200c0 -59 31 -81 87 -81l6 -31c-58 -1 -93 -20 -93 -82
c0 -53 9 -137 9 -181c0 -138 -112 -178 -173 -174z" />
    <glyph glyph-name="asciitilde" unicode="~" horiz-adv-x="523" 
d="M420 327l51 -8c-5 -142 -56 -180 -117 -180c-45 0 -78 33 -115 79c-27 34 -47 58 -73 58c-32 0 -55 -32 -63 -130l-52 7c6 159 73 180 120 180c41 0 74 -26 108 -70c30 -39 55 -65 79 -65c27 0 53 15 62 129z" />
    <glyph glyph-name="exclamdown" unicode="&#xa1;" horiz-adv-x="229" 
d="M115 -229h-1c-22 0 -69 38 -69 83c0 23 6 51 14 81c26 96 41 205 41 284h32c0 -79 15 -187 41 -284c8 -31 14 -57 14 -81c0 -39 -42 -83 -72 -83zM112 440h1c38 0 64 -29 64 -68c0 -38 -30 -67 -65 -67s-64 29 -64 67c0 40 29 68 64 68z" />
    <glyph glyph-name="cent" unicode="&#xa2;" horiz-adv-x="486" 
d="M441 253l4 -39c-26 -57 -90 -100 -165 -106l-3 -82l-39 -10l6 91c-75 2 -128 28 -159 63c-27 31 -46 80 -46 143c0 132 96 219 227 224l2 77l40 8l-6 -85c84 -4 143 -40 143 -102c0 -34 -25 -52 -53 -52c-22 0 -34 13 -31 27c3 12 5 22 5 36c0 31 -21 56 -67 62
c-6 -117 -12 -245 -16 -361c72 1 116 34 141 106h17zM149 327v-1c0 -48 8 -97 26 -126c15 -25 39 -45 73 -51c6 110 12 240 17 360c-86 -8 -116 -101 -116 -182z" />
    <glyph glyph-name="sterling" unicode="&#xa3;" horiz-adv-x="486" 
d="M11 297l13 40c19 -2 37 -2 75 -2c-7 70 -7 109 1 147c10 45 36 86 77 112c28 18 66 31 112 31c110 0 151 -60 151 -107c0 -40 -25 -61 -54 -61c-9 0 -20 3 -26 7c-7 6 -11 11 -9 20c2 12 5 24 5 36c0 43 -24 75 -74 75c-49 0 -81 -35 -80 -119c0 -40 4 -79 9 -141
c103 0 123 1 165 3l-14 -41c-25 0 -64 2 -148 2c0 -43 -6 -94 -25 -132c-18 -32 -46 -61 -87 -91c218 3 290 7 300 12c6 4 10 7 15 20c7 23 15 49 20 66l30 5c-16 -74 -22 -144 -22 -181l-7 -5c-83 6 -219 7 -300 7c-65 0 -93 -2 -121 -4l-6 9l22 53c34 21 70 52 74 123
c2 38 0 82 -4 118c-23 0 -57 0 -92 -2z" />
    <glyph glyph-name="fraction" unicode="&#x2044;" horiz-adv-x="106" 
d="M253 673l34 -22c-103 -155 -279 -431 -433 -681l-31 26c141 215 328 510 430 677z" />
    <glyph glyph-name="yen" unicode="&#xa5;" horiz-adv-x="486" 
d="M-11 590l1 27c31 0 72 -2 113 -2c60 0 89 2 122 2l2 -27c-14 -1 -29 -3 -45 -5c-10 -1 -11 -7 -6 -18c20 -43 64 -131 99 -201c44 86 81 169 91 192c9 23 5 29 -58 32l3 27c25 0 64 -2 95 -2c26 0 55 2 82 2l1 -27c-41 -2 -58 -9 -83 -46c-29 -41 -78 -143 -112 -208
c51 0 73 2 126 3l-10 -39c-17 0 -67 1 -120 2v-74c59 0 95 1 123 2l-10 -40c-20 1 -63 3 -114 3c0 -44 1 -110 3 -137c2 -17 7 -23 23 -24c17 -2 38 -4 67 -6l1 -29c-42 1 -92 3 -157 3c-31 0 -82 -2 -133 -3l-1 29c25 2 48 5 65 7c20 3 28 13 29 31s3 82 3 129
c-46 0 -84 0 -117 -2l5 41c30 -1 69 -3 114 -3v73c-55 0 -89 0 -127 -2l10 40c15 0 49 -2 111 -3c-31 62 -88 169 -116 211c-23 36 -36 41 -80 42z" />
    <glyph glyph-name="florin" unicode="&#x192;" horiz-adv-x="486" 
d="M53 318l13 38c26 -1 56 -2 85 -2c18 121 44 180 80 222c40 44 86 62 134 62c52 0 96 -27 96 -74c0 -35 -24 -53 -50 -53c-15 0 -32 9 -29 24c2 8 4 20 4 30c0 30 -14 44 -38 44c-29 0 -45 -29 -58 -75c-11 -42 -22 -111 -31 -180c45 0 78 1 121 2l-11 -39
c-35 2 -70 3 -114 3c-16 -110 -30 -211 -49 -298c-18 -86 -52 -137 -106 -170c-33 -20 -63 -26 -95 -26c-46 0 -87 26 -87 61c0 29 25 48 48 48c17 0 24 -10 29 -24c9 -28 22 -51 45 -51c28 0 42 27 54 93c16 95 36 241 52 367c-20 0 -51 -1 -93 -2z" />
    <glyph glyph-name="section" unicode="&#xa7;" horiz-adv-x="499" 
d="M277 618h1c63 0 124 -27 124 -92c0 -31 -24 -50 -49 -50c-12 0 -25 2 -34 11c-7 5 -9 13 -6 18c4 9 8 21 8 34c0 26 -22 48 -65 48c-44 0 -70 -30 -70 -66c0 -23 8 -39 24 -59c28 -33 145 -116 202 -185c26 -32 42 -75 42 -126c0 -85 -33 -150 -69 -194
c-66 -81 -124 -100 -177 -100c-52 0 -131 26 -131 100c0 32 23 54 51 54c24 0 36 -12 44 -23c6 -9 4 -17 0 -23c-6 -8 -10 -17 -10 -28c0 -26 24 -48 68 -48c49 0 79 29 78 69c0 29 -19 54 -49 83c-40 39 -132 116 -165 154c-30 33 -53 81 -53 139c0 104 57 182 98 222
c33 31 78 62 138 62zM403 92v1c0 42 -14 82 -44 117c-48 55 -156 142 -183 173c-27 30 -50 68 -43 128c-23 -29 -40 -70 -40 -119c0 -51 16 -98 73 -151c59 -55 110 -97 144 -132c36 -36 55 -77 55 -130c27 31 38 68 38 113z" />
    <glyph glyph-name="currency" unicode="&#xa4;" horiz-adv-x="488" 
d="M240 453h-1c-75 1 -113 -64 -113 -146c0 -97 48 -150 113 -150c74 0 109 66 109 147c0 74 -26 149 -108 149zM243 495c31 0 77 -10 104 -32l56 72l44 -42l-70 -61c28 -32 42 -79 42 -126c0 -53 -19 -101 -46 -129l72 -66l-43 -44l-61 81c-28 -21 -68 -34 -107 -34
c-37 0 -79 12 -104 31l-57 -76l-39 43l64 63c-29 33 -44 82 -44 128c0 47 17 96 49 130l-67 60l41 44l59 -75c28 22 73 32 107 33z" />
    <glyph glyph-name="quotesingle" unicode="'" horiz-adv-x="174" 
d="M111 707h1c20 0 28 -35 28 -52c0 -44 -36 -143 -51 -180h-23c-4 69 -18 167 -30 201c10 10 52 31 75 31z" />
    <glyph glyph-name="quotedblleft" unicode="&#x201c;" horiz-adv-x="368" 
d="M332 711l5 -25c-52 -9 -91 -46 -91 -90c0 -5 3 -5 7 -2c7 4 20 8 31 8c24 0 48 -22 48 -56c0 -33 -28 -59 -60 -59c-44 0 -71 36 -71 88c0 85 74 132 131 136zM165 711l5 -25c-52 -10 -93 -47 -92 -90c0 -6 4 -6 7 -3c8 5 21 8 31 9c25 0 49 -22 49 -56
c-1 -32 -29 -59 -61 -59c-44 0 -71 36 -71 88c0 85 74 132 132 136z" />
    <glyph glyph-name="guillemotleft" unicode="&#xab;" horiz-adv-x="505" 
d="M234 402l26 -12c-20 -69 -63 -139 -91 -177c33 -43 79 -117 91 -173l-23 -16c-44 94 -136 164 -188 180l9 21c62 21 134 89 176 177zM431 402l27 -12c-20 -69 -63 -139 -92 -177c33 -43 80 -118 92 -173l-23 -16c-45 94 -137 164 -190 180l10 21c62 21 134 89 176 177z
" />
    <glyph glyph-name="guilsinglleft" unicode="&#x2039;" horiz-adv-x="313" 
d="M236 407l27 -12c-20 -71 -64 -143 -93 -183c34 -44 81 -120 93 -178l-23 -16c-45 97 -139 169 -192 185l10 22c62 22 135 91 178 182z" />
    <glyph glyph-name="guilsinglright" unicode="&#x203a;" horiz-adv-x="313" 
d="M75 18l-27 12c20 71 64 143 92 183c-33 44 -80 120 -92 178l23 16c45 -97 139 -169 192 -185l-10 -22c-62 -22 -135 -91 -178 -182z" />
    <glyph glyph-name="endash" unicode="&#x2013;" horiz-adv-x="541" 
d="M49 201l14 61c117 -1 308 -1 430 0l-14 -61c-114 1 -305 1 -430 0z" />
    <glyph glyph-name="dagger" unicode="&#x2020;" horiz-adv-x="531" 
d="M268 597c10 -21 38 -45 53 -55c6 -4 8 -8 2 -15c-23 -27 -44 -85 -45 -176c71 1 115 18 137 43c5 6 11 6 15 -1c8 -12 32 -36 47 -48c5 -4 7 -10 0 -15c-17 -11 -38 -31 -49 -49c-5 -7 -9 -6 -15 0c-26 26 -65 40 -135 41c0 -205 17 -327 37 -404c2 -9 1 -15 -5 -18
c-15 -6 -32 -20 -44 -31c-3 -3 -5 -2 -7 0c-12 12 -31 24 -45 31c-6 3 -5 9 -4 16c19 79 37 202 37 406c-71 -1 -109 -15 -135 -42c-5 -5 -11 -6 -16 1c-11 18 -31 38 -48 49c-7 5 -5 11 0 15c15 12 39 36 47 48c4 7 10 8 16 1c22 -24 65 -42 136 -43c-1 92 -22 149 -45 176
c-6 7 -5 11 2 15c15 9 42 35 53 55c4 4 7 5 11 0z" />
    <glyph glyph-name="daggerdbl" unicode="&#x2021;" horiz-adv-x="529" 
d="M266 599c11 -20 38 -44 52 -53c5 -4 6 -9 1 -15c-21 -27 -42 -82 -43 -145c71 2 114 18 135 40c6 7 11 6 15 -1c9 -12 32 -33 47 -45c6 -4 7 -10 0 -15c-17 -12 -37 -31 -48 -47c-4 -6 -9 -6 -15 0c-26 24 -64 38 -134 39c1 -50 16 -88 41 -113c-22 -29 -38 -65 -41 -111
c71 2 114 18 135 41c6 6 11 6 15 -1c9 -12 32 -34 47 -45c6 -5 7 -11 0 -16c-17 -12 -37 -31 -48 -47c-4 -6 -9 -6 -15 0c-26 24 -64 37 -134 39c2 -98 25 -148 44 -176c4 -6 2 -11 -2 -14c-13 -8 -38 -31 -52 -48c-4 -4 -7 -3 -11 1c-13 16 -35 36 -51 47c-5 3 -7 7 -3 13
c16 29 42 80 44 177c-70 -2 -108 -15 -134 -39c-6 -6 -10 -6 -15 0c-11 16 -32 35 -48 47c-7 5 -5 11 0 16c15 11 38 33 46 45c5 7 10 8 16 1c22 -23 64 -39 135 -41c-3 46 -19 82 -41 111c25 25 40 63 41 113c-70 -1 -108 -15 -134 -39c-6 -5 -10 -6 -15 0
c-11 16 -32 35 -48 47c-7 5 -6 11 0 15c15 12 38 33 46 45c5 8 10 8 16 1c22 -21 64 -38 135 -40c-1 63 -21 119 -42 145c-6 7 -5 11 0 14c15 11 41 35 52 55c4 4 7 5 11 -1z" />
    <glyph glyph-name="periodcentered" unicode="&#xb7;" horiz-adv-x="221" 
d="M110 297h1c38 0 64 -31 64 -69c0 -41 -29 -69 -65 -69s-65 28 -65 69c0 40 30 69 65 69z" />
    <glyph glyph-name="paragraph" unicode="&#xb6;" horiz-adv-x="541" 
d="M502 560l-1 -29l-66 -8c-18 -2 -24 -6 -24 -57v-316c0 -186 -12 -255 -62 -307c-30 -31 -70 -42 -107 -42c-60 0 -120 26 -120 105c0 39 29 71 60 71s41 -16 50 -32c5 -10 4 -21 -1 -19c-4 1 -11 2 -14 2c-23 0 -33 -21 -33 -37c0 -31 23 -57 70 -57c71 0 104 50 104 242
v55c-31 -12 -79 -27 -99 -27c-107 0 -194 89 -194 220c0 93 38 167 112 209c33 18 62 25 110 25c37 0 90 -1 107 -1c39 0 83 2 108 3z" />
    <glyph glyph-name="bullet" unicode="&#x2022;" horiz-adv-x="328" 
d="M163 336h1c65 0 109 -50 109 -115c0 -67 -50 -114 -110 -114c-59 0 -109 46 -109 114c0 66 50 115 109 115z" />
    <glyph glyph-name="quotesinglbase" unicode="&#x201a;" horiz-adv-x="204" 
d="M34 -109l-5 26c52 10 95 45 95 92c0 6 -4 7 -7 4c-8 -5 -22 -8 -32 -8c-26 0 -51 22 -51 58c0 34 30 62 63 62c47 0 74 -40 74 -94c0 -92 -82 -135 -137 -140z" />
    <glyph glyph-name="quotedblbase" unicode="&#x201e;" horiz-adv-x="374" 
d="M34 -106l-6 26c53 10 95 44 95 91c0 6 -4 7 -7 4c-8 -5 -22 -8 -32 -8c-26 0 -51 21 -50 58c0 34 29 61 62 61c46 0 73 -39 73 -93c0 -91 -81 -135 -135 -139zM205 -106l-6 26c52 10 95 44 95 91c0 6 -4 7 -7 4c-8 -5 -22 -8 -32 -8c-25 0 -50 21 -50 58
c0 33 29 61 62 61c46 0 73 -39 73 -93c0 -91 -80 -135 -135 -139z" />
    <glyph glyph-name="quotedblright" unicode="&#x201d;" horiz-adv-x="368" 
d="M36 483l-6 24c53 10 92 48 92 91c0 5 -3 5 -6 3c-8 -5 -22 -9 -32 -9c-24 0 -48 21 -48 56c0 33 28 59 60 59c44 0 71 -35 71 -87c0 -86 -75 -132 -131 -137zM203 483l-5 24c53 10 92 48 92 91c0 5 -3 5 -7 3c-8 -5 -21 -9 -31 -9c-25 0 -49 21 -49 56c1 32 29 59 61 59
c44 0 71 -35 71 -87c0 -86 -75 -132 -132 -137z" />
    <glyph glyph-name="guillemotright" unicode="&#xbb;" horiz-adv-x="505" 
d="M273 24l-26 12c20 69 63 139 91 177c-33 43 -79 117 -91 173l23 16c44 -94 136 -164 188 -180l-9 -21c-62 -21 -134 -89 -176 -177zM76 24l-27 12c20 69 63 139 92 177c-33 43 -80 118 -92 173l23 16c45 -94 138 -164 190 -180l-10 -21c-62 -21 -134 -89 -176 -177z" />
    <glyph glyph-name="ellipsis" unicode="&#x2026;" horiz-adv-x="803" 
d="M133 124h1c38 0 64 -31 64 -69c0 -41 -29 -69 -65 -69s-65 29 -65 69s30 69 65 69zM401 124h1c38 0 64 -31 64 -69c0 -41 -29 -69 -65 -69c-35 0 -65 29 -65 69s30 69 65 69zM670 124h1c38 0 64 -31 64 -69c0 -41 -29 -69 -65 -69s-65 29 -65 69s30 69 65 69z" />
    <glyph glyph-name="perthousand" unicode="&#x2030;" horiz-adv-x="1045" 
d="M160 -24l-34 26c88 120 319 462 388 563c-34 -19 -75 -31 -128 -31c-28 0 -61 7 -79 12c10 -24 16 -56 16 -89c0 -112 -57 -184 -143 -184c-82 0 -142 54 -142 168c-1 117 75 182 155 182c25 0 45 -5 65 -16l15 12c23 -26 72 -51 131 -51c89 0 125 32 136 44
c7 8 14 20 28 42l56 5c-83 -120 -297 -423 -464 -683zM198 591h-1c-17 0 -30 -6 -42 -19c-13 -16 -30 -54 -31 -126c-1 -60 12 -105 30 -123c10 -11 25 -18 43 -18c37 0 81 39 81 153c0 57 -13 133 -80 133zM557 357h1c100 0 133 -80 133 -170c0 -106 -55 -179 -142 -179
c-83 0 -142 55 -143 166c0 120 75 183 151 183zM567 327h-1c-15 0 -32 -8 -43 -21c-13 -16 -29 -56 -30 -125c0 -64 13 -106 30 -124c10 -11 25 -17 42 -17c42 0 83 46 83 149c0 56 -14 138 -81 138zM874 357h1c100 0 133 -80 133 -170c0 -107 -55 -179 -142 -179
c-83 0 -143 56 -143 166c0 120 75 183 151 183zM884 327h-1c-15 0 -32 -8 -43 -21c-13 -16 -29 -56 -30 -125c0 -63 13 -106 30 -124c10 -11 25 -17 42 -17c42 0 83 46 83 148c0 58 -14 139 -81 139z" />
    <glyph glyph-name="questiondown" unicode="&#xbf;" horiz-adv-x="419" 
d="M204 221l25 11c22 -24 51 -64 52 -103c0 -26 -14 -48 -30 -66c-28 -30 -81 -83 -103 -106c-14 -15 -24 -32 -24 -56c0 -67 38 -97 87 -97c54 0 78 35 78 69c0 18 -4 30 -10 42c-4 13 -1 22 10 30c15 13 31 17 45 17c26 0 49 -20 49 -56c0 -85 -101 -132 -176 -132
c-103 0 -171 61 -171 167c0 52 25 83 55 107c35 31 75 66 94 87c26 26 33 48 19 86zM216 444h1c32 0 62 -28 62 -68c0 -39 -29 -67 -65 -67c-35 0 -64 28 -64 67c0 40 27 68 66 68z" />
    <glyph glyph-name="grave" unicode="`" horiz-adv-x="456" 
d="M267 500l-21 -15c-51 51 -103 101 -118 115c-12 13 -22 35 -22 50c0 27 17 40 34 40c21 0 40 -15 51 -36c14 -27 60 -124 76 -154z" />
    <glyph glyph-name="acute" unicode="&#xb4;" horiz-adv-x="456" 
d="M206 486l-21 16c20 30 77 129 94 154c16 24 35 35 55 35c19 0 30 -15 30 -36c0 -19 -16 -42 -32 -57c-22 -21 -67 -58 -126 -112z" />
    <glyph glyph-name="circumflex" unicode="&#x2c6;" horiz-adv-x="456" 
d="M217 685l24 6c13 -34 46 -103 110 -188l-21 -19c-27 24 -74 70 -102 105c-28 -35 -73 -80 -101 -105l-21 19c66 86 98 153 111 182z" />
    <glyph glyph-name="tilde" unicode="&#x2dc;" horiz-adv-x="456" 
d="M133 508l-31 4c2 58 22 120 80 120c19 0 37 -9 64 -32c23 -21 36 -29 45 -29c16 0 29 17 32 63l30 -6c-1 -65 -20 -120 -74 -120c-22 0 -40 11 -69 37c-17 14 -26 24 -42 24c-18 0 -32 -22 -35 -61z" />
    <glyph glyph-name="macron" unicode="&#xaf;" horiz-adv-x="456" 
d="M114 533l11 63h217l-8 -63h-220z" />
    <glyph glyph-name="breve" unicode="&#x2d8;" horiz-adv-x="456" 
d="M120 649h29c3 -31 12 -50 26 -62c9 -8 24 -17 53 -17c30 0 43 7 54 17c11 9 21 30 26 62h29c-3 -71 -14 -147 -110 -147c-99 0 -108 79 -107 147z" />
    <glyph glyph-name="dotaccent" unicode="&#x2d9;" horiz-adv-x="398" 
d="M201 636h1c33 0 53 -23 53 -56c0 -37 -28 -58 -58 -58c-27 0 -53 19 -53 55c0 34 24 59 57 59z" />
    <glyph glyph-name="dieresis" unicode="&#xa8;" horiz-adv-x="456" 
d="M142 633h1c32 0 50 -22 50 -54c0 -35 -27 -56 -54 -56c-25 0 -50 17 -50 53c0 34 23 57 53 57zM318 633h1c32 0 50 -22 50 -53c0 -36 -27 -57 -54 -57c-25 0 -50 17 -50 53c0 34 23 57 53 57z" />
    <glyph glyph-name="ring" unicode="&#x2da;" horiz-adv-x="414" 
d="M210 671h1c54 0 93 -30 93 -87c0 -59 -45 -92 -99 -92s-95 30 -95 86c0 60 43 93 100 93zM208 645h-1c-33 0 -41 -37 -41 -62c0 -44 18 -64 42 -64c36 0 40 41 40 65c0 25 -8 61 -40 61z" />
    <glyph glyph-name="cedilla" unicode="&#xb8;" horiz-adv-x="456" 
d="M232 7h32c-7 -11 -22 -35 -35 -56c31 -6 72 -25 72 -76s-38 -86 -96 -86c-29 0 -54 13 -62 19l10 29c12 -7 30 -12 46 -12c23 0 39 12 39 34c0 26 -28 39 -66 39l-4 11c17 27 40 60 64 98z" />
    <glyph glyph-name="hungarumlaut" unicode="&#x2dd;" horiz-adv-x="456" 
d="M165 486l-23 12c13 51 29 105 38 133c9 25 26 46 50 46c17 0 28 -16 28 -36c0 -16 -7 -32 -22 -54c-15 -23 -36 -52 -71 -101zM305 486l-22 12c13 51 28 104 38 132c8 26 26 47 49 47c17 0 29 -15 29 -36c0 -17 -7 -33 -22 -55s-36 -50 -72 -100z" />
    <glyph glyph-name="ogonek" unicode="&#x2db;" horiz-adv-x="456" 
d="M256 12h31c-72 -58 -95 -108 -95 -145c0 -31 18 -45 42 -45c26 0 47 12 64 29l13 -23c-18 -25 -56 -67 -121 -67c-42 0 -76 29 -76 75c0 71 85 141 142 176z" />
    <glyph glyph-name="caron" unicode="&#x2c7;" horiz-adv-x="456" 
d="M240 491l-25 -6c-12 33 -45 102 -109 187l21 19c28 -23 75 -71 102 -105c28 36 73 80 101 105l21 -19c-66 -85 -98 -153 -111 -181z" />
    <glyph glyph-name="emdash" unicode="&#x2014;" horiz-adv-x="916" 
d="M49 201l14 61c117 -1 676 -1 804 0l-14 -61c-120 1 -679 1 -804 0z" />
    <glyph glyph-name="AE" unicode="&#xc6;" horiz-adv-x="856" 
d="M447 630h187c34 0 63 1 88 2c24 1 42 3 52 5c-3 -28 -4 -117 -2 -169l-27 -1c-5 25 -11 54 -24 83c-16 38 -38 48 -131 48h-64c-12 0 -16 -4 -17 -16c-2 -26 -3 -66 -3 -116v-142h61c89 0 102 14 112 82h26c-6 -66 -6 -154 -2 -217l-27 1c-8 68 -15 101 -109 101l-61 -1
v-87c0 -53 1 -116 4 -147c2 -20 6 -25 90 -25c92 0 124 5 149 33c25 27 43 78 52 116l26 -4c-1 -24 -18 -153 -22 -181c-19 2 -46 3 -85 3c-38 1 -83 2 -142 2h-116c-52 0 -115 -3 -153 -3l2 28l57 6c18 2 25 10 26 36c2 36 3 82 3 135v88c-32 -1 -121 -1 -172 -3
c-36 -72 -71 -140 -98 -211c-12 -32 -5 -41 38 -46l41 -5l-1 -28c-41 0 -72 3 -115 3c-36 0 -70 -3 -106 -3v28c56 6 69 16 104 81c85 161 172 329 250 475c6 13 4 18 -9 19l-80 5l-2 28c56 1 141 -3 200 -3zM397 324v273h-12c-42 -75 -97 -183 -140 -272
c42 -2 102 -2 152 -1z" />
    <glyph glyph-name="ordfeminine" unicode="&#xaa;" horiz-adv-x="371" 
d="M221 460v24c0 24 -10 50 -52 50c-36 0 -51 -21 -51 -38c0 -7 2 -13 4 -19c3 -10 -1 -17 -9 -22c-9 -7 -21 -11 -36 -11c-20 0 -35 13 -35 32c0 46 64 84 139 84c69 0 97 -26 105 -38c7 -8 13 -24 13 -37c0 -14 -2 -109 -2 -145c0 -24 7 -30 17 -30c13 0 23 13 32 43
l22 -9c-12 -51 -44 -75 -86 -75c-40 0 -59 21 -62 45v4c-33 -30 -70 -49 -110 -49c-53 0 -85 37 -85 81c0 32 20 52 47 60c35 11 128 39 149 50zM221 380v55c-16 -7 -58 -22 -79 -32c-20 -9 -33 -17 -33 -43c0 -30 19 -48 46 -48c30 0 51 18 61 42c3 8 5 17 5 26z" />
    <glyph glyph-name="Lslash" unicode="&#x141;" horiz-adv-x="549" 
d="M45 604l2 29c23 0 93 -3 129 -3c38 0 84 3 135 3l4 -29l-55 -4c-20 -2 -27 -7 -28 -25c-2 -34 -4 -74 -4 -145v-75c41 23 79 46 112 67l22 -28c-23 -13 -87 -49 -134 -77v-106c0 -66 0 -138 3 -164c1 -11 7 -16 65 -16c102 0 134 7 157 39c21 28 35 69 47 118l28 -1
c-8 -46 -15 -130 -21 -192c-19 2 -64 3 -124 5c-59 0 -134 1 -208 1c-42 0 -122 -3 -145 -3v27l53 6c22 2 30 8 31 24c3 30 5 83 5 141v65c-24 -15 -47 -29 -72 -44l-22 28c25 14 58 33 94 54v148c0 80 -1 112 -2 133c0 15 -6 20 -27 21z" />
    <glyph glyph-name="Oslash" unicode="&#xd8;" horiz-adv-x="683" 
d="M552 661l33 -21c-14 -21 -23 -35 -44 -62c63 -58 98 -151 98 -251c0 -222 -126 -343 -302 -343c-63 0 -119 15 -163 45c-17 -26 -29 -43 -47 -69l-35 19c18 26 32 43 52 71c-64 56 -101 147 -101 261c0 182 107 335 308 335c62 0 116 -16 160 -45c18 25 27 39 41 60z
M345 617h-1c-50 0 -93 -22 -124 -69c-28 -44 -51 -129 -51 -230c0 -77 11 -139 34 -186c92 138 178 277 264 410c-25 47 -65 75 -122 75zM338 15h1c54 0 97 18 129 70c26 46 45 132 45 241c0 71 -7 127 -29 176c-84 -126 -183 -286 -264 -410c25 -43 66 -77 118 -77z" />
    <glyph glyph-name="OE" unicode="&#x152;" horiz-adv-x="984" 
d="M172 310v-1c0 -84 18 -169 61 -223c31 -42 75 -63 131 -63c53 0 95 20 124 58c30 40 39 77 39 237c0 129 -3 156 -13 185c-20 53 -66 111 -154 111c-49 0 -85 -14 -118 -54c-41 -48 -70 -134 -70 -250zM594 630h162c35 0 66 1 91 2c25 0 43 2 54 5
c-3 -28 -4 -116 -2 -169l-28 -1c-5 25 -11 56 -22 83c-16 39 -40 48 -133 48h-61c-12 0 -15 -4 -17 -16c-2 -32 -4 -81 -4 -139v-98c11 -2 42 -2 71 -2c84 0 102 15 110 81h26c-5 -66 -6 -152 -2 -214l-27 1c-8 70 -18 99 -107 99c-28 0 -60 0 -71 -2v-79
c0 -64 1 -136 3 -173c2 -20 6 -25 90 -25c93 0 126 6 151 34c24 27 40 77 50 115l26 -3c-1 -24 -17 -153 -21 -182c-15 2 -39 2 -76 3c-36 1 -84 2 -148 2h-106c-45 0 -68 0 -84 -2c0 12 0 30 1 64c-40 -50 -111 -78 -190 -78c-67 0 -131 17 -173 49
c-71 51 -114 146 -114 270c0 135 53 236 129 291c44 32 108 52 173 52c82 0 142 -25 179 -71v57c18 -1 37 -2 70 -2z" />
    <glyph glyph-name="ordmasculine" unicode="&#xba;" horiz-adv-x="383" 
d="M196 561h1c90 0 155 -49 155 -144c0 -85 -61 -148 -165 -148s-156 60 -156 141c0 84 60 151 165 151zM193 533h-1c-25 0 -40 -11 -52 -28c-13 -19 -20 -51 -20 -90c0 -34 5 -63 16 -84c12 -23 32 -35 57 -35c23 0 41 10 54 32c11 21 17 53 17 91c0 36 -6 63 -15 81
c-13 22 -30 33 -56 33z" />
    <glyph glyph-name="ae" unicode="&#xe6;" horiz-adv-x="718" 
d="M146 125v-1c0 -44 25 -82 66 -82c42 0 71 26 85 63c5 12 6 26 6 42l1 110c-28 -15 -77 -36 -110 -55c-28 -15 -48 -30 -48 -77zM685 114c-28 -78 -83 -128 -183 -128c-87 0 -148 34 -176 95c-39 -39 -92 -95 -167 -95c-78 1 -121 55 -121 122c0 56 22 80 59 95
c62 25 149 52 207 86v39c0 46 -23 83 -76 83c-52 0 -80 -27 -79 -71c0 -10 1 -21 3 -30c2 -10 -1 -17 -9 -23c-9 -6 -21 -10 -38 -10c-30 0 -47 18 -47 46c0 56 78 118 187 118c68 0 113 -27 128 -64c32 39 83 64 140 64c152 0 173 -119 173 -174c0 -20 -6 -33 -20 -39
s-59 -12 -107 -13c-42 -1 -108 -2 -154 -1c-2 -56 12 -100 28 -127c22 -36 54 -54 102 -54c65 0 99 35 124 96zM504 411h-1c-63 0 -94 -85 -96 -164c25 -2 47 -2 74 -2c46 0 75 3 89 6c13 4 18 16 18 32c0 71 -25 128 -84 128z" />
    <glyph glyph-name="dotlessi" unicode="&#x131;" horiz-adv-x="274" 
d="M254 26l-1 -29c-31 0 -68 3 -119 3c-53 0 -82 -3 -112 -3l1 29c57 2 64 9 65 27c2 20 4 61 4 123v100c0 52 -1 89 -2 104c-1 14 -12 17 -64 15l2 28c50 3 118 7 167 17c-1 -24 -3 -73 -3 -152v-123c0 -61 1 -89 3 -111c1 -22 10 -25 59 -28z" />
    <glyph glyph-name="lslash" unicode="&#x142;" horiz-adv-x="276" 
d="M30 644l1 28c64 0 122 7 168 12c-1 -35 -4 -97 -4 -198v-67c17 11 47 32 59 40l21 -29c-14 -10 -57 -37 -80 -51v-158c0 -103 0 -142 2 -166c1 -25 10 -27 63 -29l-2 -29c-36 1 -78 3 -125 3c-48 0 -88 -3 -110 -3v29c57 1 65 8 67 31c1 20 5 87 5 173v95
c-13 -9 -37 -25 -54 -36l-22 30c22 13 56 33 76 46v124c0 83 0 111 -2 135c-1 18 -6 20 -63 20z" />
    <glyph glyph-name="oslash" unicode="&#xf8;" horiz-adv-x="524" 
d="M420 457l36 -19l-38 -48c45 -39 69 -101 69 -172c0 -132 -89 -232 -231 -232c-46 0 -87 10 -117 29l-36 -48l-34 19l39 49c-47 40 -71 104 -71 171c0 131 90 235 231 235c48 0 87 -10 120 -29zM149 212v-1c0 -33 7 -75 19 -102c59 81 120 169 178 251
c-16 28 -42 51 -82 51c-38 1 -64 -18 -83 -47c-17 -28 -32 -82 -32 -152zM376 220v1c0 35 -5 71 -15 100c-58 -79 -118 -167 -177 -252c16 -28 41 -53 79 -53c36 0 66 16 84 50c17 33 29 86 29 154z" />
    <glyph glyph-name="oe" unicode="&#x153;" horiz-adv-x="790" 
d="M266 410h-1c-38 1 -65 -18 -83 -47c-17 -28 -30 -77 -30 -150c0 -58 9 -108 25 -142c17 -35 48 -54 83 -54c39 0 68 15 86 50c16 32 27 85 27 156c0 61 -9 108 -21 136c-17 35 -46 51 -86 51zM757 115c-26 -77 -82 -129 -181 -129c-79 0 -130 28 -160 79
c-35 -51 -96 -79 -164 -79c-141 0 -215 93 -215 220c0 129 89 235 229 235c74 0 130 -30 163 -87c34 53 89 87 156 87c151 0 173 -119 173 -172c0 -22 -6 -35 -21 -42c-12 -6 -60 -11 -108 -13c-43 -1 -106 -2 -152 -1c-1 -57 11 -99 27 -126c22 -35 55 -53 103 -53
c65 0 99 35 123 94zM575 411h-1c-59 0 -92 -79 -95 -164c25 -2 48 -2 75 -2c46 0 74 4 88 7c12 4 18 13 18 35c0 63 -23 124 -85 124z" />
    <glyph glyph-name="germandbls" unicode="&#xdf;" horiz-adv-x="584" 
d="M27 427h66v11c0 61 17 125 68 176c37 37 91 64 165 64c126 0 175 -69 175 -147c0 -16 -2 -31 -7 -43c-87 -23 -116 -65 -116 -105c0 -25 12 -43 30 -59c19 -17 45 -37 69 -56c44 -33 71 -66 71 -127c0 -98 -80 -154 -172 -154c-42 0 -77 8 -104 17c1 35 -1 74 -4 103
l26 5c12 -60 39 -94 93 -94c37 0 75 25 75 80c0 31 -13 53 -38 74c-22 19 -40 34 -62 52c-38 31 -63 62 -63 113c0 60 44 112 117 145c5 12 8 29 8 48c0 57 -29 117 -104 117c-93 0 -128 -86 -128 -254v-206c0 -71 0 -107 2 -131c1 -22 8 -27 53 -30l-1 -29
c-47 1 -81 3 -121 3c-37 0 -80 -3 -101 -3v29c53 2 63 8 64 28c2 23 4 76 4 169v167l-67 6z" />
    <glyph glyph-name="logicalnot" unicode="&#xac;" horiz-adv-x="523" 
d="M412 97v202h-358v53h413v-255h-55z" />
    <glyph glyph-name="mu" unicode="&#xb5;" horiz-adv-x="548" 
d="M534 97l25 -21c-23 -70 -70 -89 -116 -89c-62 0 -79 38 -78 99c-29 -45 -89 -98 -157 -97c-22 0 -43 6 -56 20c2 -90 12 -192 19 -247l-8 -7c-57 1 -99 21 -102 28c8 113 18 279 19 300c0 63 1 149 1 223c0 44 -1 97 -3 123c26 -1 74 4 113 8c-5 -26 -10 -91 -10 -209
c-1 -89 1 -134 8 -157c6 -22 19 -34 45 -34c59 0 102 47 124 108c7 21 8 35 8 56v86c0 65 -2 120 -3 140c26 0 84 6 107 8c-1 -28 -4 -79 -4 -144v-117c0 -58 1 -98 3 -123c2 -14 6 -21 16 -21c15 0 39 19 49 67z" />
    <glyph glyph-name="trademark" unicode="&#x2122;" horiz-adv-x="362" 
d="M71 624h23c31 0 45 1 57 4c0 -4 -3 -23 -2 -54l-11 -2c-3 18 -6 27 -9 31c-3 5 -8 7 -31 7v-53c0 -19 1 -33 1 -39c1 -4 4 -6 25 -7l-1 -14c-8 0 -26 1 -48 1c-14 0 -23 -1 -35 -1l-1 14c22 1 24 4 24 7c1 7 2 20 2 39v53c-23 0 -28 -2 -31 -8c-5 -10 -8 -21 -11 -31
l-11 1c3 23 4 46 5 56c10 -2 30 -4 54 -4zM162 612l1 14c19 -1 26 -1 33 -1c12 0 21 0 29 1c3 -13 25 -57 35 -80c16 33 30 71 33 80c12 -1 18 -1 28 -1c13 0 21 1 32 1l1 -13c-16 -1 -19 -3 -20 -7v-26c0 -24 1 -50 2 -60c1 -6 3 -9 21 -9l-1 -14c-5 0 -20 1 -36 1
s-32 -1 -37 -1v14c15 0 18 3 18 9c1 9 2 48 2 91h-1c-21 -51 -36 -94 -43 -111l-17 -3c-7 25 -34 81 -45 112h-1c-1 -37 0 -71 0 -83c1 -7 2 -14 12 -14l12 -1v-14c-9 0 -19 1 -31 1c-13 0 -26 -1 -33 -1v14c18 1 22 3 23 16c1 12 3 44 4 77l-1 3c0 3 -2 3 -6 3z" />
    <glyph glyph-name="Eth" unicode="&#xd0;" horiz-adv-x="697" 
d="M24 311l5 41c20 -1 53 -2 90 -3v84c0 79 -1 122 -2 143c0 17 -6 23 -23 24l-60 7l2 27c22 0 84 -4 128 -4c50 0 101 4 159 4c107 0 168 -15 208 -40c77 -47 123 -132 123 -258c0 -131 -46 -249 -170 -307c-46 -21 -110 -32 -180 -32c-25 0 -49 1 -74 1c-24 1 -50 2 -74 2
c-40 0 -108 -3 -127 -3l1 28l45 4c28 2 37 10 38 27c1 21 6 87 6 173v85c-33 0 -63 -1 -95 -3zM386 352l-6 -42c-21 0 -85 2 -152 3v-87c0 -118 1 -153 3 -176c2 -15 11 -22 61 -22c99 0 150 30 182 74c31 43 56 117 56 229c0 101 -23 170 -57 210c-35 40 -82 61 -172 61
c-59 0 -68 -8 -69 -20c-2 -16 -4 -50 -4 -154v-80c68 0 118 2 158 4z" />
    <glyph glyph-name="onehalf" unicode="&#xbd;" horiz-adv-x="785" 
d="M274 301l1 -26c-49 0 -87 3 -117 3c-37 0 -72 -3 -106 -3l-2 26l50 4c17 2 22 8 23 18c1 18 3 45 3 87v86c0 38 -1 65 -2 84c-1 6 -3 9 -9 8c-10 -2 -37 -6 -61 -11l5 30c42 6 123 19 146 28l4 -2c0 -20 -3 -60 -3 -133v-90c0 -44 1 -66 2 -88c1 -10 8 -15 18 -16z
M567 668l34 -23c-102 -152 -273 -416 -429 -671l-31 26c140 213 326 504 426 668zM716 147l24 -9c-18 -64 -24 -101 -25 -118c-17 1 -53 3 -200 3c-36 0 -63 0 -86 -2l-2 6c5 13 12 30 18 43c89 49 147 103 165 149c9 21 12 39 12 64c0 34 -14 70 -57 70s-58 -26 -58 -64
c0 -8 2 -20 3 -28c2 -7 -1 -13 -7 -18c-6 -4 -17 -8 -27 -8c-26 0 -41 16 -41 45c0 24 16 49 41 68c24 18 61 32 104 32c38 0 70 -10 89 -23c29 -19 43 -49 43 -84c0 -34 -12 -59 -40 -84c-24 -21 -78 -58 -151 -105c100 2 145 5 158 6c10 0 15 4 18 11c4 8 14 30 19 46z
" />
    <glyph glyph-name="plusminus" unicode="&#xb1;" horiz-adv-x="521" 
d="M468 58v-53h-415v53h415zM289 96h-56v181h-180v52h180v170h56v-170h179v-52h-179v-181z" />
    <glyph glyph-name="Thorn" unicode="&#xde;" horiz-adv-x="573" 
d="M108 210v234c0 72 0 105 -1 128c-1 26 -15 31 -80 33l5 29c25 -1 71 -3 126 -3c52 0 97 3 136 3v-29c-66 -1 -71 -9 -73 -28c-1 -17 -2 -40 -2 -67c29 1 57 4 107 4c81 0 130 -19 159 -48c32 -31 49 -76 49 -134c0 -64 -22 -109 -56 -143c-41 -40 -108 -58 -174 -58
c-35 0 -67 5 -87 11c0 -28 0 -53 2 -81c1 -26 6 -31 88 -35l-2 -29c-42 0 -95 3 -149 3c-41 0 -96 -2 -134 -3l2 29c68 4 77 8 79 38c2 34 5 79 5 146zM217 392v-209c16 -11 44 -18 75 -18c41 0 74 15 93 43c18 25 30 67 30 122c0 51 -11 92 -32 116c-23 26 -56 36 -109 36
c-48 0 -54 -7 -55 -17c-1 -14 -2 -39 -2 -73z" />
    <glyph glyph-name="onequarter" unicode="&#xbc;" horiz-adv-x="785" 
d="M289 301l2 -26c-49 0 -87 3 -117 3c-37 0 -72 -3 -106 -3l-2 26l50 4c17 2 22 8 23 18c1 18 3 46 3 87v86c0 38 -1 65 -2 84c-1 6 -3 9 -9 8c-10 -2 -37 -6 -61 -11l5 30c42 6 123 19 146 28l4 -2c0 -20 -3 -60 -3 -132v-91c0 -43 1 -65 2 -88c1 -10 8 -15 18 -16z
M588 668l34 -23c-102 -152 -272 -416 -429 -671l-31 26c140 213 327 505 426 668zM392 123l-8 21c75 80 159 178 190 216c23 4 57 13 77 20l5 -3c-2 -41 -3 -137 -3 -197v-35c39 2 60 10 72 16v-23c-12 -9 -37 -20 -72 -25c0 -25 1 -58 2 -90c-37 0 -66 -4 -84 -9l-5 3
c2 22 3 52 4 93c-75 0 -158 6 -178 13zM571 144c2 52 4 133 4 176c-49 -58 -100 -119 -136 -166c13 -4 65 -10 132 -10z" />
    <glyph glyph-name="divide" unicode="&#xf7;" horiz-adv-x="521" 
d="M262 138h1c27 0 48 -21 48 -50c0 -25 -22 -49 -48 -49c-25 0 -48 23 -48 49c0 27 23 50 47 50zM262 336h-1c-22 0 -46 23 -46 50c0 26 24 49 48 49c27 0 49 -24 49 -49c0 -29 -21 -50 -50 -50zM53 264h415v-53h-415v53z" />
    <glyph glyph-name="brokenbar" unicode="&#xa6;" horiz-adv-x="256" 
d="M93 676h71v-350h-71v350zM93 -174v350h71v-350h-71z" />
    <glyph glyph-name="degree" unicode="&#xb0;" horiz-adv-x="317" 
d="M165 650h1c67 0 113 -46 113 -117c0 -78 -56 -121 -123 -121s-118 39 -118 114c0 81 56 124 127 124zM161 619h-1c-50 1 -58 -55 -58 -86c0 -58 24 -88 56 -88c53 0 58 59 58 92c0 28 -8 82 -55 82z" />
    <glyph glyph-name="thorn" unicode="&#xfe;" horiz-adv-x="535" 
d="M-11 -235l5 29c62 4 73 8 74 28c3 32 6 93 6 203v457c0 77 -1 113 -2 133c-1 16 -11 19 -70 17l6 28c35 1 135 7 170 16c-2 -27 -3 -110 -3 -309c47 42 100 74 160 74c54 0 90 -19 116 -49c27 -31 47 -88 47 -155c0 -152 -79 -251 -221 -251c-37 0 -80 11 -104 31
c0 -83 -1 -135 3 -189c1 -25 9 -30 79 -32l-5 -28c-26 0 -70 2 -131 2c-62 0 -103 -3 -130 -5zM271 18h1c93 0 116 119 116 207c0 52 -11 101 -27 125c-17 25 -42 40 -75 40c-45 0 -81 -24 -102 -70c-6 -13 -9 -27 -9 -47c-2 -69 -2 -121 -1 -173c0 -15 4 -27 11 -38
c20 -28 50 -44 86 -44z" />
    <glyph glyph-name="threequarters" unicode="&#xbe;" horiz-adv-x="785" 
d="M195 634h1c54 0 127 -21 127 -85c0 -30 -19 -47 -40 -59c-19 -9 -37 -15 -63 -22v-3c44 -2 79 -12 99 -27c18 -14 28 -33 28 -60c0 -35 -22 -61 -44 -77c-23 -16 -68 -32 -124 -32c-76 0 -139 32 -139 78c0 21 18 40 43 40c18 0 23 -9 28 -28c10 -42 37 -64 73 -64
c47 0 70 31 70 77c0 40 -18 74 -79 74c-15 0 -30 -2 -42 -5l-15 20l4 7c21 1 47 5 64 13c23 9 51 25 51 66c0 32 -20 60 -58 60c-45 0 -61 -24 -61 -56c0 -7 1 -16 2 -23c1 -10 -11 -18 -27 -18c-24 0 -40 12 -40 37c0 36 50 87 142 87zM613 668l34 -23
c-102 -152 -273 -416 -429 -672l-32 27c140 213 327 505 427 668zM410 123l-7 21c74 80 159 177 190 216c23 4 57 13 77 20l5 -4c-2 -40 -3 -137 -3 -197v-34c39 2 60 10 72 16v-23c-12 -9 -37 -20 -72 -25c0 -25 1 -58 2 -90c-37 0 -66 -4 -84 -9l-5 3c2 22 3 52 4 93
c-76 0 -159 6 -179 13zM590 144c2 52 4 133 4 175c-49 -57 -100 -118 -137 -165c14 -4 66 -10 133 -10z" />
    <glyph glyph-name="registered" unicode="&#xae;" horiz-adv-x="244" 
d="M127 644h1c62 0 108 -48 108 -112c0 -63 -47 -113 -110 -113c-62 0 -109 50 -109 113c0 64 48 112 110 112zM126 625h-1c-46 0 -84 -38 -84 -94c0 -52 38 -92 87 -92s86 39 86 92c0 54 -36 94 -88 94zM70 571l1 12c4 0 20 -1 27 -1c9 0 21 1 37 1c26 0 35 -10 35 -24
c0 -15 -11 -22 -27 -24v-1c17 -1 23 -7 26 -13c1 -4 3 -10 4 -16c1 -7 3 -10 9 -10c1 0 4 0 6 1l-1 -12c-8 -1 -16 -2 -22 -2c-17 0 -22 9 -23 21c0 5 -1 9 -1 12c-1 7 -6 11 -13 12h-13c0 -10 0 -20 1 -25c0 -4 2 -5 4 -5l10 -2l-1 -12h-56v12l7 1c4 0 7 2 7 4
c1 7 1 21 1 35c0 15 0 27 -1 31c0 3 -1 4 -4 4zM140 554v1c0 11 -5 17 -16 17c-4 0 -8 0 -9 -3v-31c4 0 7 0 12 1c8 0 13 7 13 15z" />
    <glyph glyph-name="minus" unicode="&#x2212;" horiz-adv-x="521" 
d="M53 262h416v-53h-416v53z" />
    <glyph glyph-name="eth" unicode="&#xf0;" horiz-adv-x="520" 
d="M104 644l6 29c73 2 157 -22 223 -69c46 24 79 42 110 59l15 -35c-22 -10 -55 -27 -97 -49c78 -72 117 -185 117 -311c0 -183 -85 -282 -228 -282c-133 0 -213 88 -213 219c0 137 92 236 224 236c37 0 66 -8 96 -27c-8 48 -26 96 -60 134c-49 -24 -104 -53 -146 -76
l-16 35c54 26 103 50 137 67c-46 44 -104 67 -168 70zM267 411h-1c-37 1 -66 -17 -84 -49c-19 -32 -30 -85 -30 -144c0 -55 7 -104 23 -140c18 -40 50 -61 86 -61c37 0 63 17 82 57c15 31 27 98 27 177c0 44 -3 77 -10 101c-15 35 -48 58 -93 59z" />
    <glyph glyph-name="multiply" unicode="&#xd7;" horiz-adv-x="521" 
d="M463 397l-166 -167l166 -168l-38 -41l-164 170l-164 -170l-38 41l165 168l-165 166l38 40l164 -169l164 171z" />
    <glyph glyph-name="copyright" unicode="&#xa9;" horiz-adv-x="703" 
d="M352 642h1c177 0 303 -140 303 -320c0 -182 -131 -319 -304 -319c-174 0 -305 135 -305 319c0 180 132 320 305 320zM352 609h-1c-149 0 -262 -119 -262 -287c0 -166 113 -287 265 -287c149 0 261 121 261 287c0 162 -103 287 -263 287zM486 275l21 -11
c-21 -78 -87 -104 -146 -104s-105 19 -133 50c-24 26 -38 64 -38 113c0 55 20 100 55 131c28 25 71 42 125 42c43 0 70 -11 88 -23c5 -3 8 -1 9 2l8 19l20 -3c-5 -32 -7 -79 -3 -130h-21c-4 28 -14 59 -28 78c-16 20 -39 31 -67 31c-30 0 -52 -11 -68 -31
c-17 -22 -29 -59 -29 -107c0 -50 11 -84 28 -104c17 -21 43 -34 75 -34c52 0 85 29 104 81z" />
    <glyph glyph-name="Aacute" unicode="&#xc1;" horiz-adv-x="626" 
d="M634 26v-29c-24 1 -76 3 -129 3c-51 0 -91 -2 -139 -3l-1 29c60 5 69 9 64 30c-9 35 -35 121 -54 183c-18 1 -59 1 -100 1c-40 0 -79 0 -95 -1c-27 -85 -41 -128 -48 -155c-10 -43 0 -53 82 -58l-1 -29c-32 0 -63 3 -108 3c-30 0 -78 -3 -117 -3v29c55 4 74 11 96 66
c33 81 143 393 170 476c10 28 15 43 17 60c22 1 74 7 93 15c49 -166 152 -499 189 -586c9 -19 20 -26 43 -28zM284 554c-24 -72 -53 -156 -91 -279c16 -1 53 -1 89 -1s71 0 83 1c-24 88 -56 194 -81 279zM276 681l-15 22c28 20 117 92 139 108c16 11 36 17 52 14
c20 -2 34 -16 30 -40c-3 -23 -26 -41 -49 -49c-25 -10 -78 -28 -157 -55z" />
    <glyph glyph-name="Acircumflex" unicode="&#xc2;" horiz-adv-x="626" 
d="M634 26v-29c-24 1 -76 3 -129 3c-51 0 -91 -2 -139 -3l-1 29c60 5 69 9 64 30c-9 35 -35 121 -54 183c-18 1 -59 1 -100 1c-40 0 -79 0 -95 -1c-27 -85 -41 -128 -48 -155c-10 -43 0 -53 82 -58l-1 -29c-32 0 -63 3 -108 3c-30 0 -78 -3 -117 -3v29c55 4 74 11 96 66
c33 81 143 393 170 476c10 28 15 43 17 60c22 1 74 7 93 15c49 -166 152 -499 189 -586c9 -19 20 -26 43 -28zM284 554c-24 -72 -53 -156 -91 -279c16 -1 53 -1 89 -1s71 0 83 1c-24 88 -56 194 -81 279zM310 816l24 4c14 -26 59 -81 128 -122l-15 -25
c-39 13 -93 39 -125 58c-35 -19 -87 -45 -126 -58l-15 25c74 47 111 92 129 118z" />
    <glyph glyph-name="Adieresis" unicode="&#xc4;" horiz-adv-x="626" 
d="M634 26v-29c-24 1 -76 3 -129 3c-51 0 -91 -2 -139 -3l-1 29c60 5 69 9 64 30c-9 35 -35 121 -54 183c-18 1 -59 1 -100 1c-40 0 -79 0 -95 -1c-27 -85 -41 -128 -48 -155c-10 -43 0 -53 82 -58l-1 -29c-32 0 -63 3 -108 3c-30 0 -78 -3 -117 -3v29c55 4 74 11 96 66
c33 81 143 393 170 476c10 28 15 43 17 60c22 1 74 7 93 15c49 -166 152 -499 189 -586c9 -19 20 -26 43 -28zM284 554c-24 -72 -53 -156 -91 -279c16 -1 53 -1 89 -1s71 0 83 1c-24 88 -56 194 -81 279zM226 796h1c32 0 51 -24 51 -52c0 -37 -29 -58 -55 -58
c-24 0 -50 16 -50 53c0 34 22 57 53 57zM412 796h1c31 0 51 -24 51 -52c0 -37 -28 -58 -54 -58c-25 0 -51 16 -51 53c0 34 22 57 53 57z" />
    <glyph glyph-name="Agrave" unicode="&#xc0;" horiz-adv-x="626" 
d="M634 26v-29c-24 1 -76 3 -129 3c-51 0 -91 -2 -139 -3l-1 29c60 5 69 9 64 30c-9 35 -35 121 -54 183c-18 1 -59 1 -100 1c-40 0 -79 0 -95 -1c-27 -85 -41 -128 -48 -155c-10 -43 0 -53 82 -58l-1 -29c-32 0 -63 3 -108 3c-30 0 -78 -3 -117 -3v29c55 4 74 11 96 66
c33 81 143 393 170 476c10 28 15 43 17 60c22 1 74 7 93 15c49 -166 152 -499 189 -586c9 -19 20 -26 43 -28zM284 554c-24 -72 -53 -156 -91 -279c16 -1 53 -1 89 -1s71 0 83 1c-24 88 -56 194 -81 279zM368 703l-14 -21c-63 20 -132 44 -149 50c-19 7 -41 26 -43 48
c-3 25 15 40 35 42c16 2 34 -3 50 -14c16 -12 98 -86 121 -105z" />
    <glyph glyph-name="Aring" unicode="&#xc5;" horiz-adv-x="626" 
d="M634 26v-29c-24 1 -76 3 -129 3c-51 0 -91 -2 -139 -3l-1 29c60 5 69 9 64 30c-9 35 -35 121 -54 183c-18 1 -59 1 -100 1c-40 0 -79 0 -95 -1c-27 -85 -41 -128 -48 -155c-10 -43 0 -53 82 -58l-1 -29c-32 0 -63 3 -108 3c-30 0 -78 -3 -117 -3v29c55 4 74 11 96 66
c33 81 143 393 170 476c10 28 15 43 17 60c22 1 74 7 93 15c49 -166 152 -499 189 -586c9 -19 20 -26 43 -28zM284 554c-24 -72 -53 -156 -91 -279c16 -1 53 -1 89 -1s71 0 83 1c-24 88 -56 194 -81 279zM322 853h1c54 0 92 -31 92 -88c0 -59 -45 -91 -99 -91s-95 29 -95 84
c0 62 44 95 101 95zM319 825h-1c-34 0 -40 -37 -40 -60c0 -43 19 -62 41 -62c36 0 39 42 39 64s-8 58 -39 58z" />
    <glyph glyph-name="Atilde" unicode="&#xc3;" horiz-adv-x="626" 
d="M634 26v-29c-24 1 -76 3 -129 3c-51 0 -91 -2 -139 -3l-1 29c60 5 69 9 64 30c-9 35 -35 121 -54 183c-18 1 -59 1 -100 1c-40 0 -79 0 -95 -1c-27 -85 -41 -128 -48 -155c-10 -43 0 -53 82 -58l-1 -29c-32 0 -63 3 -108 3c-30 0 -78 -3 -117 -3v29c55 4 74 11 96 66
c33 81 143 393 170 476c10 28 15 43 17 60c22 1 74 7 93 15c49 -166 152 -499 189 -586c9 -19 20 -26 43 -28zM284 554c-24 -72 -53 -156 -91 -279c16 -1 53 -1 89 -1s71 0 83 1c-24 88 -56 194 -81 279zM222 681l-33 3c2 60 26 121 84 121c21 0 39 -9 66 -31
c22 -19 36 -27 46 -27c16 0 29 19 33 62l31 -6c-2 -64 -23 -120 -76 -120c-22 0 -42 11 -72 36c-18 14 -30 23 -43 23c-18 0 -33 -26 -36 -61z" />
    <glyph glyph-name="Ccedilla" unicode="&#xc7;" horiz-adv-x="616" 
d="M371 -15c-7 -10 -15 -22 -22 -34c30 -6 71 -24 71 -75c0 -50 -37 -84 -94 -84c-29 0 -53 12 -61 18l10 29c11 -7 29 -12 44 -12c23 0 39 11 39 34c0 25 -27 38 -64 38l-5 11c14 21 30 45 49 74h-10c-97 2 -173 36 -220 100c-42 54 -64 131 -64 219c0 119 39 206 101 264
c52 48 123 79 216 79c80 0 136 -24 166 -53l20 49l24 -8c-8 -57 -13 -143 -9 -209l-27 -4c-7 100 -52 193 -165 193c-60 0 -102 -21 -137 -66c-39 -50 -64 -134 -64 -230c0 -80 17 -153 49 -203c36 -57 91 -84 155 -84c91 0 151 45 189 146l26 -17
c-33 -104 -101 -166 -217 -175z" />
    <glyph glyph-name="Eacute" unicode="&#xc9;" horiz-adv-x="567" 
d="M23 605v28c15 0 40 -1 68 -1c27 -1 58 -2 83 -2h170c66 0 121 3 143 7c-4 -28 -5 -121 -3 -172l-27 -2c-4 27 -12 60 -24 88c-17 38 -33 47 -129 47h-66c-13 0 -16 -4 -17 -16c-2 -30 -4 -78 -4 -133v-106c11 -1 42 -1 57 -1c87 0 102 19 111 86h26
c-6 -68 -7 -157 -2 -220l-27 1c-8 74 -19 100 -109 100c-18 0 -45 0 -56 -2v-91c0 -61 1 -125 3 -160c1 -20 7 -25 91 -25c92 0 120 6 147 34c24 25 44 77 55 117l25 -4c-1 -24 -21 -157 -26 -183c-34 3 -98 5 -213 5h-124c-25 0 -57 -1 -86 -1c-29 -1 -56 -2 -74 -2l1 28
l60 6c20 1 26 10 28 36c3 39 4 89 4 152v206c0 73 -1 123 -2 151c-1 17 -9 23 -33 25zM245 683l-15 22c28 20 117 92 139 108c16 11 36 17 52 14c20 -2 34 -16 30 -40c-3 -23 -26 -41 -49 -49c-25 -10 -78 -28 -157 -55z" />
    <glyph glyph-name="Ecircumflex" unicode="&#xca;" horiz-adv-x="567" 
d="M23 605v28c15 0 40 -1 68 -1c27 -1 58 -2 83 -2h170c66 0 121 3 143 7c-4 -28 -5 -121 -3 -172l-27 -2c-4 27 -12 60 -24 88c-17 38 -33 47 -129 47h-66c-13 0 -16 -4 -17 -16c-2 -30 -4 -78 -4 -133v-106c11 -1 42 -1 57 -1c87 0 102 19 111 86h26
c-6 -68 -7 -157 -2 -220l-27 1c-8 74 -19 100 -109 100c-18 0 -45 0 -56 -2v-91c0 -61 1 -125 3 -160c1 -20 7 -25 91 -25c92 0 120 6 147 34c24 25 44 77 55 117l25 -4c-1 -24 -21 -157 -26 -183c-34 3 -98 5 -213 5h-124c-25 0 -57 -1 -86 -1c-29 -1 -56 -2 -74 -2l1 28
l60 6c20 1 26 10 28 36c3 39 4 89 4 152v206c0 73 -1 123 -2 151c-1 17 -9 23 -33 25zM273 825l24 4c14 -26 59 -81 128 -122l-15 -25c-39 13 -93 39 -125 58c-35 -19 -87 -45 -126 -58l-15 25c74 47 111 92 129 118z" />
    <glyph glyph-name="Edieresis" unicode="&#xcb;" horiz-adv-x="567" 
d="M23 605v28c15 0 40 -1 68 -1c27 -1 58 -2 83 -2h170c66 0 121 3 143 7c-4 -28 -5 -121 -3 -172l-27 -2c-4 27 -12 60 -24 88c-17 38 -33 47 -129 47h-66c-13 0 -16 -4 -17 -16c-2 -30 -4 -78 -4 -133v-106c11 -1 42 -1 57 -1c87 0 102 19 111 86h26
c-6 -68 -7 -157 -2 -220l-27 1c-8 74 -19 100 -109 100c-18 0 -45 0 -56 -2v-91c0 -61 1 -125 3 -160c1 -20 7 -25 91 -25c92 0 120 6 147 34c24 25 44 77 55 117l25 -4c-1 -24 -21 -157 -26 -183c-34 3 -98 5 -213 5h-124c-25 0 -57 -1 -86 -1c-29 -1 -56 -2 -74 -2l1 28
l60 6c20 1 26 10 28 36c3 39 4 89 4 152v206c0 73 -1 123 -2 151c-1 17 -9 23 -33 25zM191 801h1c32 0 51 -24 51 -52c0 -37 -29 -58 -55 -58c-24 0 -50 16 -50 53c0 34 22 57 53 57zM377 801h1c31 0 51 -24 51 -52c0 -37 -28 -58 -54 -58c-25 0 -51 16 -51 53
c0 34 22 57 53 57z" />
    <glyph glyph-name="Egrave" unicode="&#xc8;" horiz-adv-x="567" 
d="M23 605v28c15 0 40 -1 68 -1c27 -1 58 -2 83 -2h170c66 0 121 3 143 7c-4 -28 -5 -121 -3 -172l-27 -2c-4 27 -12 60 -24 88c-17 38 -33 47 -129 47h-66c-13 0 -16 -4 -17 -16c-2 -30 -4 -78 -4 -133v-106c11 -1 42 -1 57 -1c87 0 102 19 111 86h26
c-6 -68 -7 -157 -2 -220l-27 1c-8 74 -19 100 -109 100c-18 0 -45 0 -56 -2v-91c0 -61 1 -125 3 -160c1 -20 7 -25 91 -25c92 0 120 6 147 34c24 25 44 77 55 117l25 -4c-1 -24 -21 -157 -26 -183c-34 3 -98 5 -213 5h-124c-25 0 -57 -1 -86 -1c-29 -1 -56 -2 -74 -2l1 28
l60 6c20 1 26 10 28 36c3 39 4 89 4 152v206c0 73 -1 123 -2 151c-1 17 -9 23 -33 25zM337 705l-14 -21c-63 20 -132 44 -149 50c-19 7 -41 26 -43 48c-3 25 15 40 35 42c16 2 34 -3 50 -14c16 -12 98 -86 121 -105z" />
    <glyph glyph-name="Iacute" unicode="&#xcd;" horiz-adv-x="325" 
d="M107 197v254c0 65 0 91 -1 116c-2 30 -16 33 -83 37l1 29c28 -1 87 -3 136 -3c47 0 104 3 137 3l1 -29c-63 -2 -76 -8 -78 -31c-1 -20 -3 -53 -3 -118v-256c0 -72 2 -109 3 -138c2 -27 17 -32 79 -35l-1 -29c-36 1 -94 3 -141 3c-45 0 -102 -2 -135 -3l1 29
c63 3 78 9 80 33c2 23 4 58 4 138zM119 678l-15 22c28 20 117 92 139 108c16 11 36 17 52 14c20 -2 34 -16 30 -40c-3 -23 -26 -41 -49 -49c-25 -10 -78 -28 -157 -55z" />
    <glyph glyph-name="Icircumflex" unicode="&#xce;" horiz-adv-x="325" 
d="M107 197v254c0 65 0 91 -1 116c-2 30 -16 33 -83 37l1 29c28 -1 87 -3 136 -3c47 0 104 3 137 3l1 -29c-63 -2 -76 -8 -78 -31c-1 -20 -3 -53 -3 -118v-256c0 -72 2 -109 3 -138c2 -27 17 -32 79 -35l-1 -29c-36 1 -94 3 -141 3c-45 0 -102 -2 -135 -3l1 29
c63 3 78 9 80 33c2 23 4 58 4 138zM151 820l24 4c14 -26 59 -81 128 -122l-15 -25c-39 13 -93 39 -125 58c-35 -19 -87 -45 -126 -58l-15 25c74 47 111 92 129 118z" />
    <glyph glyph-name="Idieresis" unicode="&#xcf;" horiz-adv-x="325" 
d="M107 197v254c0 65 0 91 -1 116c-2 30 -16 33 -83 37l1 29c28 -1 87 -3 136 -3c47 0 104 3 137 3l1 -29c-63 -2 -76 -8 -78 -31c-1 -20 -3 -53 -3 -118v-256c0 -72 2 -109 3 -138c2 -27 17 -32 79 -35l-1 -29c-36 1 -94 3 -141 3c-45 0 -102 -2 -135 -3l1 29
c63 3 78 9 80 33c2 23 4 58 4 138zM69 796h1c32 0 51 -24 51 -52c0 -37 -29 -58 -55 -58c-24 0 -50 16 -50 53c0 34 22 57 53 57zM255 796h1c31 0 51 -24 51 -52c0 -37 -28 -58 -54 -58c-25 0 -51 16 -51 53c0 34 22 57 53 57z" />
    <glyph glyph-name="Igrave" unicode="&#xcc;" horiz-adv-x="325" 
d="M107 197v254c0 65 0 91 -1 116c-2 30 -16 33 -83 37l1 29c28 -1 87 -3 136 -3c47 0 104 3 137 3l1 -29c-63 -2 -76 -8 -78 -31c-1 -20 -3 -53 -3 -118v-256c0 -72 2 -109 3 -138c2 -27 17 -32 79 -35l-1 -29c-36 1 -94 3 -141 3c-45 0 -102 -2 -135 -3l1 29
c63 3 78 9 80 33c2 23 4 58 4 138zM211 702l-14 -21c-63 20 -132 44 -149 50c-19 7 -41 26 -43 48c-3 25 15 40 35 42c16 2 34 -3 50 -14c16 -12 98 -86 121 -105z" />
    <glyph glyph-name="Ntilde" unicode="&#xd1;" horiz-adv-x="671" 
d="M16 604v29c19 0 70 -3 107 -3c36 0 60 1 86 3c9 -16 24 -38 54 -83c29 -46 134 -196 279 -403c1 280 -5 382 -8 409c-4 34 -15 42 -52 45l-51 3l5 29c43 0 88 -3 123 -3c37 0 81 3 106 3l1 -29c-21 -2 -37 -4 -51 -7c-17 -4 -23 -13 -27 -36c-6 -37 -12 -159 -12 -311
v-253c-17 -1 -49 -6 -65 -10c-89 139 -251 377 -366 547c0 -226 2 -425 8 -463c4 -25 16 -34 34 -37c16 -2 43 -6 69 -8l-2 -29c-35 0 -81 3 -135 3c-47 0 -82 -3 -108 -3l1 29c14 0 35 3 52 6c24 3 30 18 34 46c5 38 15 250 15 483c-3 10 -5 16 -12 24c-6 8 -17 13 -39 15z
M251 685l-33 3c2 60 26 121 84 121c21 0 39 -9 66 -31c22 -19 36 -27 46 -27c16 0 29 19 33 62l31 -6c-2 -64 -23 -120 -76 -120c-22 0 -42 11 -72 36c-18 14 -30 23 -43 23c-18 0 -33 -26 -36 -61z" />
    <glyph glyph-name="Oacute" unicode="&#xd3;" horiz-adv-x="681" 
d="M348 646h1c185 0 289 -143 289 -321c0 -223 -118 -341 -298 -341c-181 0 -297 120 -297 326c0 182 104 336 305 336zM340 616h-1c-52 0 -95 -25 -125 -74c-25 -43 -44 -119 -44 -219c0 -99 22 -187 51 -233c32 -52 75 -74 128 -74c48 0 90 19 120 72c26 45 42 127 42 223
c0 94 -16 178 -44 229c-29 50 -70 76 -127 76zM285 689l-15 22c28 20 117 92 139 108c16 11 36 17 52 14c20 -2 34 -16 30 -40c-3 -23 -26 -41 -49 -49c-25 -10 -78 -28 -157 -55z" />
    <glyph glyph-name="Ocircumflex" unicode="&#xd4;" horiz-adv-x="681" 
d="M348 646h1c185 0 289 -143 289 -321c0 -223 -118 -341 -298 -341c-181 0 -297 120 -297 326c0 182 104 336 305 336zM340 616h-1c-52 0 -95 -25 -125 -74c-25 -43 -44 -119 -44 -219c0 -99 22 -187 51 -233c32 -52 75 -74 128 -74c48 0 90 19 120 72c26 45 42 127 42 223
c0 94 -16 178 -44 229c-29 50 -70 76 -127 76zM329 826l24 4c14 -26 59 -81 128 -122l-15 -25c-39 13 -93 39 -125 58c-35 -19 -87 -45 -126 -58l-15 25c74 47 111 92 129 118z" />
    <glyph glyph-name="Odieresis" unicode="&#xd6;" horiz-adv-x="681" 
d="M348 646h1c185 0 289 -143 289 -321c0 -223 -118 -341 -298 -341c-181 0 -297 120 -297 326c0 182 104 336 305 336zM340 616h-1c-52 0 -95 -25 -125 -74c-25 -43 -44 -119 -44 -219c0 -99 22 -187 51 -233c32 -52 75 -74 128 -74c48 0 90 19 120 72c26 45 42 127 42 223
c0 94 -16 178 -44 229c-29 50 -70 76 -127 76zM246 804h1c32 0 51 -24 51 -52c0 -37 -29 -58 -55 -58c-24 0 -50 16 -50 53c0 34 22 57 53 57zM432 804h1c31 0 51 -24 51 -52c0 -37 -28 -58 -54 -58c-25 0 -51 16 -51 53c0 34 22 57 53 57z" />
    <glyph glyph-name="Ograve" unicode="&#xd2;" horiz-adv-x="681" 
d="M348 646h1c185 0 289 -143 289 -321c0 -223 -118 -341 -298 -341c-181 0 -297 120 -297 326c0 182 104 336 305 336zM340 616h-1c-52 0 -95 -25 -125 -74c-25 -43 -44 -119 -44 -219c0 -99 22 -187 51 -233c32 -52 75 -74 128 -74c48 0 90 19 120 72c26 45 42 127 42 223
c0 94 -16 178 -44 229c-29 50 -70 76 -127 76zM393 709l-14 -21c-63 20 -132 44 -149 50c-19 7 -41 26 -43 48c-3 25 15 40 35 42c16 2 34 -3 50 -14c16 -12 98 -86 121 -105z" />
    <glyph glyph-name="Otilde" unicode="&#xd5;" horiz-adv-x="681" 
d="M348 646h1c185 0 289 -143 289 -321c0 -223 -118 -341 -298 -341c-181 0 -297 120 -297 326c0 182 104 336 305 336zM340 616h-1c-52 0 -95 -25 -125 -74c-25 -43 -44 -119 -44 -219c0 -99 22 -187 51 -233c32 -52 75 -74 128 -74c48 0 90 19 120 72c26 45 42 127 42 223
c0 94 -16 178 -44 229c-29 50 -70 76 -127 76zM240 690l-33 3c2 60 26 121 84 121c21 0 39 -9 66 -31c22 -19 36 -27 46 -27c16 0 29 19 33 62l31 -6c-2 -64 -23 -120 -76 -120c-22 0 -42 11 -72 36c-18 14 -30 23 -43 23c-18 0 -33 -26 -36 -61z" />
    <glyph glyph-name="Scaron" unicode="&#x160;" horiz-adv-x="493" 
d="M51 206l28 6c-3 -122 52 -195 155 -195c67 0 121 37 121 116c0 41 -16 71 -52 92c-29 18 -110 57 -157 85c-66 38 -92 92 -92 155c0 113 82 182 198 182c58 0 109 -17 132 -40l18 44l25 -6c-14 -79 -16 -158 -16 -194l-28 -4c-1 113 -59 169 -132 169
c-66 0 -105 -44 -105 -110c0 -44 19 -77 67 -103c75 -41 128 -66 165 -90c51 -29 78 -71 78 -136c0 -131 -107 -193 -237 -193c-62 0 -134 20 -176 39c6 56 7 129 8 183zM260 689l-24 -4c-14 26 -58 80 -128 123l15 25c39 -13 93 -39 126 -59c34 20 87 46 125 59l15 -25
c-75 -48 -111 -93 -129 -119z" />
    <glyph glyph-name="Uacute" unicode="&#xda;" horiz-adv-x="663" 
d="M367 29h1c87 0 153 29 163 172c9 131 4 290 0 358c-3 37 -18 40 -43 42l-50 5l-3 28c33 0 73 -4 107 -4c36 0 73 4 110 4l4 -28l-38 -4c-28 -2 -34 -12 -35 -38c-6 -137 -6 -311 -16 -394c-10 -70 -35 -112 -77 -143c-37 -28 -92 -43 -159 -43c-83 0 -151 21 -189 66
c-30 34 -43 76 -44 161c-1 73 -1 309 -2 358c-1 21 -5 30 -21 31l-55 6v28c39 0 91 -4 134 -4c39 0 93 4 132 4l2 -28l-54 -6c-14 -1 -20 -8 -21 -25c-7 -75 -9 -278 -2 -388c4 -68 17 -93 40 -116c25 -27 74 -42 116 -42zM296 682l-15 22c28 20 117 92 139 108
c16 11 36 17 52 14c20 -2 34 -16 30 -40c-3 -23 -26 -41 -49 -49c-25 -10 -78 -28 -157 -55z" />
    <glyph glyph-name="Ucircumflex" unicode="&#xdb;" horiz-adv-x="663" 
d="M367 29h1c87 0 153 29 163 172c9 131 4 290 0 358c-3 37 -18 40 -43 42l-50 5l-3 28c33 0 73 -4 107 -4c36 0 73 4 110 4l4 -28l-38 -4c-28 -2 -34 -12 -35 -38c-6 -137 -6 -311 -16 -394c-10 -70 -35 -112 -77 -143c-37 -28 -92 -43 -159 -43c-83 0 -151 21 -189 66
c-30 34 -43 76 -44 161c-1 73 -1 309 -2 358c-1 21 -5 30 -21 31l-55 6v28c39 0 91 -4 134 -4c39 0 93 4 132 4l2 -28l-54 -6c-14 -1 -20 -8 -21 -25c-7 -75 -9 -278 -2 -388c4 -68 17 -93 40 -116c25 -27 74 -42 116 -42zM340 823l24 4c14 -26 59 -81 128 -122l-15 -25
c-39 13 -93 39 -125 58c-35 -19 -87 -45 -126 -58l-15 25c74 47 111 92 129 118z" />
    <glyph glyph-name="Udieresis" unicode="&#xdc;" horiz-adv-x="663" 
d="M367 29h1c87 0 153 29 163 172c9 131 4 290 0 358c-3 37 -18 40 -43 42l-50 5l-3 28c33 0 73 -4 107 -4c36 0 73 4 110 4l4 -28l-38 -4c-28 -2 -34 -12 -35 -38c-6 -137 -6 -311 -16 -394c-10 -70 -35 -112 -77 -143c-37 -28 -92 -43 -159 -43c-83 0 -151 21 -189 66
c-30 34 -43 76 -44 161c-1 73 -1 309 -2 358c-1 21 -5 30 -21 31l-55 6v28c39 0 91 -4 134 -4c39 0 93 4 132 4l2 -28l-54 -6c-14 -1 -20 -8 -21 -25c-7 -75 -9 -278 -2 -388c4 -68 17 -93 40 -116c25 -27 74 -42 116 -42zM259 799h1c32 0 51 -24 51 -52
c0 -37 -29 -58 -55 -58c-24 0 -50 16 -50 53c0 34 22 57 53 57zM445 799h1c31 0 51 -24 51 -52c0 -37 -28 -58 -54 -58c-25 0 -51 16 -51 53c0 34 22 57 53 57z" />
    <glyph glyph-name="Ugrave" unicode="&#xd9;" horiz-adv-x="663" 
d="M367 29h1c87 0 153 29 163 172c9 131 4 290 0 358c-3 37 -18 40 -43 42l-50 5l-3 28c33 0 73 -4 107 -4c36 0 73 4 110 4l4 -28l-38 -4c-28 -2 -34 -12 -35 -38c-6 -137 -6 -311 -16 -394c-10 -70 -35 -112 -77 -143c-37 -28 -92 -43 -159 -43c-83 0 -151 21 -189 66
c-30 34 -43 76 -44 161c-1 73 -1 309 -2 358c-1 21 -5 30 -21 31l-55 6v28c39 0 91 -4 134 -4c39 0 93 4 132 4l2 -28l-54 -6c-14 -1 -20 -8 -21 -25c-7 -75 -9 -278 -2 -388c4 -68 17 -93 40 -116c25 -27 74 -42 116 -42zM405 704l-14 -21c-63 20 -132 44 -149 50
c-19 7 -41 26 -43 48c-3 25 15 40 35 42c16 2 34 -3 50 -14c16 -12 98 -86 121 -105z" />
    <glyph glyph-name="Yacute" unicode="&#xdd;" horiz-adv-x="561" 
d="M440 26l4 -29c-62 1 -113 3 -168 3s-100 -3 -149 -3l-3 29c23 2 47 5 68 8c25 2 34 11 36 34c3 35 5 134 5 190c0 18 -4 31 -12 49c-20 43 -103 187 -143 250c-26 40 -40 46 -95 47l-1 29c20 0 77 -3 124 -3c59 0 103 3 138 3l3 -29l-44 -4c-15 -1 -16 -8 -9 -22
c21 -46 90 -172 131 -250c67 121 103 195 122 240c9 22 6 29 -9 30c-17 3 -35 5 -55 6l3 29c23 0 68 -3 104 -3c33 0 65 3 99 3l3 -29c-58 -3 -73 -10 -99 -48c-35 -53 -100 -170 -138 -242c-9 -17 -12 -32 -12 -49c-1 -57 -1 -166 3 -210c2 -13 6 -20 24 -22
c15 -1 38 -4 70 -7zM246 683l-15 22c28 20 117 92 139 108c16 11 36 17 52 14c20 -2 34 -16 30 -40c-3 -23 -26 -41 -49 -49c-25 -10 -78 -28 -157 -55z" />
    <glyph glyph-name="Ydieresis" unicode="&#x178;" horiz-adv-x="561" 
d="M440 26l4 -29c-62 1 -113 3 -168 3s-100 -3 -149 -3l-3 29c23 2 47 5 68 8c25 2 34 11 36 34c3 35 5 134 5 190c0 18 -4 31 -12 49c-20 43 -103 187 -143 250c-26 40 -40 46 -95 47l-1 29c20 0 77 -3 124 -3c59 0 103 3 138 3l3 -29l-44 -4c-15 -1 -16 -8 -9 -22
c21 -46 90 -172 131 -250c67 121 103 195 122 240c9 22 6 29 -9 30c-17 3 -35 5 -55 6l3 29c23 0 68 -3 104 -3c33 0 65 3 99 3l3 -29c-58 -3 -73 -10 -99 -48c-35 -53 -100 -170 -138 -242c-9 -17 -12 -32 -12 -49c-1 -57 -1 -166 3 -210c2 -13 6 -20 24 -22
c15 -1 38 -4 70 -7zM207 800h1c32 0 51 -24 51 -52c0 -37 -29 -58 -55 -58c-24 0 -50 16 -50 53c0 34 22 57 53 57zM393 800h1c31 0 51 -24 51 -52c0 -37 -28 -58 -54 -58c-25 0 -51 16 -51 53c0 34 22 57 53 57z" />
    <glyph glyph-name="Zcaron" unicode="&#x17d;" horiz-adv-x="603" 
d="M282 630h33h135c36 0 69 2 101 3c-11 -40 -18 -50 -24 -61c-25 -39 -68 -109 -158 -245c-95 -147 -147 -225 -189 -295c275 -2 292 5 319 50c20 33 34 78 47 128l26 -8c-5 -41 -18 -124 -20 -208c-29 3 -65 4 -105 5s-81 1 -127 1h-189c-45 0 -59 0 -91 -3l-8 18
c90 133 294 434 382 583h-115c-140 0 -164 -16 -183 -59c-14 -31 -23 -68 -34 -112l-26 7c13 69 18 158 14 204c18 -5 38 -7 68 -8h144zM316 684l-24 -4c-14 26 -58 80 -128 123l15 25c39 -13 93 -39 126 -59c34 20 87 46 125 59l15 -25c-75 -48 -111 -93 -129 -119z" />
    <glyph glyph-name="aacute" unicode="&#xe1;" horiz-adv-x="487" 
d="M304 289v39c0 44 -20 83 -74 83c-55 0 -80 -29 -80 -71c0 -11 2 -22 3 -30c2 -9 -2 -18 -9 -22c-9 -7 -23 -12 -37 -12c-24 0 -48 13 -48 47c0 53 75 118 188 118c88 0 126 -36 140 -58c8 -13 14 -34 14 -52v-252c0 -36 11 -43 23 -43c15 0 31 21 41 62l26 -11
c-14 -74 -55 -101 -106 -101c-53 0 -75 30 -81 73c-44 -47 -95 -73 -143 -73c-78 0 -123 52 -123 124c0 42 17 75 56 91c70 29 169 59 210 88zM146 127v-1c0 -45 23 -84 67 -84s70 27 85 61c4 11 6 27 6 42v111c-25 -14 -75 -35 -109 -54c-29 -15 -49 -31 -49 -75zM216 486
l-21 16c20 30 77 129 94 154c16 24 35 35 55 35c19 0 30 -15 30 -36c0 -19 -16 -42 -32 -57c-22 -21 -67 -58 -126 -112z" />
    <glyph glyph-name="acircumflex" unicode="&#xe2;" horiz-adv-x="487" 
d="M304 289v39c0 44 -20 83 -74 83c-55 0 -80 -29 -80 -71c0 -11 2 -22 3 -30c2 -9 -2 -18 -9 -22c-9 -7 -23 -12 -37 -12c-24 0 -48 13 -48 47c0 53 75 118 188 118c88 0 126 -36 140 -58c8 -13 14 -34 14 -52v-252c0 -36 11 -43 23 -43c15 0 31 21 41 62l26 -11
c-14 -74 -55 -101 -106 -101c-53 0 -75 30 -81 73c-44 -47 -95 -73 -143 -73c-78 0 -123 52 -123 124c0 42 17 75 56 91c70 29 169 59 210 88zM146 127v-1c0 -45 23 -84 67 -84s70 27 85 61c4 11 6 27 6 42v111c-25 -14 -75 -35 -109 -54c-29 -15 -49 -31 -49 -75zM233 685
l24 6c13 -34 46 -103 110 -188l-21 -19c-27 24 -74 70 -102 105c-28 -35 -73 -80 -101 -105l-21 19c66 86 98 153 111 182z" />
    <glyph glyph-name="adieresis" unicode="&#xe4;" horiz-adv-x="487" 
d="M304 289v39c0 44 -20 83 -74 83c-55 0 -80 -29 -80 -71c0 -11 2 -22 3 -30c2 -9 -2 -18 -9 -22c-9 -7 -23 -12 -37 -12c-24 0 -48 13 -48 47c0 53 75 118 188 118c88 0 126 -36 140 -58c8 -13 14 -34 14 -52v-252c0 -36 11 -43 23 -43c15 0 31 21 41 62l26 -11
c-14 -74 -55 -101 -106 -101c-53 0 -75 30 -81 73c-44 -47 -95 -73 -143 -73c-78 0 -123 52 -123 124c0 42 17 75 56 91c70 29 169 59 210 88zM146 127v-1c0 -45 23 -84 67 -84s70 27 85 61c4 11 6 27 6 42v111c-25 -14 -75 -35 -109 -54c-29 -15 -49 -31 -49 -75zM158 633
h1c32 0 50 -22 50 -54c0 -35 -27 -56 -54 -56c-25 0 -50 17 -50 53c0 34 23 57 53 57zM334 633h1c32 0 50 -22 50 -53c0 -36 -27 -57 -54 -57c-25 0 -50 17 -50 53c0 34 23 57 53 57z" />
    <glyph glyph-name="agrave" unicode="&#xe0;" horiz-adv-x="487" 
d="M304 289v39c0 44 -20 83 -74 83c-55 0 -80 -29 -80 -71c0 -11 2 -22 3 -30c2 -9 -2 -18 -9 -22c-9 -7 -23 -12 -37 -12c-24 0 -48 13 -48 47c0 53 75 118 188 118c88 0 126 -36 140 -58c8 -13 14 -34 14 -52v-252c0 -36 11 -43 23 -43c15 0 31 21 41 62l26 -11
c-14 -74 -55 -101 -106 -101c-53 0 -75 30 -81 73c-44 -47 -95 -73 -143 -73c-78 0 -123 52 -123 124c0 42 17 75 56 91c70 29 169 59 210 88zM146 127v-1c0 -45 23 -84 67 -84s70 27 85 61c4 11 6 27 6 42v111c-25 -14 -75 -35 -109 -54c-29 -15 -49 -31 -49 -75zM283 500
l-21 -15c-51 51 -103 101 -118 115c-12 13 -22 35 -22 50c0 27 17 40 34 40c21 0 40 -15 51 -36c14 -27 60 -124 76 -154z" />
    <glyph glyph-name="aring" unicode="&#xe5;" horiz-adv-x="487" 
d="M304 289v39c0 44 -20 83 -74 83c-55 0 -80 -29 -80 -71c0 -11 2 -22 3 -30c2 -9 -2 -18 -9 -22c-9 -7 -23 -12 -37 -12c-24 0 -48 13 -48 47c0 53 75 118 188 118c88 0 126 -36 140 -58c8 -13 14 -34 14 -52v-252c0 -36 11 -43 23 -43c15 0 31 21 41 62l26 -11
c-14 -74 -55 -101 -106 -101c-53 0 -75 30 -81 73c-44 -47 -95 -73 -143 -73c-78 0 -123 52 -123 124c0 42 17 75 56 91c70 29 169 59 210 88zM146 127v-1c0 -45 23 -84 67 -84s70 27 85 61c4 11 6 27 6 42v111c-25 -14 -75 -35 -109 -54c-29 -15 -49 -31 -49 -75zM247 676
h1c54 0 93 -30 93 -87c0 -59 -45 -92 -99 -92s-95 30 -95 86c0 60 43 93 100 93zM245 650h-1c-33 0 -41 -37 -41 -62c0 -44 18 -64 42 -64c36 0 40 41 40 65c0 25 -8 61 -40 61z" />
    <glyph glyph-name="atilde" unicode="&#xe3;" horiz-adv-x="487" 
d="M304 289v39c0 44 -20 83 -74 83c-55 0 -80 -29 -80 -71c0 -11 2 -22 3 -30c2 -9 -2 -18 -9 -22c-9 -7 -23 -12 -37 -12c-24 0 -48 13 -48 47c0 53 75 118 188 118c88 0 126 -36 140 -58c8 -13 14 -34 14 -52v-252c0 -36 11 -43 23 -43c15 0 31 21 41 62l26 -11
c-14 -74 -55 -101 -106 -101c-53 0 -75 30 -81 73c-44 -47 -95 -73 -143 -73c-78 0 -123 52 -123 124c0 42 17 75 56 91c70 29 169 59 210 88zM146 127v-1c0 -45 23 -84 67 -84s70 27 85 61c4 11 6 27 6 42v111c-25 -14 -75 -35 -109 -54c-29 -15 -49 -31 -49 -75zM149 508
l-31 4c2 58 22 120 80 120c19 0 37 -9 64 -32c23 -21 36 -29 45 -29c16 0 29 17 32 63l30 -6c-1 -65 -20 -120 -74 -120c-22 0 -40 11 -69 37c-17 14 -26 24 -42 24c-18 0 -32 -22 -35 -61z" />
    <glyph glyph-name="ccedilla" unicode="&#xe7;" horiz-adv-x="456" 
d="M274 -13c-6 -10 -14 -22 -22 -34c31 -6 72 -25 72 -76s-38 -86 -96 -86c-30 0 -55 13 -63 19l10 29c12 -7 31 -12 46 -12c24 0 40 12 40 34c0 26 -28 39 -66 39l-5 11c15 21 32 46 51 75c-67 1 -119 19 -158 65c-31 36 -46 93 -46 155c0 130 82 235 230 235
c92 0 158 -43 158 -110c0 -38 -28 -55 -56 -55c-10 0 -21 3 -28 8c-6 4 -10 13 -9 21c2 11 5 22 5 34c0 44 -21 72 -73 72c-78 0 -117 -85 -117 -191c0 -50 9 -95 27 -126c23 -40 59 -60 104 -60c66 0 100 32 128 103l26 -15c-23 -74 -71 -126 -158 -135z" />
    <glyph glyph-name="eacute" unicode="&#xe9;" horiz-adv-x="458" 
d="M425 117c-32 -92 -97 -131 -183 -131c-79 0 -129 25 -162 68c-28 35 -43 92 -43 151c0 125 71 236 214 236c149 0 176 -116 175 -174c0 -20 -6 -34 -20 -40c-17 -8 -64 -13 -129 -14c-34 0 -87 -1 -131 0c-2 -51 11 -98 29 -126c21 -34 53 -53 98 -53c60 0 98 29 125 97z
M246 411h-1c-64 0 -94 -82 -97 -166h77c43 0 68 3 83 6c13 3 20 14 20 36c0 51 -19 124 -82 124zM214 486l-21 16c20 30 77 129 94 154c16 24 35 35 55 35c19 0 30 -15 30 -36c0 -19 -16 -42 -32 -57c-22 -21 -67 -58 -126 -112z" />
    <glyph glyph-name="ecircumflex" unicode="&#xea;" horiz-adv-x="458" 
d="M425 117c-32 -92 -97 -131 -183 -131c-79 0 -129 25 -162 68c-28 35 -43 92 -43 151c0 125 71 236 214 236c149 0 176 -116 175 -174c0 -20 -6 -34 -20 -40c-17 -8 -64 -13 -129 -14c-34 0 -87 -1 -131 0c-2 -51 11 -98 29 -126c21 -34 53 -53 98 -53c60 0 98 29 125 97z
M246 411h-1c-64 0 -94 -82 -97 -166h77c43 0 68 3 83 6c13 3 20 14 20 36c0 51 -19 124 -82 124zM232 685l24 6c13 -34 46 -103 110 -188l-21 -19c-27 24 -74 70 -102 105c-28 -35 -73 -80 -101 -105l-21 19c66 86 98 153 111 182z" />
    <glyph glyph-name="edieresis" unicode="&#xeb;" horiz-adv-x="458" 
d="M425 117c-32 -92 -97 -131 -183 -131c-79 0 -129 25 -162 68c-28 35 -43 92 -43 151c0 125 71 236 214 236c149 0 176 -116 175 -174c0 -20 -6 -34 -20 -40c-17 -8 -64 -13 -129 -14c-34 0 -87 -1 -131 0c-2 -51 11 -98 29 -126c21 -34 53 -53 98 -53c60 0 98 29 125 97z
M246 411h-1c-64 0 -94 -82 -97 -166h77c43 0 68 3 83 6c13 3 20 14 20 36c0 51 -19 124 -82 124zM154 633h1c32 0 50 -22 50 -54c0 -35 -27 -56 -54 -56c-25 0 -50 17 -50 53c0 34 23 57 53 57zM330 633h1c32 0 50 -22 50 -53c0 -36 -27 -57 -54 -57c-25 0 -50 17 -50 53
c0 34 23 57 53 57z" />
    <glyph glyph-name="egrave" unicode="&#xe8;" horiz-adv-x="458" 
d="M425 117c-32 -92 -97 -131 -183 -131c-79 0 -129 25 -162 68c-28 35 -43 92 -43 151c0 125 71 236 214 236c149 0 176 -116 175 -174c0 -20 -6 -34 -20 -40c-17 -8 -64 -13 -129 -14c-34 0 -87 -1 -131 0c-2 -51 11 -98 29 -126c21 -34 53 -53 98 -53c60 0 98 29 125 97z
M246 411h-1c-64 0 -94 -82 -97 -166h77c43 0 68 3 83 6c13 3 20 14 20 36c0 51 -19 124 -82 124zM280 500l-21 -15c-51 51 -103 101 -118 115c-12 13 -22 35 -22 50c0 27 17 40 34 40c21 0 40 -15 51 -36c14 -27 60 -124 76 -154z" />
    <glyph glyph-name="iacute" unicode="&#xed;" horiz-adv-x="274" 
d="M254 26l-1 -29c-31 0 -68 3 -119 3c-53 0 -82 -3 -112 -3l1 29c57 2 64 9 65 27c2 20 4 61 4 123v100c0 52 -1 89 -2 104c-1 14 -12 17 -64 15l2 28c50 3 118 7 167 17c-1 -24 -3 -73 -3 -152v-123c0 -61 1 -89 3 -111c1 -22 10 -25 59 -28zM113 486l-21 16
c20 30 77 129 94 154c16 24 35 35 55 35c19 0 30 -15 30 -36c0 -19 -16 -42 -32 -57c-22 -21 -67 -58 -126 -112z" />
    <glyph glyph-name="icircumflex" unicode="&#xee;" horiz-adv-x="274" 
d="M254 26l-1 -29c-31 0 -68 3 -119 3c-53 0 -82 -3 -112 -3l1 29c57 2 64 9 65 27c2 20 4 61 4 123v100c0 52 -1 89 -2 104c-1 14 -12 17 -64 15l2 28c50 3 118 7 167 17c-1 -24 -3 -73 -3 -152v-123c0 -61 1 -89 3 -111c1 -22 10 -25 59 -28zM124 685l24 6
c13 -34 46 -103 110 -188l-21 -19c-27 24 -74 70 -102 105c-28 -35 -73 -80 -101 -105l-21 19c66 86 98 153 111 182z" />
    <glyph glyph-name="idieresis" unicode="&#xef;" horiz-adv-x="274" 
d="M254 26l-1 -29c-31 0 -68 3 -119 3c-53 0 -82 -3 -112 -3l1 29c57 2 64 9 65 27c2 20 4 61 4 123v100c0 52 -1 89 -2 104c-1 14 -12 17 -64 15l2 28c50 3 118 7 167 17c-1 -24 -3 -73 -3 -152v-123c0 -61 1 -89 3 -111c1 -22 10 -25 59 -28zM51 633h1c32 0 50 -22 50 -54
c0 -35 -27 -56 -54 -56c-25 0 -50 17 -50 53c0 34 23 57 53 57zM227 633h1c32 0 50 -22 50 -53c0 -36 -27 -57 -54 -57c-25 0 -50 17 -50 53c0 34 23 57 53 57z" />
    <glyph glyph-name="igrave" unicode="&#xec;" horiz-adv-x="274" 
d="M254 26l-1 -29c-31 0 -68 3 -119 3c-53 0 -82 -3 -112 -3l1 29c57 2 64 9 65 27c2 20 4 61 4 123v100c0 52 -1 89 -2 104c-1 14 -12 17 -64 15l2 28c50 3 118 7 167 17c-1 -24 -3 -73 -3 -152v-123c0 -61 1 -89 3 -111c1 -22 10 -25 59 -28zM174 500l-21 -15
c-51 51 -103 101 -118 115c-12 13 -22 35 -22 50c0 27 17 40 34 40c21 0 40 -15 51 -36c14 -27 60 -124 76 -154z" />
    <glyph glyph-name="ntilde" unicode="&#xf1;" horiz-adv-x="558" 
d="M28 -3v29c51 2 59 5 61 30c2 30 3 65 3 112v90c0 52 -1 94 -3 120c0 13 -7 15 -58 16l2 28c50 0 104 5 153 15c3 -19 6 -57 7 -72c35 34 83 76 154 76c66 0 100 -30 116 -60c9 -17 13 -38 13 -62v-266c0 -22 5 -23 64 -27l-2 -29c-34 0 -72 3 -117 3
c-48 0 -81 -3 -105 -3l1 29c44 2 53 8 55 27c2 21 4 64 4 143c1 128 -1 140 -10 156c-11 23 -30 36 -62 36c-45 0 -79 -23 -101 -61c-9 -14 -11 -27 -11 -49v-120c0 -40 0 -82 2 -105c2 -20 10 -25 59 -27l-2 -29c-25 0 -76 3 -114 3c-43 0 -79 -3 -109 -3zM184 508l-31 4
c2 58 22 120 80 120c19 0 37 -9 64 -32c23 -21 36 -29 45 -29c16 0 29 17 32 63l30 -6c-1 -65 -20 -120 -74 -120c-22 0 -40 11 -69 37c-17 14 -26 24 -42 24c-18 0 -32 -22 -35 -61z" />
    <glyph glyph-name="oacute" unicode="&#xf3;" horiz-adv-x="521" 
d="M265 441h1c134 0 218 -91 218 -224c0 -140 -85 -231 -225 -231c-150 0 -222 96 -222 223c0 128 81 232 228 232zM260 410h-1c-38 0 -63 -18 -81 -47c-17 -29 -28 -79 -28 -137c0 -62 11 -117 28 -151c20 -38 51 -58 89 -58c37 0 63 16 81 51c15 30 24 78 24 139
c0 64 -11 118 -28 149c-17 32 -44 54 -84 54zM236 486l-21 16c20 30 77 129 94 154c16 24 35 35 55 35c19 0 30 -15 30 -36c0 -19 -16 -42 -32 -57c-22 -21 -67 -58 -126 -112z" />
    <glyph glyph-name="ocircumflex" unicode="&#xf4;" horiz-adv-x="521" 
d="M265 441h1c134 0 218 -91 218 -224c0 -140 -85 -231 -225 -231c-150 0 -222 96 -222 223c0 128 81 232 228 232zM260 410h-1c-38 0 -63 -18 -81 -47c-17 -29 -28 -79 -28 -137c0 -62 11 -117 28 -151c20 -38 51 -58 89 -58c37 0 63 16 81 51c15 30 24 78 24 139
c0 64 -11 118 -28 149c-17 32 -44 54 -84 54zM258 685l24 6c13 -34 46 -103 110 -188l-21 -19c-27 24 -74 70 -102 105c-28 -35 -73 -80 -101 -105l-21 19c66 86 98 153 111 182z" />
    <glyph glyph-name="odieresis" unicode="&#xf6;" horiz-adv-x="521" 
d="M265 441h1c134 0 218 -91 218 -224c0 -140 -85 -231 -225 -231c-150 0 -222 96 -222 223c0 128 81 232 228 232zM260 410h-1c-38 0 -63 -18 -81 -47c-17 -29 -28 -79 -28 -137c0 -62 11 -117 28 -151c20 -38 51 -58 89 -58c37 0 63 16 81 51c15 30 24 78 24 139
c0 64 -11 118 -28 149c-17 32 -44 54 -84 54zM173 633h1c32 0 50 -22 50 -54c0 -35 -27 -56 -54 -56c-25 0 -50 17 -50 53c0 34 23 57 53 57zM349 633h1c32 0 50 -22 50 -53c0 -36 -27 -57 -54 -57c-25 0 -50 17 -50 53c0 34 23 57 53 57z" />
    <glyph glyph-name="ograve" unicode="&#xf2;" horiz-adv-x="521" 
d="M265 441h1c134 0 218 -91 218 -224c0 -140 -85 -231 -225 -231c-150 0 -222 96 -222 223c0 128 81 232 228 232zM260 410h-1c-38 0 -63 -18 -81 -47c-17 -29 -28 -79 -28 -137c0 -62 11 -117 28 -151c20 -38 51 -58 89 -58c37 0 63 16 81 51c15 30 24 78 24 139
c0 64 -11 118 -28 149c-17 32 -44 54 -84 54zM303 500l-21 -15c-51 51 -103 101 -118 115c-12 13 -22 35 -22 50c0 27 17 40 34 40c21 0 40 -15 51 -36c14 -27 60 -124 76 -154z" />
    <glyph glyph-name="otilde" unicode="&#xf5;" horiz-adv-x="521" 
d="M265 441h1c134 0 218 -91 218 -224c0 -140 -85 -231 -225 -231c-150 0 -222 96 -222 223c0 128 81 232 228 232zM260 410h-1c-38 0 -63 -18 -81 -47c-17 -29 -28 -79 -28 -137c0 -62 11 -117 28 -151c20 -38 51 -58 89 -58c37 0 63 16 81 51c15 30 24 78 24 139
c0 64 -11 118 -28 149c-17 32 -44 54 -84 54zM165 508l-31 4c2 58 22 120 80 120c19 0 37 -9 64 -32c23 -21 36 -29 45 -29c16 0 29 17 32 63l30 -6c-1 -65 -20 -120 -74 -120c-22 0 -40 11 -69 37c-17 14 -26 24 -42 24c-18 0 -32 -22 -35 -61z" />
    <glyph glyph-name="scaron" unicode="&#x161;" horiz-adv-x="405" 
d="M338 287l-27 -6c-5 73 -48 129 -112 129c-44 0 -71 -27 -71 -67c0 -28 14 -44 36 -55c31 -16 99 -39 137 -57c50 -22 70 -57 70 -102c0 -102 -95 -143 -183 -143c-55 0 -113 16 -142 28c1 25 3 91 1 148l26 3c2 -21 7 -53 20 -79c19 -45 59 -68 109 -68c54 0 85 28 85 70
c0 22 -10 41 -35 53c-32 16 -84 37 -119 52c-52 22 -81 57 -81 111c0 87 69 137 155 137c41 0 82 -13 98 -27l12 35l27 -8c-8 -53 -8 -113 -6 -154zM219 491l-25 -6c-12 33 -45 102 -109 187l21 19c28 -23 75 -71 102 -105c28 36 73 80 101 105l21 -19
c-66 -85 -98 -153 -111 -181z" />
    <glyph glyph-name="uacute" unicode="&#xfa;" horiz-adv-x="548" 
d="M297 399l-2 28c33 0 74 2 106 3c32 2 57 4 68 5c-2 -28 -4 -80 -4 -145v-117c0 -58 1 -97 4 -124c2 -19 7 -22 68 -21l-2 -28c-25 -1 -57 -3 -92 -6c-31 -2 -59 -6 -77 -9c-1 26 -2 66 -2 92c-30 -39 -93 -91 -176 -91c-61 0 -89 26 -99 46c-8 15 -12 35 -12 59
c1 55 3 145 3 211c0 44 -1 67 -2 82s-12 16 -61 16l3 28c32 0 68 1 98 4c29 2 52 4 69 6c-4 -26 -8 -83 -8 -201c0 -89 0 -142 6 -165c4 -22 21 -36 49 -36c55 0 100 41 121 91c8 22 10 38 10 59v100c0 46 -1 75 -3 95c-2 16 -13 17 -65 18zM245 486l-21 16
c20 30 77 129 94 154c16 24 35 35 55 35c19 0 30 -15 30 -36c0 -19 -16 -42 -32 -57c-22 -21 -67 -58 -126 -112z" />
    <glyph glyph-name="ucircumflex" unicode="&#xfb;" horiz-adv-x="548" 
d="M297 399l-2 28c33 0 74 2 106 3c32 2 57 4 68 5c-2 -28 -4 -80 -4 -145v-117c0 -58 1 -97 4 -124c2 -19 7 -22 68 -21l-2 -28c-25 -1 -57 -3 -92 -6c-31 -2 -59 -6 -77 -9c-1 26 -2 66 -2 92c-30 -39 -93 -91 -176 -91c-61 0 -89 26 -99 46c-8 15 -12 35 -12 59
c1 55 3 145 3 211c0 44 -1 67 -2 82s-12 16 -61 16l3 28c32 0 68 1 98 4c29 2 52 4 69 6c-4 -26 -8 -83 -8 -201c0 -89 0 -142 6 -165c4 -22 21 -36 49 -36c55 0 100 41 121 91c8 22 10 38 10 59v100c0 46 -1 75 -3 95c-2 16 -13 17 -65 18zM259 685l24 6
c13 -34 46 -103 110 -188l-21 -19c-27 24 -74 70 -102 105c-28 -35 -73 -80 -101 -105l-21 19c66 86 98 153 111 182z" />
    <glyph glyph-name="udieresis" unicode="&#xfc;" horiz-adv-x="548" 
d="M297 399l-2 28c33 0 74 2 106 3c32 2 57 4 68 5c-2 -28 -4 -80 -4 -145v-117c0 -58 1 -97 4 -124c2 -19 7 -22 68 -21l-2 -28c-25 -1 -57 -3 -92 -6c-31 -2 -59 -6 -77 -9c-1 26 -2 66 -2 92c-30 -39 -93 -91 -176 -91c-61 0 -89 26 -99 46c-8 15 -12 35 -12 59
c1 55 3 145 3 211c0 44 -1 67 -2 82s-12 16 -61 16l3 28c32 0 68 1 98 4c29 2 52 4 69 6c-4 -26 -8 -83 -8 -201c0 -89 0 -142 6 -165c4 -22 21 -36 49 -36c55 0 100 41 121 91c8 22 10 38 10 59v100c0 46 -1 75 -3 95c-2 16 -13 17 -65 18zM185 633h1c32 0 50 -22 50 -54
c0 -35 -27 -56 -54 -56c-25 0 -50 17 -50 53c0 34 23 57 53 57zM361 633h1c32 0 50 -22 50 -53c0 -36 -27 -57 -54 -57c-25 0 -50 17 -50 53c0 34 23 57 53 57z" />
    <glyph glyph-name="ugrave" unicode="&#xf9;" horiz-adv-x="548" 
d="M297 399l-2 28c33 0 74 2 106 3c32 2 57 4 68 5c-2 -28 -4 -80 -4 -145v-117c0 -58 1 -97 4 -124c2 -19 7 -22 68 -21l-2 -28c-25 -1 -57 -3 -92 -6c-31 -2 -59 -6 -77 -9c-1 26 -2 66 -2 92c-30 -39 -93 -91 -176 -91c-61 0 -89 26 -99 46c-8 15 -12 35 -12 59
c1 55 3 145 3 211c0 44 -1 67 -2 82s-12 16 -61 16l3 28c32 0 68 1 98 4c29 2 52 4 69 6c-4 -26 -8 -83 -8 -201c0 -89 0 -142 6 -165c4 -22 21 -36 49 -36c55 0 100 41 121 91c8 22 10 38 10 59v100c0 46 -1 75 -3 95c-2 16 -13 17 -65 18zM311 500l-21 -15
c-51 51 -103 101 -118 115c-12 13 -22 35 -22 50c0 27 17 40 34 40c21 0 40 -15 51 -36c14 -27 60 -124 76 -154z" />
    <glyph glyph-name="yacute" unicode="&#xfd;" horiz-adv-x="450" 
d="M-7 401l2 29c28 -1 63 -3 107 -3c40 0 85 2 113 3l4 -29l-34 -4c-16 -2 -18 -8 -14 -23c31 -89 85 -223 102 -270c26 74 65 199 79 257c7 28 1 34 -27 37l-35 3l3 29c24 0 58 -3 87 -3c27 0 59 3 90 3l-1 -29c-43 -2 -55 -10 -75 -58c-37 -90 -105 -284 -153 -423
c-37 -111 -71 -163 -132 -163c-42 0 -68 27 -68 62c0 34 23 52 46 52c16 0 26 -8 30 -19c6 -19 14 -30 29 -30c33 0 64 112 78 157c-8 9 -19 29 -28 51c-45 118 -107 277 -131 329c-15 31 -24 37 -50 40zM224 486l-21 16c20 30 77 129 94 154c16 24 35 35 55 35
c19 0 30 -15 30 -36c0 -19 -16 -42 -32 -57c-22 -21 -67 -58 -126 -112z" />
    <glyph glyph-name="ydieresis" unicode="&#xff;" horiz-adv-x="450" 
d="M-7 401l2 29c28 -1 63 -3 107 -3c40 0 85 2 113 3l4 -29l-34 -4c-16 -2 -18 -8 -14 -23c31 -89 85 -223 102 -270c26 74 65 199 79 257c7 28 1 34 -27 37l-35 3l3 29c24 0 58 -3 87 -3c27 0 59 3 90 3l-1 -29c-43 -2 -55 -10 -75 -58c-37 -90 -105 -284 -153 -423
c-37 -111 -71 -163 -132 -163c-42 0 -68 27 -68 62c0 34 23 52 46 52c16 0 26 -8 30 -19c6 -19 14 -30 29 -30c33 0 64 112 78 157c-8 9 -19 29 -28 51c-45 118 -107 277 -131 329c-15 31 -24 37 -50 40zM160 633h1c32 0 50 -22 50 -54c0 -35 -27 -56 -54 -56
c-25 0 -50 17 -50 53c0 34 23 57 53 57zM336 633h1c32 0 50 -22 50 -53c0 -36 -27 -57 -54 -57c-25 0 -50 17 -50 53c0 34 23 57 53 57z" />
    <glyph glyph-name="zcaron" unicode="&#x17e;" horiz-adv-x="456" 
d="M78 274l-27 -5c3 41 11 111 10 168c9 -3 23 -6 41 -8c18 -1 42 -2 70 -2h86c73 0 111 2 154 3c-4 -20 -13 -41 -25 -59c-24 -41 -171 -266 -218 -341c72 0 120 3 150 7c41 6 65 32 85 132l26 -7c-8 -46 -15 -122 -17 -167c-32 2 -149 5 -262 5c-59 0 -89 -2 -106 -3
l-12 20c98 123 226 329 250 379c-39 0 -80 0 -117 -4c-39 -4 -54 -11 -66 -43c-10 -25 -16 -51 -22 -75zM253 491l-25 -6c-12 33 -45 102 -109 187l21 19c28 -23 75 -71 102 -105c28 36 73 80 101 105l21 -19c-66 -85 -98 -153 -111 -181z" />
    <glyph glyph-name="twodotenleader" unicode="&#x2025;" horiz-adv-x="555" 
d="M139 124h1c38 0 64 -30 64 -69c0 -41 -29 -69 -65 -69s-65 29 -65 69s29 69 65 69zM419 124h1c38 0 64 -31 64 -69c0 -41 -29 -69 -66 -69c-35 0 -65 29 -65 69s30 69 66 69z" />
    <glyph glyph-name="onedotenleader" unicode="&#x2024;" horiz-adv-x="421" 
d="M211 124h1c38 0 64 -30 64 -69c0 -41 -29 -69 -66 -69c-36 0 -65 29 -65 69s30 69 66 69z" />
    <glyph glyph-name="colonmonetary" unicode="&#x20a1;" horiz-adv-x="488" 
d="M142 305v-1c0 -94 19 -199 70 -236c13 167 29 350 40 517c-92 -28 -110 -188 -110 -280zM361 614c46 -10 99 -41 99 -98c0 -41 -24 -54 -42 -54c-8 0 -16 3 -21 7c-6 5 -10 11 -7 19c3 10 6 21 6 34c0 25 -9 49 -39 60c-14 -173 -27 -363 -40 -538c58 8 100 40 123 115
l24 -12c-21 -88 -83 -128 -150 -140l-6 -87l-33 -9l9 92c-16 -1 -33 0 -48 2c-2 -28 -3 -53 -6 -85l-33 -9l10 99c-133 32 -177 166 -177 290c0 146 71 294 225 318l4 76l33 6l-8 -79c18 1 36 0 48 -2l4 75l33 6zM329 590c-13 3 -30 4 -47 2c-15 -177 -30 -365 -42 -540
c15 -6 34 -10 47 -9c15 176 30 366 42 547z" />
    <glyph glyph-name="figuredash" unicode="&#x2012;" horiz-adv-x="317" 
d="M36 282l12 65c76 -2 148 -2 233 0l-11 -65c-84 2 -158 2 -234 0z" />
    <glyph glyph-name="oneeighth" unicode="&#x215b;" horiz-adv-x="785" 
d="M280 301l1 -26c-49 0 -87 3 -117 3c-37 0 -72 -3 -106 -3l-2 26l50 4c17 2 22 8 23 18c1 18 3 45 3 87v86c0 38 -1 65 -2 84c-1 6 -3 9 -9 8c-10 -2 -37 -6 -61 -11l5 30c42 6 123 19 146 28l4 -2c0 -20 -3 -60 -3 -133v-90c0 -44 1 -66 2 -88c1 -10 8 -15 18 -16z
M574 668l34 -23c-101 -152 -271 -415 -428 -671l-31 26c140 213 326 504 425 668zM589 381h1c54 0 122 -24 122 -87c0 -21 -10 -35 -23 -46c-12 -9 -27 -19 -45 -30c75 -30 89 -57 89 -95c0 -32 -17 -57 -42 -74c-27 -20 -72 -33 -117 -33c-87 0 -143 37 -143 94
c0 24 11 39 27 51c14 11 27 18 54 31c-45 22 -64 47 -64 84c0 25 10 47 26 64c21 22 59 41 115 41zM578 354h-1c-34 0 -62 -20 -62 -50c0 -17 7 -30 26 -42c20 -12 49 -23 77 -32c23 13 36 33 36 58c0 44 -34 66 -76 66zM587 43h1c33 0 72 14 72 54c0 31 -30 51 -120 83
c-24 -11 -43 -30 -43 -61c0 -36 29 -76 90 -76z" />
    <glyph glyph-name="threeeighths" unicode="&#x215c;" horiz-adv-x="785" 
d="M189 634h1c54 0 127 -21 127 -84c0 -31 -19 -48 -40 -60c-19 -9 -37 -15 -63 -22v-3c44 -2 79 -12 99 -28c18 -13 28 -32 28 -59c0 -35 -22 -61 -44 -77c-23 -16 -68 -32 -124 -32c-76 0 -139 32 -139 78c0 21 18 39 43 39c18 1 23 -8 28 -27c10 -42 37 -64 73 -64
c47 0 70 31 70 77c0 39 -18 74 -79 74c-15 0 -30 -2 -42 -5l-15 20l4 7c21 1 47 5 64 13c23 9 51 25 51 66c0 32 -20 60 -58 60c-45 0 -61 -24 -61 -56c0 -7 1 -16 2 -23c1 -10 -11 -18 -27 -18c-24 0 -40 12 -40 37c0 36 50 87 142 87zM591 668l34 -23
c-102 -152 -272 -416 -428 -671l-31 26c140 213 326 505 425 668zM601 381h1c54 0 122 -24 122 -88c0 -20 -10 -35 -23 -45c-12 -10 -27 -19 -45 -30c75 -30 89 -57 89 -95c0 -32 -17 -57 -42 -74c-27 -20 -72 -33 -117 -33c-88 0 -144 37 -144 94c0 23 11 39 27 51
c14 11 27 18 55 31c-45 21 -64 47 -64 84c0 25 10 46 26 63c21 23 59 42 115 42zM590 354h-1c-34 0 -62 -20 -62 -51c0 -17 7 -30 26 -41c20 -12 49 -23 77 -33c23 14 36 34 36 58c0 44 -34 67 -76 67zM599 43h1c33 0 72 14 72 54c0 30 -30 51 -121 83
c-24 -11 -43 -30 -43 -62c0 -35 29 -75 91 -75z" />
    <glyph glyph-name="fiveeighths" unicode="&#x215d;" horiz-adv-x="785" 
d="M79 415l-19 20c17 46 31 172 29 197c20 -6 64 -12 113 -12c69 0 101 5 121 32l14 -13c-10 -34 -33 -59 -54 -69c-18 -9 -48 -14 -87 -14c-33 0 -68 3 -81 5c-5 -26 -12 -71 -21 -99c24 16 64 33 111 33c77 0 137 -30 137 -105c0 -27 -10 -55 -29 -75
c-24 -25 -72 -46 -138 -46c-77 0 -135 31 -135 77c0 20 19 37 44 37c16 0 22 -10 28 -29c11 -40 33 -59 68 -59c49 0 71 36 71 86c0 27 -8 51 -26 64c-13 11 -30 16 -53 16c-48 0 -78 -22 -93 -46zM593 668l33 -23c-101 -152 -271 -416 -428 -671l-31 26
c140 213 326 505 426 668zM601 381h1c54 0 122 -24 122 -87c0 -21 -10 -36 -23 -46c-12 -10 -27 -19 -45 -30c75 -30 89 -57 89 -95c0 -32 -17 -57 -42 -74c-27 -20 -72 -33 -117 -33c-87 0 -143 37 -143 94c0 23 11 39 27 51c14 11 27 18 54 31c-45 21 -64 47 -64 84
c0 25 10 46 26 63c21 23 59 42 115 42zM590 354h-1c-34 0 -62 -20 -62 -51c0 -17 7 -30 26 -41c20 -12 49 -23 77 -33c23 14 36 34 36 59c0 44 -34 66 -76 66zM599 43h1c33 0 72 14 72 54c0 30 -30 51 -120 83c-24 -11 -43 -30 -43 -62c0 -35 29 -75 90 -75z" />
    <glyph glyph-name="seveneighths" unicode="&#x215e;" horiz-adv-x="785" 
d="M80 492l-25 4c15 47 21 121 20 137c14 -4 36 -6 145 -6c97 0 116 0 133 1l3 -5c-6 -22 -15 -47 -29 -68c-69 -101 -119 -192 -118 -282l-7 -4c-19 0 -42 4 -54 9c-9 4 -16 13 -16 22c0 11 2 19 6 29c25 71 118 166 158 231c-21 3 -58 3 -102 3c-78 0 -87 -3 -95 -22
c-7 -14 -14 -29 -19 -49zM553 668l33 -23c-101 -151 -272 -416 -429 -671l-31 26c140 213 328 505 427 668zM582 381h1c54 0 122 -24 122 -87c0 -21 -10 -36 -23 -47c-12 -9 -27 -18 -45 -29c75 -31 89 -57 89 -95c0 -32 -17 -57 -42 -74c-27 -20 -72 -33 -117 -33
c-88 0 -144 37 -144 94c0 23 11 39 27 51c14 11 27 18 55 31c-45 21 -64 46 -64 84c0 25 10 46 26 63c21 23 59 42 115 42zM571 354h-1c-34 0 -62 -20 -62 -51c0 -17 7 -30 26 -41c20 -13 49 -23 77 -33c23 14 36 33 36 59c0 44 -34 66 -76 66zM580 43h1c33 0 72 14 72 54
c0 30 -30 51 -121 83c-24 -11 -43 -30 -43 -62c0 -35 29 -75 91 -75z" />
    <glyph glyph-name="onethird" unicode="&#x2153;" horiz-adv-x="785" 
d="M277 301l1 -26c-49 0 -87 3 -117 3c-37 0 -72 -3 -106 -3l-2 26l50 4c17 2 22 8 23 18c1 18 3 45 3 87v86c0 38 -1 65 -2 84c-1 6 -3 9 -9 8c-10 -2 -37 -6 -61 -11l5 30c42 6 123 19 146 28l4 -2c0 -20 -3 -60 -3 -133v-90c0 -44 1 -65 2 -88c1 -10 8 -15 18 -16z
M572 668l34 -23c-102 -152 -272 -416 -429 -671l-31 26c140 213 327 504 426 668zM591 381h1c55 0 127 -21 127 -84c0 -30 -19 -48 -40 -60c-19 -9 -37 -15 -63 -22v-3c44 -2 79 -12 99 -27c18 -14 28 -33 28 -60c0 -35 -22 -61 -44 -77c-23 -16 -68 -32 -124 -32
c-76 0 -139 32 -139 78c0 21 18 40 43 40c18 0 23 -9 28 -28c10 -42 37 -64 73 -64c47 0 70 31 70 77c0 40 -18 74 -79 74c-15 0 -30 -2 -42 -5l-15 19l4 8c21 1 47 6 64 13c23 9 51 26 51 67c0 31 -20 59 -58 59c-45 0 -61 -24 -61 -55c0 -7 1 -16 2 -23
c1 -11 -11 -19 -27 -19c-24 0 -40 13 -40 37c0 36 50 87 142 87z" />
    <glyph glyph-name="twothirds" unicode="&#x2154;" horiz-adv-x="785" 
d="M316 400l24 -8c-18 -64 -24 -101 -26 -118c-16 1 -53 3 -200 3c-35 0 -62 0 -85 -2l-2 6c4 12 12 30 17 43c90 48 148 102 166 148c9 21 12 39 12 64c0 34 -14 71 -57 71s-58 -27 -58 -65c0 -8 2 -20 3 -28c2 -7 -1 -13 -7 -17c-6 -5 -17 -9 -27 -9c-26 0 -41 17 -41 45
c0 24 16 50 41 69c24 18 61 32 104 32c38 0 69 -10 89 -23c29 -19 43 -49 43 -85c0 -33 -12 -59 -40 -83c-24 -21 -78 -59 -151 -105c100 2 145 5 159 6c10 0 14 4 18 11c3 8 13 30 18 45zM601 668l33 -23c-101 -152 -271 -416 -428 -671l-31 26c140 213 327 504 426 668z
M602 381h1c53 0 126 -21 126 -84c0 -31 -19 -48 -40 -60c-19 -9 -37 -15 -63 -22v-3c44 -2 79 -12 99 -27c18 -14 28 -33 28 -60c0 -35 -22 -61 -44 -77c-23 -16 -68 -32 -124 -32c-75 0 -138 32 -138 78c0 21 18 40 43 40c18 0 23 -9 28 -28c10 -42 36 -64 73 -64
c46 0 69 31 69 77c0 40 -18 74 -79 74c-15 0 -29 -2 -41 -5l-15 19l4 8c21 1 46 5 63 13c24 9 51 26 51 66c0 32 -19 60 -57 60c-45 0 -61 -24 -61 -55c0 -8 1 -17 2 -23c1 -11 -11 -19 -27 -19c-24 0 -40 12 -40 37c0 36 50 87 142 87z" />
    <glyph glyph-name="uni2014.alt" unicode="&#xf6de;" horiz-adv-x="737" 
d="M48 201l14 61c118 -1 504 -1 626 0l-14 -61c-114 1 -501 1 -626 0z" />
    <glyph glyph-name="R_p" unicode="&#xf6dd;" horiz-adv-x="1037" 
d="M216 423v-92h21c41 0 71 6 93 17c27 12 60 45 60 118c0 37 -8 65 -21 82c-14 18 -37 35 -92 35c-24 0 -35 -2 -44 -4c-8 -1 -12 -6 -13 -15c-1 -10 -4 -46 -4 -141zM30 585l6 27c25 0 77 -1 105 -1c34 0 60 1 88 2c28 0 56 1 93 1c146 0 179 -63 179 -136
c0 -58 -28 -94 -52 -112c-23 -17 -61 -35 -115 -43v-5c115 -17 157 -58 170 -123c8 -35 11 -79 13 -109c4 -47 24 -62 54 -62c14 0 22 1 32 4v204c0 74 -2 112 -4 131c-1 13 -11 18 -66 15l6 26c26 1 125 6 161 14c0 -22 1 -64 2 -80c46 46 93 77 152 77
c49 0 82 -19 103 -45c26 -30 43 -82 43 -145c0 -142 -76 -237 -205 -237c-34 0 -73 10 -96 31c0 -77 -1 -131 3 -187c2 -25 7 -29 80 -31l-5 -27c-30 0 -74 2 -132 2c-30 0 -55 -1 -77 -2c-21 -1 -38 -2 -53 -3l4 28c66 3 76 8 77 27c3 26 6 79 6 172c-23 -6 -51 -9 -83 -9
c-66 0 -114 36 -117 107c-1 37 -4 69 -9 106c-11 85 -71 99 -154 99h-23v-78c0 -92 2 -140 4 -166c1 -25 6 -28 81 -33l-2 -27c-37 0 -93 3 -132 3c-43 0 -95 -3 -134 -3l1 27c67 5 74 9 76 31c2 21 4 66 4 180v156c0 101 -1 149 -3 168c-1 15 -8 22 -35 24zM785 20h1
c87 0 108 106 108 194c0 52 -12 95 -26 117c-13 22 -33 34 -60 34c-44 0 -77 -28 -99 -77c-5 -12 -7 -21 -8 -42c-1 -53 -1 -104 0 -148c0 -15 3 -26 10 -37c19 -28 42 -41 74 -41z" />
    <glyph glyph-name="Q.alt" unicode="&#xe02c;" horiz-adv-x="682" 
d="M1140 -189l13 -24c-56 -75 -159 -119 -269 -119c-111 0 -212 58 -337 154c-55 43 -94 73 -150 111c-53 37 -93 51 -130 59c-103 21 -224 100 -224 313c0 190 106 341 307 341c176 0 288 -128 288 -323c0 -229 -129 -315 -233 -332v-3c45 -14 136 -61 221 -111
c117 -70 241 -125 345 -125c71 0 122 16 169 59zM341 616h-1c-51 0 -94 -23 -125 -75c-25 -43 -45 -121 -45 -223c0 -96 21 -185 50 -231c32 -49 75 -74 130 -74c47 0 87 19 116 67c28 46 45 129 45 236c0 94 -18 175 -44 224c-29 51 -71 76 -126 76z" />
    <glyph glyph-name="longs" unicode="&#x17f;" horiz-adv-x="271" 
d="M26 395l4 31h63v32c0 73 16 128 54 167c31 34 72 53 121 53c73 0 105 -40 105 -77c0 -29 -23 -48 -52 -48c-17 0 -27 11 -27 27c0 36 -10 66 -45 66c-29 0 -44 -24 -51 -68c-5 -39 -5 -105 -5 -163c0 -62 -1 -108 -1 -204c0 -72 1 -123 2 -152c1 -19 7 -26 23 -28
c15 -2 29 -4 44 -5l-3 -29c-31 0 -67 3 -112 3c-42 0 -91 -3 -122 -3l2 29c52 2 61 8 62 25c2 25 4 77 4 150v188z" />
    <glyph glyph-name="c_t" unicode="&#xe042;" horiz-adv-x="794" 
d="M772 425l-4 -31l-131 -6c-1 -35 -3 -79 -3 -155c0 -87 1 -138 5 -167c4 -25 20 -38 43 -38c44 0 68 37 80 84h13l10 -36c-23 -58 -75 -90 -142 -90c-46 0 -77 14 -93 35c-12 16 -17 35 -17 64c-1 77 3 226 4 303l-68 6l5 31h64v79c0 14 -2 22 -8 28c-10 10 -49 19 -78 19
c-82 0 -97 -31 -97 -85c0 -18 4 -33 12 -48c36 -18 57 -49 57 -86c0 -38 -27 -55 -55 -55c-10 0 -20 3 -27 8c-6 4 -10 12 -9 20c2 11 5 22 5 33c0 45 -22 73 -75 73c-77 0 -116 -85 -116 -191c0 -50 9 -95 27 -126c24 -40 58 -60 104 -60c65 0 101 33 128 103l26 -15
c-26 -84 -85 -136 -187 -136c-76 0 -125 21 -162 65c-31 36 -46 93 -46 155c0 130 82 235 230 235c23 0 43 -3 61 -7c-7 11 -11 25 -11 40c0 37 22 113 157 113c14 0 72 -3 81 -6c25 4 70 16 85 22l3 -4c-1 -26 -5 -120 -5 -174h134z" />
    <glyph glyph-name="s_t" unicode="&#xfb06;" horiz-adv-x="736" 
d="M714 425l-4 -31l-131 -6c-1 -35 -3 -79 -3 -155c0 -87 1 -138 5 -166c4 -25 20 -39 43 -39c44 0 68 37 80 84h13l10 -36c-23 -58 -75 -90 -142 -90c-46 0 -77 14 -93 35c-12 16 -17 34 -17 64c-1 77 3 226 4 303l-69 6l5 31h65v80c0 14 -3 22 -8 28c-11 10 -45 19 -76 19
c-81 0 -99 -31 -99 -84c0 -15 3 -29 11 -41c14 -5 26 -10 32 -14c-3 -36 -4 -79 -2 -116l-27 -6c-6 72 -42 119 -110 119c-44 0 -73 -27 -73 -68c0 -28 14 -43 35 -53c31 -17 103 -40 139 -58c50 -22 70 -57 70 -102c0 -102 -96 -143 -185 -143c-53 0 -111 15 -140 28
c1 24 3 90 1 147l26 4c2 -21 7 -53 20 -79c19 -45 58 -68 108 -68c54 0 86 28 86 69c0 24 -11 42 -36 55c-33 15 -87 36 -120 51c-53 22 -81 57 -81 111c0 87 73 137 161 137c23 0 41 -2 59 -6c-8 11 -12 25 -12 40c0 37 28 113 158 113c20 0 68 -3 81 -7c20 5 68 17 84 22
l3 -4c-2 -26 -5 -121 -5 -174h134z" />
    <glyph glyph-name="space_uni0326" unicode="&#xf6c3;" horiz-adv-x="400" 
d="M143 -254l-7 26c51 9 92 36 92 81c0 6 -4 6 -7 3c-8 -5 -23 -8 -32 -8c-27 0 -51 20 -50 54c0 32 28 59 61 59c46 0 73 -38 73 -88c0 -86 -77 -123 -130 -127z" />
    <glyph glyph-name="zero.slash" unicode="&#xf638;" horiz-adv-x="486" 
d="M394 637l-23 -56c68 -63 88 -172 88 -265c-1 -154 -42 -240 -96 -286c-40 -34 -89 -44 -125 -44c-33 0 -67 8 -95 25l-24 -58l-32 14l27 64c-69 62 -87 180 -87 269c1 118 32 227 105 285c35 27 75 40 117 40c36 0 67 -8 94 -24l21 51zM315 541c-16 28 -37 53 -70 53
c-32 0 -55 -15 -74 -52c-23 -45 -39 -136 -39 -232c0 -73 7 -137 23 -186zM332 495l-159 -418c16 -34 40 -59 73 -59s57 19 76 57c20 44 33 121 33 232c0 83 -9 146 -23 188z" />
    <glyph glyph-name="one.fitted" unicode="&#xf6dc;" horiz-adv-x="401" 
d="M367 25l1 -28c-65 0 -127 3 -167 3c-49 0 -105 -3 -156 -3l-5 28l80 8c23 2 31 8 32 24c2 24 4 69 4 143v198c0 73 0 124 -2 155c0 12 -4 15 -12 15c-19 -1 -63 -3 -88 -4l6 29c68 7 175 23 200 32l5 -3c-1 -37 -4 -101 -4 -221v-198c0 -74 1 -113 3 -146
c1 -16 5 -23 23 -25z" />
    <glyph glyph-name="Euro" unicode="&#x20ac;" horiz-adv-x="486" 
d="M182 373l225 1l-12 -36l-215 1c-1 -16 -1 -36 -1 -52l202 1l-10 -36l-191 1c4 -87 29 -221 135 -221c52 0 96 21 128 109l24 -14c-32 -101 -86 -140 -180 -140c-166 0 -210 144 -218 266h-57l10 34h46c0 16 0 36 2 52h-38l10 34h31c17 113 82 252 240 252
c108 0 148 -57 148 -103c0 -38 -21 -58 -48 -58c-8 0 -18 3 -24 8s-8 13 -7 20c3 11 5 21 5 34c0 48 -30 70 -77 70c-98 0 -121 -148 -128 -223z" />
    <glyph glyph-name="a.sc" unicode="&#xf761;" horiz-adv-x="533" 
d="M539 26v-29c-36 1 -77 3 -123 3s-91 -2 -122 -3l-1 29c55 5 58 14 53 31c-9 32 -23 83 -35 119c-15 1 -48 2 -81 2s-68 -1 -80 -2c-15 -47 -27 -87 -33 -110c-6 -28 5 -37 66 -40l1 -29c-31 0 -62 3 -96 3c-25 0 -61 -3 -95 -3v29c49 3 59 9 80 56c29 65 113 307 133 363
c5 15 8 28 11 47c25 1 73 4 96 14c43 -146 122 -380 152 -451c8 -17 18 -23 40 -25zM234 428c-16 -48 -48 -143 -71 -215c12 -1 42 -2 70 -2c27 0 56 1 67 2c-20 67 -50 161 -66 215z" />
    <glyph glyph-name="b.sc" unicode="&#xf762;" horiz-adv-x="540" 
d="M27 -3l-1 28c62 3 71 7 72 22c1 22 3 68 3 127v162c0 45 0 83 -2 110c-1 14 -9 19 -69 22v28c29 0 78 -3 119 -3c51 0 115 4 156 4c73 0 105 -10 131 -30c24 -19 34 -50 34 -80c0 -51 -28 -82 -61 -97c-22 -10 -44 -17 -74 -21v-4c57 -4 97 -15 123 -32
c27 -17 44 -46 44 -91c0 -52 -29 -90 -65 -111c-34 -21 -89 -33 -165 -33c-40 0 -91 2 -123 2c-29 0 -88 -2 -122 -3zM206 349v-72h42c74 0 111 29 111 99c0 23 -6 45 -16 59c-13 18 -36 30 -90 30c-37 0 -44 -5 -45 -15c-1 -20 -2 -62 -2 -101zM206 245v-92
c0 -52 1 -84 3 -106c0 -11 10 -18 45 -18c65 0 95 16 112 40c12 16 20 42 20 73c0 32 -8 59 -27 76c-22 19 -50 28 -110 28c-14 0 -36 -1 -43 -1z" />
    <glyph glyph-name="c.sc" unicode="&#xf763;" horiz-adv-x="540" 
d="M485 310l-29 -1c-5 45 -15 88 -40 119c-22 28 -54 47 -102 47c-38 0 -78 -15 -105 -49c-28 -35 -49 -95 -49 -178c0 -72 21 -139 53 -171c28 -30 65 -47 113 -47c73 0 122 37 155 117l26 -16c-37 -99 -101 -147 -215 -147c-87 0 -147 21 -191 69c-37 41 -60 106 -60 186
c0 89 32 160 81 205c39 37 97 64 183 64c74 0 122 -23 144 -45l16 46l28 -4c-8 -52 -10 -120 -8 -195z" />
    <glyph glyph-name="d.sc" unicode="&#xf764;" horiz-adv-x="594" 
d="M102 194v140c0 59 -1 92 -1 108c-1 13 -6 19 -19 20l-52 6l1 29c21 -1 74 -4 114 -4c55 0 97 4 145 4c86 0 131 -12 168 -34c58 -34 96 -108 96 -204c0 -97 -37 -197 -146 -240c-40 -15 -89 -22 -143 -22c-43 0 -82 2 -121 2c-47 1 -101 -3 -122 -3l2 29l41 3
c23 2 31 8 33 22c1 16 4 83 4 144zM207 325v-135c0 -96 1 -125 2 -142c1 -12 10 -19 45 -19c66 0 110 14 142 53c27 33 43 98 43 175c0 68 -15 127 -41 158c-28 33 -66 50 -141 50c-41 0 -45 -7 -46 -17c-1 -13 -4 -40 -4 -123z" />
    <glyph glyph-name="e.sc" unicode="&#xf765;" horiz-adv-x="508" 
d="M28 467v28c26 0 69 -3 127 -3h152c54 0 110 5 130 9c-3 -22 -4 -100 -2 -152l-29 -2c-4 23 -10 52 -18 73c-13 30 -29 40 -111 40h-52c-11 0 -15 -4 -16 -14c-1 -20 -2 -66 -2 -112v-63c9 -1 30 -1 43 -1c61 0 71 10 82 71h28c-4 -59 -4 -130 -1 -186h-29
c-8 62 -17 81 -80 81c-15 0 -34 0 -43 -1v-60c0 -46 0 -94 2 -124c1 -15 9 -19 70 -19c88 0 111 7 130 34c18 24 31 60 42 96l27 -2c-1 -26 -17 -140 -22 -165c-30 1 -79 5 -196 5h-109c-44 0 -100 -3 -130 -3l1 28l53 6c16 2 23 9 24 28c2 29 3 84 3 131v137
c0 45 -1 88 -2 115c0 14 -3 20 -22 21z" />
    <glyph glyph-name="f.sc" unicode="&#xf766;" horiz-adv-x="488" 
d="M31 467l-2 30c28 0 86 -4 135 -4h127c100 0 139 5 161 8c-6 -61 -4 -130 -3 -157h-29c-3 21 -9 51 -20 76c-10 28 -25 41 -110 41h-64c-10 0 -15 -3 -16 -11c-1 -7 -3 -56 -3 -118v-72c9 -1 37 -1 53 -1c66 0 79 12 88 76l28 -1c-5 -53 -4 -167 0 -194h-28
c-10 65 -16 85 -89 85c-19 0 -43 0 -52 -1v-70c0 -59 1 -85 2 -99s6 -21 21 -22c15 -2 47 -7 69 -7l-2 -29c-35 0 -95 4 -140 4c-41 0 -95 -4 -128 -4l-1 29l46 4c15 2 22 8 24 21c2 18 4 80 4 145v133c0 64 -1 105 -2 115c-1 12 -7 18 -19 19z" />
    <glyph glyph-name="g.sc" unicode="&#xf767;" horiz-adv-x="581" 
d="M490 308l-29 -1c-10 110 -60 168 -146 168c-48 0 -85 -19 -112 -57s-44 -97 -44 -170c0 -67 14 -132 41 -169c32 -44 72 -61 120 -61c46 0 74 17 78 42c3 23 2 73 2 106c0 34 -6 40 -47 43l-47 4l-1 30c29 0 81 -2 125 -2c45 0 87 1 120 4l1 -30c-37 -5 -46 -9 -48 -25
c-2 -20 -2 -56 -2 -79c0 -40 3 -64 6 -82c-21 -5 -49 -15 -81 -25c-37 -11 -82 -19 -123 -19c-99 0 -165 28 -206 76c-35 41 -56 102 -56 181c0 102 45 185 122 229c42 25 91 37 149 37c85 0 131 -31 147 -45l18 44l26 -8c-6 -28 -15 -120 -13 -191z" />
    <glyph glyph-name="h.sc" unicode="&#xf768;" horiz-adv-x="623" 
d="M102 179v154c0 52 0 82 -1 110c-1 20 -10 23 -69 25v29c26 -1 74 -4 117 -4c35 0 72 3 123 4l-1 -29c-53 -1 -61 -7 -62 -26c-2 -20 -2 -60 -2 -99v-66c19 -1 63 -1 108 -1s87 0 101 1v69c0 46 -1 79 -2 101c-1 15 -11 20 -61 21v29c33 -1 78 -4 113 -4c42 0 97 4 123 4
v-29c-55 -2 -65 -7 -66 -30c-1 -22 -2 -57 -2 -100v-166c0 -53 2 -97 3 -120c2 -19 12 -25 70 -26l-3 -29c-32 1 -79 3 -121 3c-43 0 -85 -2 -119 -3v29c55 4 62 10 63 29c2 30 2 63 2 109v76c-15 2 -57 2 -102 2c-43 0 -88 0 -107 -2v-75c0 -67 1 -90 2 -113
c2 -18 12 -22 63 -26v-29c-30 1 -77 3 -124 3c-39 0 -83 -2 -116 -3v29c56 2 66 7 67 25c2 20 3 63 3 128z" />
    <glyph glyph-name="i.sc" unicode="&#xf769;" horiz-adv-x="309" 
d="M102 166v173c0 61 0 80 -1 100c-1 22 -7 26 -66 29v29c23 -1 72 -4 116 -4c51 0 87 4 122 4v-29c-56 -2 -62 -9 -63 -26c-1 -16 -3 -45 -3 -98v-178c0 -58 0 -92 3 -113c1 -20 8 -24 66 -27v-29c-39 1 -87 3 -128 3c-42 0 -84 -3 -116 -3l1 29c57 3 65 7 66 26
c2 18 3 47 3 114z" />
    <glyph glyph-name="j.sc" unicode="&#xf76a;" horiz-adv-x="292" 
d="M25 468l4 29c25 -1 73 -4 118 -4c38 0 94 3 122 4v-29l-33 -3c-22 -2 -26 -7 -28 -21c-2 -16 -3 -113 -3 -295c0 -39 -2 -76 -6 -111c-6 -51 -17 -98 -51 -139c-44 -51 -99 -76 -148 -76c-41 0 -68 23 -68 44c0 22 24 46 41 46c10 0 15 -3 24 -13c16 -21 33 -32 49 -32
c25 0 43 18 48 95c4 64 6 135 6 232v137c0 62 0 90 -2 109c-1 14 -5 20 -19 22c-16 2 -37 4 -54 5z" />
    <glyph glyph-name="k.sc" unicode="&#xf76b;" horiz-adv-x="579" 
d="M102 172v140c0 60 0 105 -1 131c-1 20 -6 22 -65 25l2 29c30 -1 74 -4 116 -4c46 0 91 4 117 4l1 -29c-54 -3 -61 -6 -63 -23c-1 -19 -2 -72 -2 -132v-53c65 15 179 150 199 185c6 10 4 15 -6 16l-51 6l3 28c28 0 69 -1 106 -1s71 2 101 3l1 -28c-57 -4 -75 -11 -95 -28
c-39 -36 -105 -101 -153 -150c45 -69 155 -210 186 -240c15 -15 26 -21 87 -24l-4 -29c-36 2 -66 2 -92 1c-33 -2 -61 -3 -88 -7c-13 23 -122 171 -154 218c-20 25 -28 28 -40 25v-53c0 -64 1 -113 3 -132c1 -17 7 -20 66 -24l-1 -29c-35 0 -77 3 -125 3
c-43 0 -92 -3 -121 -3l1 29c62 5 67 9 69 25c1 16 3 65 3 121z" />
    <glyph glyph-name="l.sc" unicode="&#xf76c;" horiz-adv-x="485" 
d="M434 178l28 -2c-7 -52 -16 -138 -20 -181c-23 2 -60 4 -109 4c-49 1 -110 1 -174 1c-42 0 -110 -3 -138 -3v28l52 5c18 2 25 7 26 20c2 25 4 86 4 150v133c0 68 -1 94 -2 110c0 12 -4 19 -20 20l-48 4l1 29c25 0 72 -3 122 -3c42 0 80 2 130 3l2 -29l-53 -4
c-18 -2 -22 -7 -23 -21c-2 -29 -4 -74 -4 -141v-101c0 -74 0 -129 2 -153c1 -8 8 -15 61 -15c83 0 103 7 122 39c17 27 30 62 41 107z" />
    <glyph glyph-name="m.sc" unicode="&#xf76d;" horiz-adv-x="735" 
d="M367 7l-50 -9c-31 93 -128 328 -176 449h-1c0 -139 3 -293 5 -358c2 -43 6 -55 40 -59l44 -4l-1 -29c-29 0 -66 3 -108 3c-48 0 -74 -3 -99 -3v29c16 1 29 3 41 4c21 3 32 15 35 54c5 65 12 209 10 357c0 4 -1 7 -2 11c-1 5 -8 10 -23 11l-50 3l2 30c51 -2 84 -4 118 -4
c32 0 61 1 77 3c17 -50 107 -251 146 -343c56 128 127 310 138 343c20 -3 37 -3 62 -3c34 0 77 2 124 5l3 -31c-25 -1 -43 -4 -58 -5c-8 0 -11 -7 -12 -17c-1 -14 -1 -38 -1 -80c0 -137 0 -272 4 -309c2 -18 8 -23 24 -25l49 -4l-1 -29c-22 1 -71 3 -124 3
c-39 0 -83 -2 -122 -3l3 29c53 3 59 9 60 32c2 60 8 234 10 394h-3c-66 -172 -134 -358 -164 -445z" />
    <glyph glyph-name="n.sc" unicode="&#xf76e;" horiz-adv-x="593" 
d="M24 467v29c27 0 62 -3 96 -3c31 0 62 0 89 3c8 -14 18 -29 43 -65c23 -33 110 -160 214 -303c1 191 -5 280 -7 303c-4 24 -13 31 -42 34l-42 2l4 29c35 0 63 -3 99 -3c35 0 67 3 101 3v-29c-17 -1 -32 -3 -45 -6c-15 -3 -21 -11 -24 -29c-4 -26 -8 -133 -8 -240v-192
c-29 -1 -61 -6 -74 -10c-67 103 -192 289 -286 423c-1 -174 2 -317 6 -350c3 -19 11 -27 29 -29c16 -3 36 -7 57 -8l-2 -29c-32 0 -73 3 -116 3c-32 0 -72 -3 -98 -3l1 29c16 0 33 3 46 5c21 3 28 14 31 35c3 25 11 180 11 368c-1 6 -5 13 -8 18c-5 5 -11 9 -24 11z" />
    <glyph glyph-name="o.sc" unicode="&#xf76f;" horiz-adv-x="580" 
d="M295 508h1c145 0 243 -101 243 -253c0 -181 -108 -270 -253 -270c-146 0 -245 90 -245 255c0 148 85 268 254 268zM289 476h-1c-40 0 -68 -16 -91 -52s-36 -102 -36 -169c0 -74 16 -148 37 -182c23 -36 57 -55 99 -55c39 0 69 17 91 54c18 30 31 98 31 173
c0 70 -13 143 -37 181c-23 33 -53 50 -93 50z" />
    <glyph glyph-name="p.sc" unicode="&#xf770;" horiz-adv-x="515" 
d="M103 212v119c0 54 -1 97 -2 111s-6 20 -22 21l-49 5l4 29c28 0 78 -4 117 -4c51 0 106 4 141 4c88 0 120 -16 147 -41s43 -66 43 -113c0 -49 -19 -91 -45 -116c-34 -32 -84 -47 -137 -47c-23 0 -48 5 -60 9l2 30c10 -3 29 -5 42 -5c27 0 51 13 64 32c14 21 22 54 22 95
s-11 74 -26 92c-19 22 -45 31 -92 31c-33 0 -40 -6 -41 -14c-3 -21 -4 -79 -4 -147v-81v-86c0 -42 1 -68 2 -82c2 -15 8 -20 30 -23l55 -5l-1 -29c-33 0 -77 3 -140 3c-45 -1 -91 -3 -128 -3l2 29l36 3c28 3 35 6 36 28c2 38 4 86 4 155z" />
    <glyph glyph-name="q.sc" unicode="&#xf771;" horiz-adv-x="581" 
d="M593 -88v-23c-27 -23 -73 -38 -117 -38c-57 0 -106 39 -177 100c-30 26 -56 35 -89 43c-100 25 -169 109 -169 243c0 153 93 271 255 271c148 0 244 -103 244 -259c0 -178 -110 -244 -186 -258v-4c22 -11 71 -35 107 -50c48 -19 93 -28 132 -25zM291 475h-1
c-42 0 -69 -16 -92 -50c-24 -37 -37 -103 -37 -181c0 -66 17 -141 37 -173c22 -35 55 -55 98 -55c39 0 68 15 90 50c20 33 34 101 34 178c0 75 -14 145 -38 182c-23 34 -52 49 -91 49z" />
    <glyph glyph-name="q.scalt" unicode="&#xe0cb;" horiz-adv-x="580" 
d="M1023 -176l12 -24c-53 -68 -147 -109 -249 -109c-101 0 -194 51 -307 139c-52 40 -95 74 -148 111c-48 32 -87 45 -121 54c-97 24 -169 106 -169 242c0 154 93 271 255 271c148 0 244 -103 244 -259c0 -178 -108 -243 -189 -257v-5c48 -13 125 -56 203 -102
c113 -66 222 -115 317 -115c67 0 110 16 152 54zM291 475h-1c-42 0 -69 -16 -92 -49c-24 -38 -37 -101 -37 -182c0 -69 17 -140 37 -172c22 -35 55 -55 98 -55c39 0 68 15 90 50c21 33 34 98 34 177c0 75 -15 145 -38 182c-23 34 -52 49 -91 49z" />
    <glyph glyph-name="r.sc" unicode="&#xf772;" horiz-adv-x="553" 
d="M102 186v128c0 60 -1 113 -2 128c-1 12 -4 18 -24 20l-49 5l5 29c24 0 81 -3 118 -3c59 0 104 3 153 3c140 0 171 -49 171 -118c0 -45 -24 -77 -49 -93c-22 -13 -52 -25 -98 -31v-4c99 -9 138 -44 146 -107c3 -22 5 -45 7 -67c4 -33 13 -54 46 -54c7 0 17 0 25 3l-2 -28
c-10 -4 -39 -8 -62 -8c-80 0 -117 21 -123 95c-1 19 -3 39 -5 60c-5 76 -46 89 -132 89h-20v-55c0 -62 1 -108 2 -128c2 -17 8 -20 72 -25l-2 -29c-31 0 -82 3 -125 3c-50 0 -99 -3 -124 -3v29c60 4 68 8 69 22c1 15 3 68 3 139zM207 343v-77h22c44 0 72 4 93 16
c22 12 39 39 39 88c0 25 -7 50 -16 63c-11 15 -33 30 -82 30c-21 0 -35 -1 -44 -3c-6 -2 -9 -7 -10 -15c0 -10 -2 -40 -2 -102z" />
    <glyph glyph-name="s.sc" unicode="&#xf773;" horiz-adv-x="469" 
d="M52 187l29 5c-2 -134 73 -175 153 -175c60 0 98 30 98 81c0 31 -14 53 -52 70c-36 17 -92 40 -133 58c-65 27 -91 72 -91 126c0 53 20 89 52 116c29 25 72 40 131 40c51 0 97 -16 118 -34l20 43l25 -7c-13 -67 -13 -136 -12 -187h-29c-5 90 -47 153 -130 153
c-49 0 -87 -28 -87 -80c0 -33 16 -59 70 -80c71 -30 120 -49 148 -65c40 -22 67 -53 67 -106c0 -46 -16 -79 -40 -104c-34 -35 -92 -57 -170 -57c-39 0 -78 6 -119 16c-23 6 -38 11 -57 15c6 40 9 91 9 172z" />
    <glyph glyph-name="t.sc" unicode="&#xf774;" horiz-adv-x="518" 
d="M310 362v-146c0 -90 2 -140 3 -159c1 -15 6 -24 22 -25c24 -2 41 -4 68 -6l-1 -29c-30 0 -88 3 -156 3c-49 0 -87 -3 -131 -3l-2 29c17 1 33 3 60 5c16 2 28 9 28 24c2 23 4 71 4 162v131c0 46 0 92 -1 112c-97 0 -108 -10 -122 -41c-11 -25 -22 -59 -31 -98l-28 7
c8 59 15 140 17 175c25 -7 82 -11 174 -11h90c116 0 158 2 185 12c-1 -15 -9 -83 -7 -172l-29 -9c-4 43 -13 86 -20 105c-8 22 -21 33 -122 32c-1 -19 -1 -57 -1 -98z" />
    <glyph glyph-name="u.sc" unicode="&#xf775;" horiz-adv-x="583" 
d="M29 466v30c34 0 72 -4 113 -4c47 0 85 3 120 4l3 -30l-47 -5c-10 -1 -17 -6 -18 -19c-4 -61 -5 -216 -1 -291c3 -50 16 -74 35 -92c18 -17 53 -29 87 -29c70 0 122 16 132 138c6 90 1 217 -2 264c-1 22 -8 27 -31 30l-46 4l-1 30c26 0 60 -4 93 -4c34 0 65 2 97 3l4 -29
l-36 -3c-22 -3 -26 -9 -27 -28c-5 -83 -6 -237 -13 -291c-8 -61 -32 -100 -67 -125c-31 -23 -80 -34 -134 -34c-71 0 -124 17 -156 50c-27 28 -40 65 -40 125c0 63 -1 248 -2 278c0 15 -4 23 -17 24z" />
    <glyph glyph-name="v.sc" unicode="&#xf776;" horiz-adv-x="543" 
d="M-6 468l-1 29c29 0 85 -4 121 -4c37 0 76 4 126 4l5 -29l-49 -5c-11 -2 -14 -10 -10 -22c15 -49 78 -225 125 -347c44 112 102 279 119 345c4 14 1 20 -11 22c-17 3 -33 5 -57 7l-3 29c21 0 66 -4 99 -4c29 0 60 4 98 4l4 -29c-52 -2 -65 -8 -86 -51
c-32 -67 -105 -265 -165 -426c-16 2 -59 2 -71 0c-55 152 -136 361 -168 440c-15 31 -26 36 -76 37z" />
    <glyph glyph-name="w.sc" unicode="&#xf777;" horiz-adv-x="786" 
d="M610 467l-4 29c33 0 65 -5 99 -4c32 0 58 4 91 4l1 -29c-54 -5 -62 -12 -77 -51c-35 -91 -88 -270 -136 -425c-25 2 -59 2 -73 0c-24 83 -80 265 -120 393c-43 -153 -83 -296 -109 -393c-11 2 -63 2 -72 0c-37 125 -103 345 -133 424c-16 44 -26 50 -77 52l-1 29
c23 0 61 -4 115 -4c37 0 79 4 121 4l4 -29l-45 -4c-12 -2 -17 -8 -14 -19c27 -97 77 -275 97 -342c41 134 101 364 107 392c17 -2 51 -2 78 0c12 -46 81 -271 119 -395c43 125 84 282 96 338c3 15 -1 23 -17 25z" />
    <glyph glyph-name="x.sc" unicode="&#xf778;" horiz-adv-x="537" 
d="M506 29l36 -3v-29c-34 1 -78 3 -126 3c-50 0 -85 -3 -130 -3l-2 29c49 5 54 11 46 25c-13 23 -46 85 -94 161c-40 -55 -75 -114 -97 -151c-11 -19 -4 -28 19 -30l45 -5l2 -29c-23 0 -58 3 -105 3c-39 0 -69 -2 -101 -3l-2 29c43 3 58 7 82 33c31 33 88 115 138 182
c-64 106 -111 184 -127 205c-11 14 -28 18 -75 21l-3 29c30 -1 83 -4 123 -4c38 0 82 3 124 4l4 -29l-41 -4c-11 -1 -13 -7 -9 -15c12 -22 40 -71 81 -137c39 54 70 104 85 131c6 12 3 18 -13 21l-40 4l2 29c38 0 75 -4 94 -4c35 0 61 3 96 4l3 -29c-63 -4 -76 -15 -100 -40
s-56 -74 -108 -144c73 -118 120 -195 147 -230c12 -14 24 -21 46 -24z" />
    <glyph glyph-name="y.sc" unicode="&#xf779;" horiz-adv-x="501" 
d="M395 26l4 -29c-61 1 -99 3 -149 3s-91 -2 -139 -3l-3 29c24 2 45 5 64 7c20 3 27 11 29 28c2 24 3 96 3 136c0 10 -3 21 -11 36c-15 30 -81 149 -119 202c-17 25 -33 30 -82 32v29c25 0 78 -4 128 -4c45 0 83 4 117 4l4 -29l-39 -4c-11 -1 -14 -6 -11 -16
c16 -31 69 -132 102 -190c36 65 77 151 91 186c4 9 2 17 -10 18c-12 2 -29 5 -47 6l2 29c27 0 63 -4 97 -4c30 0 57 4 88 4l2 -29c-46 -2 -66 -9 -88 -38c-30 -42 -78 -132 -109 -191c-7 -14 -11 -25 -11 -40c0 -38 0 -115 3 -143c2 -13 7 -19 22 -21c11 -2 33 -5 62 -8z
" />
    <glyph glyph-name="z.sc" unicode="&#xf77a;" horiz-adv-x="520" 
d="M76 310l-26 8c13 75 16 147 13 185c16 -5 33 -7 57 -9c22 -1 52 -1 120 -1c48 0 89 -1 124 0c37 1 69 1 108 3c-8 -31 -13 -43 -19 -51c-14 -22 -53 -77 -129 -191c-75 -110 -120 -176 -150 -221c200 -2 230 6 250 46c16 29 28 61 40 112l26 -8c-4 -47 -14 -117 -15 -188
c-29 2 -62 3 -96 4s-67 1 -104 1h-163c-37 0 -48 0 -74 -1l-8 18c79 104 247 350 304 443h-90c-98 0 -119 -12 -136 -51c-14 -32 -22 -63 -32 -99z" />
    <glyph glyph-name="ae.sc" unicode="&#xf7e6;" horiz-adv-x="752" 
d="M401 492h146c56 0 109 4 131 8c-3 -21 -3 -99 -1 -154l-29 -1c-4 23 -10 53 -19 75c-12 28 -29 39 -113 39h-50c-9 0 -13 -3 -14 -14c-2 -20 -2 -67 -2 -115v-76c13 0 34 -1 52 -1c63 0 76 12 86 70h27c-5 -62 -5 -130 -1 -187h-28c-10 66 -19 83 -87 83h-49v-44
c0 -48 1 -94 3 -123c2 -15 6 -19 68 -19c89 0 113 6 132 33c17 24 32 64 41 100l28 -2c-1 -26 -15 -145 -19 -169c-32 1 -82 5 -199 5h-109c-36 0 -96 -3 -131 -3l1 29l53 5c16 2 24 10 25 28c2 30 3 80 3 127v33c-31 0 -105 0 -146 -2c-30 -56 -57 -109 -79 -155
c-8 -18 -3 -28 29 -31l46 -5v-29c-44 0 -72 3 -107 3c-29 0 -62 -3 -100 -3v29c45 4 62 11 90 58c76 125 157 275 205 363c5 10 1 16 -9 16l-72 4l-2 29c58 -1 144 -4 200 -4zM346 254v206h-14c-31 -51 -79 -146 -110 -206c27 -1 84 -2 124 0z" />
    <glyph glyph-name="oe.sc" unicode="&#xf6fa;" horiz-adv-x="861" 
d="M458 254v1c0 85 -2 113 -9 134c-16 45 -57 84 -127 84c-44 0 -78 -15 -103 -45c-33 -39 -52 -105 -52 -182c0 -74 18 -136 45 -170c26 -34 67 -53 112 -53c46 0 85 19 109 54c20 30 25 81 25 177zM519 493h141c57 0 109 4 131 8c-3 -21 -4 -96 -2 -150l-29 -2
c-4 23 -9 51 -18 73c-12 28 -28 39 -113 39h-52c-9 0 -13 -3 -14 -13c-2 -22 -3 -67 -3 -115v-59c9 -2 34 -2 48 -2c63 0 76 9 86 68h28c-4 -59 -5 -128 -1 -185h-29c-10 65 -19 83 -86 83c-17 0 -38 0 -46 -1v-58c0 -50 1 -101 3 -128c2 -15 6 -19 68 -19
c89 0 118 7 136 35c17 23 31 62 40 96l27 -2c-1 -27 -15 -142 -19 -165c-31 1 -83 3 -199 4h-99c-28 1 -46 0 -60 -2v51c-36 -39 -99 -64 -164 -64c-67 0 -120 13 -159 43c-58 41 -90 116 -90 210c0 105 42 184 104 226c41 29 89 44 160 44c61 0 115 -19 150 -60v48
c12 -2 34 -3 61 -3z" />
    <glyph glyph-name="f_i.sc" unicode="&#xe048;" horiz-adv-x="797" 
d="M31 467l-2 30c28 0 86 -4 135 -4h127c100 0 139 5 161 8c-6 -61 -4 -130 -3 -157h-29c-3 21 -9 51 -20 76c-10 28 -25 41 -110 41h-64c-10 0 -15 -3 -16 -11c-1 -7 -3 -56 -3 -118v-72c9 -1 37 -1 53 -1c66 0 79 12 88 76l28 -1c-5 -53 -4 -167 0 -194h-28
c-10 65 -16 85 -89 85c-19 0 -43 0 -52 -1v-70c0 -59 1 -85 2 -99s6 -21 21 -22c15 -2 47 -7 69 -7l-2 -29c-35 0 -95 4 -140 4c-41 0 -95 -4 -128 -4l-1 29l46 4c15 2 22 8 24 21c2 18 4 80 4 145v133c0 64 -1 105 -2 115c-1 12 -7 18 -19 19zM590 166v173
c0 61 0 80 -1 100c-1 22 -7 26 -66 29v29c23 -1 72 -4 116 -4c51 0 87 4 122 4v-29c-56 -2 -62 -9 -63 -26c-1 -16 -3 -45 -3 -98v-178c0 -58 0 -92 3 -113c1 -20 8 -24 66 -27v-29c-39 1 -87 3 -128 3c-42 0 -84 -3 -116 -3l1 29c57 3 65 7 66 26c2 18 3 47 3 114z" />
    <glyph glyph-name="f_l.sc" unicode="&#xe049;" horiz-adv-x="974" 
d="M31 467l-2 30c28 0 86 -4 135 -4h127c100 0 139 5 161 8c-6 -61 -4 -130 -3 -157h-29c-3 21 -9 51 -20 76c-10 28 -25 41 -110 41h-64c-10 0 -15 -3 -16 -11c-1 -7 -3 -56 -3 -118v-72c9 -1 37 -1 53 -1c66 0 79 12 88 76l28 -1c-5 -53 -4 -167 0 -194h-28
c-10 65 -16 85 -89 85c-19 0 -43 0 -52 -1v-70c0 -59 1 -85 2 -99s6 -21 21 -22c15 -2 47 -7 69 -7l-2 -29c-35 0 -95 4 -140 4c-41 0 -95 -4 -128 -4l-1 29l46 4c15 2 22 8 24 21c2 18 4 80 4 145v133c0 64 -1 105 -2 115c-1 12 -7 18 -19 19zM922 178l28 -2
c-7 -52 -16 -138 -20 -181c-23 2 -60 4 -109 4c-49 1 -110 1 -174 1c-21 0 -48 -1 -74 -1c-26 -1 -50 -2 -64 -2v28l52 5c18 2 25 7 26 20c2 25 4 86 4 150v133c0 68 -1 94 -2 110c0 12 -4 19 -20 20l-48 4l1 29c25 0 72 -3 122 -3c42 0 80 2 130 3l2 -29l-53 -4
c-18 -2 -22 -7 -23 -21c-2 -29 -4 -74 -4 -141v-101c0 -74 0 -129 2 -153c1 -8 8 -15 61 -15c83 0 103 7 122 39c17 27 30 62 41 107z" />
    <glyph glyph-name="eth.sc" unicode="&#xf7f0;" horiz-adv-x="609" 
d="M35 238l2 40c16 0 45 -2 78 -2v55c0 59 0 95 -1 110c0 13 -7 19 -19 20l-53 7l1 29c23 -1 75 -4 107 -4c55 0 100 4 150 4c87 0 133 -11 170 -33c61 -35 98 -108 98 -205c0 -98 -38 -197 -147 -240c-41 -15 -91 -22 -143 -22c-44 0 -83 2 -122 3c-49 0 -97 -3 -121 -3
l1 28l43 4c23 2 31 7 32 21c1 15 4 89 4 150v41c-29 0 -55 -1 -80 -3zM346 278l-5 -40c-15 0 -67 1 -121 2v-43c0 -96 1 -134 3 -151c0 -10 7 -17 42 -17c75 0 115 17 145 53c27 33 43 98 43 174c0 70 -15 128 -42 159c-28 33 -66 49 -142 49c-39 0 -45 -9 -46 -16
c-1 -13 -3 -44 -3 -127v-46c52 0 96 2 126 3z" />
    <glyph glyph-name="oslash.sc" unicode="&#xf7f8;" horiz-adv-x="582" 
d="M463 527l37 -18c-15 -18 -22 -30 -42 -55c52 -43 83 -122 83 -203c0 -178 -113 -266 -253 -266c-48 0 -100 10 -138 34l-42 -55l-36 19l46 58c-46 38 -77 108 -77 200c0 147 91 267 256 267c51 0 95 -12 130 -33c14 19 26 36 36 52zM295 475h-1c-41 0 -72 -17 -96 -54
c-25 -39 -39 -104 -39 -178c0 -52 12 -102 23 -125c32 44 175 258 202 299c-20 33 -48 58 -89 58zM289 18h1c39 0 70 13 95 49c22 34 38 106 38 184c0 53 -9 104 -22 130c-29 -45 -166 -248 -202 -300c18 -34 49 -63 90 -63z" />
    <glyph glyph-name="thorn.sc" unicode="&#xf7fe;" horiz-adv-x="525" 
d="M106 198v144c0 55 0 80 -1 99c-1 18 -9 23 -70 25l4 29c18 0 69 -3 115 -3c44 0 85 3 121 3l1 -29c-56 -2 -62 -8 -63 -24c-1 -9 -1 -27 -2 -43c31 2 71 5 108 5c65 0 103 -14 128 -35c26 -22 42 -62 42 -109c0 -53 -21 -93 -50 -119c-34 -30 -87 -44 -147 -44
c-32 0 -64 7 -82 11c0 -17 0 -37 1 -52c1 -21 6 -26 76 -30l-1 -29c-39 0 -80 3 -131 3c-39 0 -85 -3 -122 -3l2 29c58 3 66 7 67 30c2 27 4 83 4 142zM210 360v-215c13 -8 39 -15 70 -15c32 0 58 13 73 31c14 19 25 54 25 94c0 42 -11 73 -27 90c-20 19 -50 27 -93 27
c-36 0 -47 -4 -48 -12z" />
    <glyph glyph-name="germandbls.sc" unicode="&#xe04d;" horiz-adv-x="937" 
d="M52 187l29 5c-2 -134 73 -175 153 -175c60 0 98 30 98 81c0 31 -14 53 -52 70c-36 17 -92 40 -133 58c-65 27 -91 72 -91 126c0 53 20 89 52 116c29 25 72 40 131 40c51 0 97 -16 118 -34l20 43l25 -7c-13 -67 -13 -136 -12 -187h-29c-5 90 -47 153 -130 153
c-49 0 -87 -28 -87 -80c0 -33 16 -59 70 -80c71 -30 120 -49 148 -65c40 -22 67 -53 67 -106c0 -46 -16 -79 -40 -104c-34 -35 -92 -57 -170 -57c-39 0 -78 6 -119 16c-23 6 -38 11 -57 15c6 40 9 91 9 172zM521 187l29 5c-2 -134 73 -175 153 -175c60 0 98 30 98 81
c0 31 -14 53 -52 70c-36 17 -92 40 -133 58c-65 27 -91 72 -91 126c0 53 20 89 52 116c29 25 72 40 131 40c51 0 97 -16 118 -34l20 43l25 -7c-13 -67 -13 -136 -12 -187h-29c-5 90 -47 153 -130 153c-49 0 -87 -28 -87 -80c0 -33 16 -59 70 -80c71 -30 120 -49 148 -65
c40 -22 67 -53 67 -106c0 -46 -16 -79 -40 -104c-34 -35 -92 -57 -170 -57c-39 0 -78 6 -119 16c-23 6 -38 11 -57 15c6 40 9 91 9 172z" />
    <glyph glyph-name="ampersand.sc" unicode="&#xf726;" horiz-adv-x="657" 
d="M245 35h1c42 0 73 19 94 55c-46 44 -104 99 -151 150c-30 -22 -50 -47 -50 -89c0 -71 54 -116 106 -116zM626 26l-2 -28c-42 -9 -80 -14 -130 -14c-37 0 -80 33 -129 82c-42 -58 -89 -83 -155 -83c-52 0 -95 13 -123 38c-27 23 -43 58 -44 102c0 41 18 73 50 96
c16 13 48 30 73 46c-34 35 -56 72 -57 117c0 38 11 68 33 92c21 24 60 49 122 49c100 0 146 -59 147 -118c0 -40 -19 -63 -44 -79c-17 -12 -48 -29 -80 -45c25 -26 77 -76 110 -106c21 38 32 61 48 91c28 49 62 93 107 93c29 0 49 -18 49 -45c0 -19 -9 -30 -15 -37
c-4 -4 -13 -6 -18 -3c-7 4 -15 8 -29 8c-26 0 -44 -15 -67 -49c-14 -20 -30 -48 -48 -81c85 -84 144 -126 202 -126zM262 492h-1c-37 0 -65 -30 -65 -79c0 -36 24 -71 67 -111c48 30 68 63 68 103c0 45 -23 87 -69 87z" />
    <glyph glyph-name="exclam.sc" unicode="&#xf721;" horiz-adv-x="230" 
d="M119 560h1c31 0 71 -41 71 -78c0 -21 -7 -48 -16 -76c-21 -72 -41 -158 -41 -220h-31c0 62 -20 147 -41 220c-10 29 -16 53 -16 75c0 44 51 79 73 79zM121 -14h-1c-34 0 -63 27 -63 68c0 39 29 68 64 68c38 0 64 -28 64 -67c0 -41 -29 -69 -64 -69z" />
    <glyph glyph-name="exclamdown.sc" unicode="&#xf7a1;" horiz-adv-x="232" 
d="M110 -56h-1c-26 0 -70 39 -70 79c0 21 7 48 16 75c21 73 41 159 41 221h31c0 -62 20 -147 41 -221c9 -28 16 -52 16 -74c0 -41 -45 -80 -74 -80zM109 519h1c34 0 64 -28 64 -69c0 -39 -29 -68 -66 -68c-35 0 -63 29 -63 68c0 40 29 69 64 69z" />
    <glyph glyph-name="question.sc" unicode="&#xf73f;" horiz-adv-x="395" 
d="M202 186l-23 -8c-20 22 -39 50 -44 76c-7 28 3 52 21 69c23 24 73 66 98 87c12 12 20 24 20 43c0 51 -31 78 -75 78c-51 0 -70 -30 -70 -61c0 -15 5 -24 8 -33c5 -11 0 -20 -7 -27c-14 -11 -29 -16 -48 -16c-24 0 -45 17 -45 49c0 75 89 118 165 118
c93 0 159 -51 159 -146c0 -46 -21 -72 -51 -94c-35 -25 -73 -55 -90 -71c-22 -20 -28 -37 -18 -64zM191 -15h-1c-32 0 -63 27 -63 70c0 40 30 69 66 69s66 -29 66 -69c0 -41 -29 -70 -68 -70z" />
    <glyph glyph-name="questiondown.sc" unicode="&#xf7bf;" horiz-adv-x="395" 
d="M194 309l23 8c21 -22 39 -50 45 -76c6 -27 -4 -52 -22 -69c-24 -24 -73 -65 -98 -87c-13 -11 -20 -23 -20 -42c0 -51 31 -79 75 -79c52 0 71 30 71 61c0 15 -3 24 -7 33c-5 11 -2 20 6 27c13 11 28 16 47 16c24 0 45 -17 45 -49c0 -74 -89 -118 -165 -118
c-92 0 -159 51 -159 146c0 47 21 72 51 94c35 26 73 55 90 71c22 20 28 37 18 64zM204 510h1c32 0 63 -27 63 -70c0 -40 -30 -69 -66 -69s-66 29 -66 69c0 41 29 70 68 70z" />
    <glyph glyph-name="zero.oldstyle" unicode="&#xf730;" horiz-adv-x="525" 
d="M268 447h1c136 0 214 -94 214 -225c0 -138 -85 -236 -224 -236c-141 0 -217 89 -217 223c0 132 88 238 226 238zM262 416h-1c-34 0 -60 -16 -78 -48c-19 -34 -30 -90 -30 -148c0 -55 8 -105 24 -140c19 -41 48 -63 91 -63c33 0 58 16 76 45c20 32 30 89 30 156
c0 66 -14 125 -35 156c-19 29 -44 42 -77 42z" />
    <glyph glyph-name="one.oldstyle" unicode="&#xf731;" horiz-adv-x="342" 
d="M316 24v-28c-54 1 -109 4 -150 4c-36 0 -88 -3 -132 -4l-4 28l56 4c26 3 37 8 39 20c2 14 5 65 5 118v98c0 46 -1 93 -3 110c-1 11 -4 14 -14 13l-75 -8l6 32c77 9 160 24 191 36c-2 -36 -5 -85 -5 -182v-104c0 -65 2 -98 4 -113c1 -10 6 -17 16 -18z" />
    <glyph glyph-name="two.oldstyle" unicode="&#xf732;" horiz-adv-x="477" 
d="M430 162l28 -15c-11 -26 -34 -99 -49 -153c-81 4 -195 6 -375 6l-2 9c8 15 31 55 36 59c33 13 74 35 116 65c53 38 97 96 97 164c0 31 -6 54 -17 70c-11 18 -34 33 -66 33c-87 0 -107 -77 -114 -130h-17l-22 31c12 64 79 146 191 146c81 0 158 -41 158 -145
c0 -64 -43 -107 -107 -149c-30 -18 -75 -47 -132 -77l1 -4c104 0 207 5 227 10c13 3 18 12 21 17c5 11 17 36 26 63z" />
    <glyph glyph-name="three.oldstyle" unicode="&#xf733;" horiz-adv-x="450" 
d="M61 286l-24 35c18 66 91 126 186 126c84 0 152 -42 152 -129c0 -47 -25 -78 -54 -97c-25 -16 -60 -31 -94 -43l-1 -3c76 -5 124 -24 150 -50c25 -24 35 -55 35 -92c0 -55 -28 -100 -62 -126c-39 -30 -89 -50 -162 -50c-112 0 -162 56 -162 92c0 28 20 45 42 45
c16 0 23 -11 29 -28c17 -50 51 -79 98 -79c73 0 101 61 101 139c0 72 -29 123 -115 123c-16 0 -34 -3 -48 -7l-19 19l6 12c27 4 58 11 80 21c27 12 70 40 70 112c0 48 -22 99 -85 99c-55 0 -95 -33 -108 -119h-15z" />
    <glyph glyph-name="four.oldstyle" unicode="&#xf734;" horiz-adv-x="514" 
d="M287 80c5 102 6 233 8 292c-70 -86 -141 -186 -203 -276c20 -7 95 -16 195 -16zM43 55l-13 27c80 106 172 226 266 338c37 6 77 20 91 27l7 -6c-3 -73 -6 -225 -6 -360c41 1 79 9 99 16l-1 -27c-22 -13 -60 -23 -98 -26c0 -48 0 -112 3 -161c-52 -2 -86 -10 -107 -17
l-6 6c4 41 5 81 8 168c-111 0 -207 8 -243 15z" />
    <glyph glyph-name="five.oldstyle" unicode="&#xf735;" horiz-adv-x="445" 
d="M76 103l-22 20c22 65 40 276 36 314c21 -8 79 -18 136 -18c92 0 134 6 163 44l17 -19c-15 -39 -40 -71 -70 -87c-26 -15 -67 -23 -113 -23c-40 0 -81 4 -100 8c-7 -56 -18 -138 -28 -184c34 28 86 49 138 49c100 0 172 -45 173 -154c0 -40 -11 -83 -35 -115
c-34 -44 -91 -80 -185 -80c-109 0 -160 55 -160 93c0 28 21 45 42 45c16 0 23 -12 29 -28c17 -52 48 -81 97 -81c76 0 101 68 101 146c0 48 -13 83 -36 104c-20 20 -41 26 -72 26c-58 0 -89 -31 -111 -60z" />
    <glyph glyph-name="six.oldstyle" unicode="&#xf736;" horiz-adv-x="511" 
d="M420 594l3 -32c-10 3 -28 4 -41 4c-142 0 -220 -127 -230 -259c41 41 94 78 156 78c102 0 162 -71 162 -180c0 -66 -22 -115 -52 -150c-36 -40 -93 -68 -162 -68c-58 0 -103 14 -138 44c-49 43 -76 118 -76 206c0 127 44 222 116 286c65 58 141 77 211 77
c22 0 38 -2 51 -6zM266 334h-1c-57 0 -90 -37 -108 -78c-7 -17 -8 -29 -8 -50c0 -37 5 -74 17 -108c18 -48 49 -80 94 -80c35 0 63 16 80 55c16 36 22 76 22 118c0 29 -4 55 -14 82c-14 38 -45 61 -82 61z" />
    <glyph glyph-name="seven.oldstyle" unicode="&#xf737;" horiz-adv-x="465" 
d="M246 433h1c91 0 156 0 179 2l5 -7c-6 -26 -19 -73 -37 -106c-90 -163 -168 -320 -170 -467l-5 -5c-26 0 -54 5 -70 13c-10 6 -18 15 -20 27c-1 11 1 21 7 40c37 114 182 310 230 416c-39 4 -84 4 -148 4c-105 0 -120 -7 -131 -35c-10 -23 -18 -46 -28 -74l-28 8
c22 63 30 167 28 196c20 -9 46 -12 187 -12z" />
    <glyph glyph-name="eight.oldstyle" unicode="&#xf738;" horiz-adv-x="488" 
d="M255 598h1c84 0 163 -52 163 -140c0 -38 -15 -62 -33 -79c-17 -16 -42 -33 -76 -55c117 -57 137 -106 137 -166c0 -47 -20 -89 -53 -118c-40 -34 -96 -53 -157 -53c-121 0 -192 55 -192 150c0 41 20 67 39 86c19 18 46 35 83 59c-67 38 -100 82 -100 147
c0 39 12 70 29 95c33 47 90 74 159 74zM241 567h-1c-48 0 -91 -33 -91 -96c0 -29 9 -54 31 -72c26 -22 70 -44 103 -59c40 27 61 64 61 111c0 65 -38 116 -103 116zM252 18h1c59 0 105 35 105 98c0 61 -41 95 -160 151c-37 -21 -70 -58 -70 -118c0 -64 39 -131 124 -131z
" />
    <glyph glyph-name="nine.oldstyle" unicode="&#xf739;" horiz-adv-x="496" 
d="M92 -140l-2 31c17 -2 39 -2 62 2c110 10 184 98 196 240c-40 -39 -92 -67 -145 -67c-104 0 -161 76 -161 174c0 51 15 93 40 128c34 45 91 78 168 78c55 0 101 -17 135 -49c53 -51 70 -126 70 -205c0 -124 -45 -216 -108 -270c-59 -50 -130 -69 -195 -69
c-23 0 -45 2 -60 7zM243 416h-1c-32 0 -57 -16 -74 -48c-15 -31 -22 -63 -22 -107c0 -84 38 -144 102 -144c51 0 78 26 93 57c7 14 9 28 10 54c0 63 -15 121 -35 149c-18 25 -41 39 -73 39z" />
    <glyph glyph-name="dollar.oldstyle" unicode="&#xf724;" horiz-adv-x="488" 
d="M140 383v-1c0 -39 32 -60 93 -78c6 59 11 123 12 152c-66 1 -105 -29 -105 -73zM359 102v1c0 51 -59 66 -101 81c-4 -52 -10 -120 -13 -161c57 1 114 23 114 79zM253 562l39 7l-8 -84c38 -3 78 -17 94 -31l19 36l26 -6c-14 -59 -15 -129 -15 -174l-28 -1
c-4 88 -42 132 -99 143c-3 -28 -9 -96 -14 -159c75 -24 108 -37 128 -51c37 -22 54 -51 54 -96c0 -42 -18 -77 -43 -100c-32 -30 -88 -51 -163 -54l-6 -84l-41 -9l10 94c-55 2 -121 17 -163 31c7 40 10 90 12 162l27 5c-2 -113 54 -157 127 -165c5 43 9 103 15 168
c-26 9 -60 21 -81 30c-66 25 -87 65 -87 116c0 48 20 84 56 110c30 22 78 38 137 38z" />
    <glyph glyph-name="cent.oldstyle" unicode="&#xf7a2;" horiz-adv-x="495" 
d="M281 517l40 7l-8 -87c86 -5 147 -42 147 -104c0 -33 -23 -53 -55 -53c-22 0 -34 14 -31 28c3 12 5 19 5 35c0 34 -23 59 -70 64c-9 -114 -19 -244 -27 -361c83 -1 129 37 155 107h17l4 -43c-26 -52 -97 -99 -179 -103l-6 -86l-41 -9l10 94c-73 3 -126 28 -156 64
c-28 31 -46 79 -46 141c0 132 97 222 236 227zM151 222v-1c0 -76 25 -153 95 -171c11 110 21 254 28 359c-88 -9 -123 -100 -123 -187z" />
    <glyph glyph-name="Euro.oldstyle" unicode="&#xe013;" horiz-adv-x="485" 
d="M179 331l220 1l-11 -35l-211 1c-1 -14 -1 -36 -1 -50l198 1l-11 -35l-185 1c4 -70 29 -184 133 -184c51 0 96 21 127 108l26 -15c-33 -95 -88 -137 -181 -137c-163 0 -206 126 -213 228h-57l10 33h45c0 14 0 36 2 50h-38l10 33h31c16 95 76 216 233 216
c112 0 152 -58 152 -100c0 -36 -23 -55 -50 -55c-8 0 -18 3 -24 8c-6 4 -9 11 -7 18c2 10 4 21 4 35c0 44 -30 66 -76 66c-95 0 -119 -121 -126 -188z" />
    <glyph glyph-name="florin.oldstyle" unicode="&#xe04b;" horiz-adv-x="481" 
d="M55 290l13 39c25 -1 55 -2 83 -2c16 106 39 162 76 204c39 43 86 61 133 61c52 0 93 -26 93 -72c0 -34 -25 -51 -50 -51c-16 0 -33 8 -30 23c2 8 4 21 4 30c0 29 -12 41 -34 41c-27 0 -45 -28 -57 -71c-10 -37 -19 -93 -28 -165c43 0 76 1 119 2l-11 -39
c-34 1 -71 2 -113 2c-16 -106 -25 -176 -41 -252c-17 -83 -50 -137 -103 -169c-33 -19 -61 -26 -95 -26c-49 0 -87 26 -87 61c0 29 26 48 48 48c16 0 23 -10 28 -25c9 -28 23 -50 45 -50c28 0 40 24 53 90c15 91 29 200 45 323c-20 0 -50 0 -91 -2z" />
    <glyph glyph-name="sterling.oldstyle" unicode="&#xe0cd;" horiz-adv-x="493" 
d="M18 254l13 38c18 -1 35 -1 71 -1c-5 49 -6 81 0 113c15 94 95 143 186 143c106 0 143 -55 143 -98c0 -36 -23 -57 -53 -57c-10 0 -20 3 -27 7c-6 6 -10 11 -8 20s5 21 5 32c0 39 -20 67 -67 67c-46 0 -78 -32 -77 -108c0 -38 5 -69 9 -119c103 0 114 1 157 3l-14 -40
c-24 0 -56 2 -142 2c0 -41 -5 -72 -26 -107c-17 -27 -41 -50 -77 -74c206 3 273 6 282 11c6 4 11 7 15 18c8 21 17 47 22 64l29 4c-15 -68 -23 -140 -23 -174l-6 -4c-80 5 -209 6 -286 6c-62 0 -91 -2 -118 -3l-5 8l21 53c35 21 67 52 69 119c2 30 -2 53 -5 79
c-21 0 -50 0 -88 -2z" />
    <glyph glyph-name="yen.oldstyle" unicode="&#xe0d3;" horiz-adv-x="497" 
d="M3 508l1 28c30 0 71 -3 108 -3c59 0 91 3 123 3l2 -28c-14 -1 -28 -3 -43 -4c-10 -2 -12 -7 -7 -19c19 -36 56 -104 91 -168c41 72 73 135 84 160c10 22 6 28 -56 31l3 28c25 0 62 -2 94 -2c25 0 54 2 81 2l1 -28c-42 -2 -58 -8 -82 -45c-27 -39 -73 -115 -106 -175
c50 0 68 1 120 3l-10 -40c-17 0 -61 2 -114 3v-70c59 0 89 1 117 3l-10 -40c-20 1 -57 2 -108 3c0 -33 1 -66 3 -93c2 -16 7 -23 23 -25c17 -2 37 -4 65 -6l1 -29c-41 1 -89 3 -155 3c-29 0 -86 -2 -129 -3l-1 29c24 2 46 5 63 7c19 3 27 11 28 29c2 18 3 58 4 88
c-47 0 -81 0 -113 -2l5 40c30 -1 65 -3 109 -3v69c-54 0 -84 0 -121 -2l10 40c14 0 44 -2 105 -3c-31 58 -79 138 -106 178c-25 35 -36 40 -80 41z" />
    <glyph glyph-name="numbersign.oldstyle" unicode="&#xe04e;" horiz-adv-x="481" 
d="M303 300h-104l-32 -125h105zM213 501l43 3c-7 -21 -23 -76 -40 -136h103c14 52 25 97 33 133l43 3c-12 -37 -27 -86 -40 -136c48 0 74 0 94 1c-7 -21 -16 -54 -20 -71c-19 1 -47 1 -91 1l-31 -123c55 1 76 1 104 2c-7 -17 -15 -50 -19 -71c-25 0 -55 0 -102 1
c-14 -66 -25 -115 -33 -154l-45 -3c7 23 22 78 42 157h-104c-18 -71 -31 -124 -37 -154l-43 -6c8 25 20 69 44 160c-30 -1 -55 0 -90 -1c7 20 13 48 17 70c18 0 43 -1 90 -2l33 125c-42 1 -76 0 -105 -1c6 18 13 44 18 70c20 -1 60 -1 103 -1c14 51 25 102 33 133z" />
    <glyph glyph-name="percent.oldstyle" unicode="&#xf642;" horiz-adv-x="716" 
d="M158 -38l-33 24c84 110 310 423 377 516c-33 -16 -72 -28 -124 -28c-27 0 -60 6 -77 12c9 -23 15 -50 15 -82c0 -103 -55 -169 -139 -169c-79 0 -137 50 -137 154c0 108 72 167 149 167c23 0 43 -4 62 -13l16 11c22 -25 70 -48 129 -48c87 0 121 29 132 40
c7 7 15 19 28 39l54 5c-81 -110 -289 -389 -452 -628zM195 527h-1c-16 0 -28 -6 -39 -18c-13 -14 -29 -48 -30 -115c0 -54 12 -96 29 -113c9 -10 24 -16 40 -16c35 0 77 36 77 140c0 49 -12 122 -76 122zM545 312h1c97 0 130 -75 130 -156c0 -98 -55 -165 -139 -165
c-81 0 -138 51 -139 152c0 110 72 169 147 169zM555 283h-1c-14 0 -31 -7 -41 -20c-12 -14 -27 -50 -28 -113c0 -59 12 -97 28 -113c10 -10 24 -16 40 -16c40 0 79 41 79 136c0 51 -13 126 -77 126z" />
    <glyph glyph-name="perthousand.oldstyle" unicode="&#xf628;" horiz-adv-x="1023" 
d="M158 -38l-33 24c84 110 310 423 377 516c-33 -16 -72 -28 -124 -28c-27 0 -61 6 -77 12c9 -23 15 -52 15 -82c0 -103 -55 -169 -139 -169c-79 0 -137 50 -137 154c0 108 72 167 149 167c23 0 43 -4 62 -13l16 11c22 -25 70 -48 129 -48c87 0 121 29 132 40
c7 7 15 19 28 39l54 5c-81 -110 -289 -389 -452 -628zM195 527h-1c-16 0 -28 -6 -39 -18c-13 -14 -29 -48 -30 -115c0 -54 12 -96 29 -113c9 -10 24 -16 40 -16c35 0 77 36 77 140c0 49 -12 122 -76 122zM545 312h1c97 0 130 -75 130 -156c0 -98 -55 -165 -139 -165
c-81 0 -138 51 -139 152c0 110 72 169 147 169zM555 283h-1c-14 0 -31 -6 -41 -19c-12 -15 -27 -51 -28 -114c0 -59 12 -97 28 -113c10 -11 24 -16 40 -16c40 0 79 41 79 136c0 51 -13 126 -77 126zM856 312h1c97 0 130 -75 130 -156c0 -98 -55 -165 -139 -165
c-81 0 -138 51 -139 152c0 110 72 169 147 169zM866 283h-1c-15 0 -31 -6 -41 -19c-12 -15 -27 -51 -28 -114c0 -59 12 -97 28 -113c9 -11 24 -16 40 -16c40 0 79 41 79 136c0 51 -13 126 -77 126z" />
    <glyph glyph-name="zero.fitted" unicode="&#xf639;" horiz-adv-x="486" 
d="M250 625h1c54 0 100 -19 136 -59c50 -57 72 -152 72 -250c-1 -152 -41 -240 -95 -286c-41 -34 -89 -44 -126 -44c-48 0 -97 16 -133 52c-56 58 -78 157 -78 264c1 115 31 221 103 280c35 28 75 43 120 43zM245 594h-1c-31 0 -50 -16 -68 -51c-23 -47 -37 -142 -37 -232
c0 -93 10 -180 33 -233c15 -36 39 -60 75 -60c33 0 53 19 70 57c21 47 32 129 32 232c0 111 -13 192 -32 235c-16 33 -37 52 -72 52z" />
    <glyph glyph-name="two.fitted" unicode="&#xf63a;" horiz-adv-x="486" 
d="M432 178l27 -12c-21 -74 -30 -142 -33 -171c-21 2 -74 5 -287 5c-45 0 -80 0 -109 -2l-3 9c6 17 17 42 24 56c125 88 216 195 241 280c12 38 16 74 16 118c0 65 -24 133 -93 133c-62 0 -89 -37 -89 -99c0 -16 4 -32 8 -47c2 -9 -2 -22 -10 -30c-9 -9 -23 -14 -37 -14
c-30 -1 -52 22 -52 63c0 39 20 76 53 106c35 32 89 52 148 52c54 0 98 -16 124 -37c47 -36 64 -92 64 -150c0 -61 -22 -106 -62 -149c-34 -38 -108 -102 -228 -207c155 3 229 7 249 9c13 2 21 7 27 22c5 14 15 40 22 65z" />
    <glyph glyph-name="three.fitted" unicode="&#xf63b;" horiz-adv-x="486" 
d="M244 625h1c85 0 175 -44 175 -139c0 -53 -27 -84 -58 -106c-29 -19 -68 -33 -106 -46v-4c64 -4 122 -21 155 -52c29 -25 44 -56 44 -104c0 -59 -27 -104 -63 -134c-37 -31 -99 -54 -173 -54c-117 0 -187 57 -187 115c0 29 23 53 53 53c19 0 28 -11 34 -35
c16 -72 51 -102 105 -102c77 0 110 64 110 152c0 78 -32 133 -123 133c-17 0 -38 -3 -52 -8l-20 24l3 8c33 5 66 14 88 29c36 18 78 50 78 126c0 60 -28 112 -89 112c-55 0 -88 -30 -88 -86c0 -10 2 -23 5 -33c2 -10 -2 -20 -8 -27c-9 -9 -21 -12 -34 -12
c-26 0 -46 18 -46 55c0 58 69 135 196 135z" />
    <glyph glyph-name="four.fitted" unicode="&#xf63c;" horiz-adv-x="486" 
d="M273 217c4 114 4 247 6 325c-73 -103 -153 -215 -209 -309c20 -7 105 -17 203 -16zM18 192l-8 27c98 138 227 313 268 376c24 7 69 21 98 33l6 -3c-3 -81 -5 -242 -5 -345v-62c59 1 85 10 104 16l-1 -27c-16 -11 -48 -24 -103 -28c0 -56 1 -116 2 -179
c-38 1 -82 -5 -107 -13l-5 5c2 31 3 95 5 184c-119 -1 -226 9 -254 16z" />
    <glyph glyph-name="five.fitted" unicode="&#xf63d;" horiz-adv-x="485" 
d="M92 250l-25 25c23 73 43 303 41 340c23 -8 83 -15 148 -15c99 0 147 7 175 42l16 -17c-14 -38 -41 -75 -71 -92c-27 -16 -74 -23 -125 -23c-49 0 -91 4 -111 8c-7 -62 -20 -152 -31 -204c35 28 95 54 154 54c106 0 187 -49 187 -171c0 -45 -12 -90 -38 -125
c-37 -50 -103 -86 -190 -86c-115 0 -184 54 -184 112c0 29 24 52 54 52c18 0 27 -11 33 -34c15 -70 51 -99 101 -99c75 0 107 70 107 163c0 52 -15 93 -39 116c-20 19 -43 28 -76 28c-66 0 -106 -37 -126 -74z" />
    <glyph glyph-name="six.fitted" unicode="&#xf63e;" horiz-adv-x="486" 
d="M407 621l3 -32c-10 3 -26 4 -38 4c-143 0 -223 -137 -231 -289c34 38 88 82 156 82c101 0 161 -75 161 -178c0 -67 -21 -119 -53 -155c-34 -39 -89 -67 -159 -67c-57 0 -105 16 -141 48c-48 42 -75 119 -75 212c0 132 44 234 117 301c63 56 139 80 210 80
c22 0 40 -3 50 -6zM254 334h-1c-53 0 -87 -36 -104 -77c-7 -15 -8 -29 -8 -51c0 -29 4 -74 18 -111c17 -48 46 -78 88 -78c36 0 62 18 78 52c17 34 23 76 23 118c0 34 -4 61 -14 87c-14 35 -41 60 -80 60z" />
    <glyph glyph-name="seven.fitted" unicode="&#xf63f;" horiz-adv-x="486" 
d="M62 418l-26 7c17 55 29 168 26 195c20 -6 50 -9 202 -9c134 0 164 0 185 1l4 -7c-7 -30 -22 -78 -42 -118c-95 -178 -168 -330 -171 -496l-7 -5c-24 -1 -50 4 -67 11c-14 6 -21 19 -21 33s4 26 10 44c37 128 175 314 232 447c-36 4 -89 4 -150 4c-121 0 -136 -6 -150 -39
c-8 -18 -16 -39 -25 -68z" />
    <glyph glyph-name="eight.fitted" unicode="&#xf640;" horiz-adv-x="486" 
d="M255 626h1c87 0 166 -56 166 -148c0 -36 -15 -63 -32 -81c-18 -18 -43 -36 -77 -59c115 -62 138 -112 138 -176c0 -50 -21 -92 -58 -123c-38 -33 -98 -53 -156 -53c-122 0 -200 58 -200 156c0 41 17 70 37 90c21 21 53 40 92 66c-70 42 -104 88 -104 153
c0 50 14 81 36 109c31 38 83 66 157 66zM241 595h-1c-48 0 -95 -34 -95 -100c0 -32 11 -59 36 -79c26 -23 69 -45 105 -63c39 29 62 64 62 119c0 68 -39 123 -107 123zM252 17h1c62 0 104 40 104 105c0 64 -41 97 -163 161c-44 -26 -74 -68 -74 -126c0 -71 41 -140 132 -140
z" />
    <glyph glyph-name="nine.fitted" unicode="&#xf641;" horiz-adv-x="486" 
d="M86 -9v30c20 -3 42 -3 63 2c114 13 184 116 196 278c-40 -40 -93 -72 -148 -72c-105 0 -167 75 -167 181c0 58 17 103 48 141c33 41 88 74 166 74c58 0 106 -19 139 -53c54 -53 73 -132 73 -223c0 -133 -48 -235 -112 -292c-58 -52 -131 -73 -194 -73c-26 0 -48 2 -64 7z
M239 593h-1c-31 0 -57 -14 -76 -50c-16 -33 -23 -68 -23 -113c0 -83 38 -149 103 -149c51 0 77 27 93 58c8 15 10 34 10 63c1 60 -12 116 -32 147c-18 27 -40 44 -74 44z" />
    <glyph glyph-name="dollar.fitted" unicode="&#xe045;" horiz-adv-x="486" 
d="M365 141v1c0 61 -42 78 -108 108l-8 -207c58 2 116 30 116 98zM129 477v-1c0 -53 44 -80 105 -103l8 200c-68 -2 -113 -38 -113 -96zM248 676l37 7l-6 -83c41 -2 82 -18 102 -34l18 38l22 -5c-14 -71 -16 -141 -16 -183l-27 2c1 92 -42 141 -102 153l-12 -210
c85 -36 119 -52 140 -70c29 -24 45 -58 45 -105c0 -46 -18 -83 -44 -110c-34 -35 -89 -60 -158 -63l-2 -85l-40 -8l6 93c-66 2 -126 20 -170 32c8 47 11 107 13 171l27 4c-4 -126 51 -169 133 -177l12 219c-31 14 -70 29 -93 41c-62 34 -82 81 -82 134c0 51 20 91 56 121
c29 24 78 43 138 44z" />
    <glyph glyph-name="cent.fitted" unicode="&#xe043;" horiz-adv-x="486" 
d="M441 253l4 -39c-26 -57 -90 -100 -165 -106l-3 -82l-39 -10l6 91c-75 2 -128 28 -159 63c-27 31 -46 80 -46 143c0 132 96 219 227 224l2 77l40 8l-6 -85c84 -4 143 -40 143 -102c0 -34 -25 -52 -53 -52c-22 0 -34 13 -31 27c3 12 5 22 5 36c0 31 -21 56 -67 62
c-6 -117 -12 -245 -16 -361c72 1 116 34 141 106h17zM149 327v-1c0 -48 8 -97 26 -126c15 -25 39 -45 73 -51c6 110 12 240 17 360c-86 -8 -116 -101 -116 -182z" />
    <glyph glyph-name="Euro.fitted" unicode="&#xe012;" horiz-adv-x="486" 
d="M182 373l225 1l-12 -36l-215 1c-1 -16 -1 -36 -1 -52l202 1l-10 -36l-191 1c4 -87 29 -221 135 -221c52 0 96 21 128 109l24 -14c-32 -101 -86 -140 -180 -140c-166 0 -210 144 -218 266h-57l10 34h46c0 16 0 36 2 52h-38l10 34h31c17 113 82 252 240 252
c108 0 148 -57 148 -103c0 -38 -21 -58 -48 -58c-8 0 -18 3 -24 8s-8 13 -7 20c3 11 5 21 5 34c0 48 -30 70 -77 70c-98 0 -121 -148 -128 -223z" />
    <glyph glyph-name="florin.fitted" unicode="&#xe04a;" horiz-adv-x="486" 
d="M53 318l13 38c26 -1 56 -2 85 -2c18 121 44 180 80 222c40 44 86 62 134 62c52 0 96 -27 96 -74c0 -35 -24 -53 -50 -53c-15 0 -32 9 -29 24c2 8 4 20 4 30c0 30 -14 44 -38 44c-29 0 -45 -29 -58 -75c-11 -42 -22 -111 -31 -180c45 0 78 1 121 2l-11 -39
c-35 2 -70 3 -114 3c-16 -110 -30 -211 -49 -298c-18 -86 -52 -137 -106 -170c-33 -20 -63 -26 -95 -26c-46 0 -87 26 -87 61c0 29 25 48 48 48c17 0 24 -10 29 -24c9 -28 22 -51 45 -51c28 0 42 27 54 93c16 95 36 241 52 367c-20 0 -51 -1 -93 -2z" />
    <glyph glyph-name="sterling.fitted" unicode="&#xe0cc;" horiz-adv-x="486" 
d="M11 297l13 40c19 -2 37 -2 75 -2c-7 70 -7 109 1 147c10 45 36 86 77 112c28 18 66 31 112 31c110 0 151 -60 151 -107c0 -40 -25 -61 -54 -61c-9 0 -20 3 -26 7c-7 6 -11 11 -9 20c2 12 5 24 5 36c0 43 -24 75 -74 75c-49 0 -81 -35 -80 -119c0 -40 4 -79 9 -141
c103 0 123 1 165 3l-14 -41c-25 0 -64 2 -148 2c0 -43 -6 -94 -25 -132c-18 -32 -46 -61 -87 -91c218 3 290 7 300 12c6 4 10 7 15 20c7 23 15 49 20 66l30 5c-16 -74 -22 -144 -22 -181l-7 -5c-83 6 -219 7 -300 7c-65 0 -93 -2 -121 -4l-6 9l22 53c34 21 70 52 74 123
c2 38 0 82 -4 118c-23 0 -57 0 -92 -2z" />
    <glyph glyph-name="yen.fitted" unicode="&#xe0d2;" horiz-adv-x="489" 
d="M-11 590l1 27c31 0 72 -2 113 -2c60 0 89 2 122 2l2 -27c-14 -1 -29 -3 -45 -5c-10 -1 -11 -7 -6 -18c20 -43 64 -131 99 -201c44 86 81 169 91 192c9 23 5 29 -58 32l3 27c25 0 64 -2 95 -2c26 0 55 2 82 2l1 -27c-41 -2 -58 -9 -83 -46c-29 -41 -78 -143 -112 -208
c51 0 73 2 126 3l-10 -39c-17 0 -67 1 -120 2v-74c59 0 95 1 123 2l-10 -40c-20 1 -63 3 -114 3c0 -44 1 -110 3 -137c2 -17 7 -23 23 -24c17 -2 38 -4 67 -6l1 -29c-42 1 -92 3 -157 3c-31 0 -82 -2 -133 -3l-1 29c25 2 48 5 65 7c20 3 28 13 29 31s3 82 3 129
c-46 0 -84 0 -117 -2l5 41c30 -1 69 -3 114 -3v73c-55 0 -89 0 -127 -2l10 40c15 0 49 -2 111 -3c-31 62 -88 169 -116 211c-23 36 -36 41 -80 42z" />
    <glyph glyph-name="zero.taboldstyle" unicode="&#xf643;" horiz-adv-x="489" 
d="M250 447h1c131 0 206 -94 206 -225c0 -138 -82 -236 -216 -236c-136 0 -209 89 -209 223c0 132 84 238 218 238zM244 416h-1c-33 0 -57 -16 -74 -48c-19 -34 -29 -90 -29 -148c0 -55 8 -105 23 -140c18 -41 46 -63 87 -63c31 0 55 16 73 45c19 32 28 89 28 156
c0 66 -13 125 -33 156c-19 29 -42 42 -74 42z" />
    <glyph glyph-name="one.taboldstyle" unicode="&#xf644;" horiz-adv-x="489" 
d="M390 25v-29c-54 1 -113 4 -154 4c-36 0 -93 -3 -137 -4l-4 29l61 4c26 2 37 7 39 20s5 64 5 118v97c0 46 -1 92 -3 110c-1 10 -4 14 -14 12l-78 -8l5 33c77 9 164 24 194 36c-1 -36 -4 -85 -4 -182v-103c0 -65 2 -98 4 -113c1 -10 8 -17 17 -18z" />
    <glyph glyph-name="two.taboldstyle" unicode="&#xf645;" horiz-adv-x="489" 
d="M431 162l29 -15c-11 -26 -34 -99 -49 -153c-80 4 -196 6 -376 6l-2 9c9 15 29 54 36 59c33 13 74 35 116 65c46 34 99 94 99 165c0 29 -7 53 -17 69c-11 18 -35 33 -67 33c-88 0 -108 -77 -115 -130h-17l-22 32c11 64 81 145 192 145c82 0 158 -41 158 -145
c0 -64 -43 -106 -107 -149c-30 -18 -75 -47 -133 -77l1 -4c104 0 210 5 229 10c13 3 18 12 21 17c5 11 16 36 24 63z" />
    <glyph glyph-name="three.taboldstyle" unicode="&#xf646;" horiz-adv-x="489" 
d="M82 288l-24 34c18 66 92 125 186 125c84 0 152 -42 152 -129c0 -46 -26 -78 -54 -97c-25 -16 -60 -31 -95 -43v-3c76 -5 123 -24 150 -50c24 -24 34 -55 34 -92c0 -55 -28 -99 -61 -125c-40 -31 -90 -51 -163 -51c-112 0 -162 55 -162 91c0 28 20 45 42 45
c16 0 23 -11 29 -28c18 -50 51 -78 98 -78c74 0 102 61 102 139c0 72 -29 123 -115 123c-16 0 -34 -3 -48 -7l-19 19l6 12c27 4 58 11 80 21c27 12 70 40 70 112c0 48 -22 99 -85 99c-56 0 -95 -31 -108 -117h-15z" />
    <glyph glyph-name="four.taboldstyle" unicode="&#xf647;" horiz-adv-x="489" 
d="M276 80c6 119 6 233 8 292c-70 -86 -141 -186 -202 -277c19 -7 94 -15 194 -15zM32 55l-13 27c80 106 172 226 266 338c37 6 77 20 91 27l7 -6c-4 -83 -6 -225 -6 -360c44 1 76 9 98 16l-2 -27c-21 -13 -58 -23 -96 -26c0 -48 0 -112 3 -161c-51 -2 -86 -10 -107 -17
l-6 6c4 41 5 81 8 168c-111 0 -206 8 -243 15z" />
    <glyph glyph-name="five.taboldstyle" unicode="&#xf648;" horiz-adv-x="489" 
d="M93 103l-22 20c22 66 40 276 36 314c21 -8 79 -18 136 -18c92 0 134 6 163 43l16 -17c-14 -39 -39 -71 -69 -88c-26 -15 -67 -23 -113 -23c-40 0 -81 4 -100 8c-7 -56 -18 -139 -28 -184c34 27 86 49 137 49c101 0 173 -45 174 -154c0 -40 -11 -83 -35 -115
c-34 -44 -91 -80 -185 -80c-109 0 -160 55 -160 93c0 28 21 44 42 44c16 0 23 -11 29 -28c17 -51 48 -80 97 -80c76 0 101 68 101 146c0 48 -13 83 -36 104c-20 20 -41 26 -72 26c-58 0 -89 -31 -111 -60z" />
    <glyph glyph-name="six.taboldstyle" unicode="&#xf649;" horiz-adv-x="489" 
d="M407 594l3 -31c-12 2 -26 3 -38 3c-138 0 -217 -124 -227 -259c39 40 91 78 151 78c98 0 159 -70 159 -180c0 -66 -22 -115 -52 -150c-35 -40 -90 -68 -157 -68c-57 0 -102 14 -136 44c-48 43 -74 117 -74 204c0 128 43 223 114 287c64 58 140 78 209 78
c23 0 35 -2 48 -6zM256 334h-1c-56 0 -88 -37 -106 -79c-6 -17 -7 -28 -7 -48c0 -38 4 -75 16 -109c17 -48 48 -80 91 -80c33 0 61 15 79 55c16 35 21 77 21 119c0 29 -4 54 -14 81c-13 38 -43 61 -79 61z" />
    <glyph glyph-name="seven.taboldstyle" unicode="&#xf64a;" horiz-adv-x="489" 
d="M256 433h1c91 0 156 0 179 2l5 -7c-6 -26 -19 -73 -37 -106c-90 -163 -168 -320 -170 -467l-6 -5c-26 0 -53 5 -69 13c-10 6 -18 15 -20 27c-1 11 1 21 7 40c37 114 182 310 230 416c-41 4 -93 4 -151 4c-104 0 -117 -7 -128 -35c-10 -23 -18 -46 -28 -74l-28 8
c22 63 30 167 28 196c20 -9 46 -12 187 -12z" />
    <glyph glyph-name="eight.taboldstyle" unicode="&#xf64b;" horiz-adv-x="489" 
d="M252 598h1c84 0 163 -52 163 -140c0 -38 -15 -62 -33 -79c-17 -16 -42 -33 -76 -55c117 -57 137 -106 137 -166c0 -47 -20 -89 -53 -118c-40 -34 -96 -53 -157 -53c-121 0 -192 54 -192 150c0 41 20 67 39 86c19 18 46 35 83 59c-68 38 -100 82 -100 147
c0 39 11 70 29 95c33 47 90 74 159 74zM238 567h-1c-48 0 -91 -33 -91 -96c0 -29 9 -54 31 -72c26 -22 70 -44 103 -59c40 27 61 64 61 111c0 65 -38 116 -103 116zM249 18h1c59 0 105 35 105 98c0 61 -41 95 -160 151c-37 -21 -70 -58 -70 -118c0 -64 39 -131 124 -131z
" />
    <glyph glyph-name="nine.taboldstyle" unicode="&#xf64c;" horiz-adv-x="489" 
d="M86 -140l-2 31c18 -2 38 -3 62 1c110 10 183 100 193 240c-39 -38 -90 -66 -141 -66c-102 0 -158 76 -158 174c0 50 15 94 40 128c34 46 89 78 165 78c53 0 98 -16 130 -48c53 -52 70 -127 70 -206c0 -122 -44 -215 -106 -269c-58 -50 -127 -70 -191 -70
c-23 0 -46 3 -62 7zM237 416h-1c-31 0 -55 -15 -71 -48c-15 -31 -22 -63 -22 -107c0 -85 37 -144 98 -144c51 0 77 27 92 58c6 14 9 27 9 53c0 63 -14 121 -34 149c-17 25 -40 39 -71 39z" />
    <glyph glyph-name="dollar.taboldstyle" unicode="&#xf653;" horiz-adv-x="489" 
d="M136 383v-1c0 -39 32 -60 94 -78c6 59 11 123 12 152c-66 1 -106 -29 -106 -73zM355 102v1c0 51 -59 66 -101 81c-4 -52 -10 -120 -12 -161c56 1 113 23 113 79zM249 562l39 7l-8 -84c38 -3 78 -17 95 -31l18 36l26 -6c-14 -59 -15 -129 -15 -174l-28 -1
c-4 89 -43 132 -99 143c-3 -28 -9 -96 -14 -159c82 -26 117 -39 136 -54c34 -23 46 -54 46 -93c0 -42 -18 -77 -43 -100c-32 -30 -88 -51 -163 -54l-6 -84l-41 -9l10 94c-55 2 -121 17 -163 31c7 40 10 90 12 162l27 5c-2 -113 55 -157 128 -165c5 43 9 103 14 168
c-26 9 -60 21 -81 30c-66 25 -87 65 -87 116c0 48 19 84 56 110c30 22 78 37 137 38z" />
    <glyph glyph-name="cent.taboldstyle" unicode="&#xf654;" horiz-adv-x="489" 
d="M277 516l39 7l-8 -86c83 -5 141 -42 141 -104c0 -33 -22 -53 -53 -53c-22 0 -33 14 -29 28c2 12 4 19 4 35c0 34 -21 59 -66 64c-10 -114 -19 -245 -27 -362c81 -1 124 37 149 107h16l4 -42c-25 -53 -92 -98 -171 -103l-6 -84l-40 -9l10 92c-70 3 -124 28 -154 63
c-28 32 -45 80 -45 141c0 133 96 223 231 228zM151 221v-1c0 -80 25 -154 92 -171c11 110 20 255 27 360c-85 -8 -119 -100 -119 -188z" />
    <glyph glyph-name="Euro.taboldstyle" unicode="&#xf64e;" horiz-adv-x="489" 
d="M180 331l217 1l-11 -35l-208 1c-1 -14 -1 -36 -1 -50l195 1l-11 -35l-183 1c4 -70 28 -184 131 -184c50 0 96 21 126 108l26 -15c-32 -95 -88 -137 -179 -137c-162 0 -204 125 -212 228h-56l10 33h45c0 14 0 36 2 50h-37l10 33h30c16 95 76 216 231 216
c110 0 150 -58 150 -100c0 -36 -22 -55 -50 -55c-8 0 -17 3 -23 8c-6 4 -9 11 -7 18c2 10 4 21 4 35c0 44 -29 66 -75 66c-93 0 -117 -120 -124 -188z" />
    <glyph glyph-name="florin.taboldstyle" unicode="&#xf64f;" horiz-adv-x="489" 
d="M59 290l13 39c25 -1 55 -2 83 -2c16 106 39 162 76 204c39 43 86 61 133 61c52 0 93 -26 93 -72c0 -34 -25 -51 -50 -51c-16 0 -33 8 -30 23c2 8 4 21 4 30c0 29 -12 41 -34 41c-27 0 -45 -28 -57 -71c-10 -37 -19 -93 -28 -165c43 0 76 1 119 2l-11 -39
c-34 1 -71 2 -113 2c-16 -106 -25 -176 -41 -252c-17 -83 -50 -137 -103 -169c-33 -19 -61 -26 -95 -26c-49 0 -87 26 -87 61c0 29 26 48 48 48c16 0 23 -10 28 -25c9 -28 23 -50 45 -50c28 0 40 24 53 90c15 91 29 200 45 323c-20 0 -50 0 -91 -2z" />
    <glyph glyph-name="sterling.taboldstyle" unicode="&#xf651;" horiz-adv-x="489" 
d="M16 254l13 38c18 -1 35 -1 72 -1c-5 51 -6 85 1 118c17 91 97 138 184 138c106 0 143 -55 143 -98c0 -36 -23 -57 -53 -57c-9 0 -20 3 -27 7c-6 6 -10 11 -8 20c2 10 5 21 5 32c0 39 -20 67 -67 67c-45 0 -76 -32 -76 -108c0 -38 5 -69 9 -119c102 0 113 1 156 3l-14 -40
c-24 0 -56 2 -142 2c0 -41 -5 -72 -26 -107c-17 -27 -41 -50 -77 -74c206 3 273 6 282 11c6 4 11 7 15 18c8 21 17 47 22 64l29 4c-15 -68 -23 -140 -23 -174l-6 -4c-80 5 -209 6 -286 6c-62 0 -91 -2 -118 -3l-5 8l21 53c35 21 67 52 69 119c2 30 -2 53 -5 79
c-21 0 -50 0 -88 -2z" />
    <glyph glyph-name="yen.taboldstyle" unicode="&#xf652;" horiz-adv-x="489" 
d="M5 508l1 28c30 0 71 -3 108 -3c59 0 90 3 123 3l2 -28c-14 -1 -29 -3 -43 -4c-10 -2 -12 -7 -7 -19c19 -36 54 -103 89 -168c40 72 70 135 81 160c10 22 6 28 -56 31l3 28c25 0 62 -2 94 -2c25 0 54 2 81 2l1 -28c-42 -2 -58 -8 -83 -45c-26 -40 -70 -116 -102 -175
c50 0 68 1 120 3l-10 -40c-17 0 -61 2 -114 3v-70c58 0 89 1 117 3l-10 -40c-20 1 -57 2 -108 3c0 -33 1 -66 3 -93c2 -16 7 -23 23 -25c17 -2 37 -4 65 -6l1 -29c-41 1 -89 3 -155 3c-29 0 -86 -2 -129 -3l-1 29c25 2 46 5 63 7c19 3 27 11 28 29c2 18 3 58 4 88
c-47 0 -80 0 -113 -2l5 40c30 -1 65 -3 109 -3v69c-54 0 -84 0 -121 -2l10 40c15 0 44 -2 105 -3c-31 58 -76 136 -104 178c-24 34 -36 40 -80 41z" />
    <glyph glyph-name="colonmonetary.taboldstyle" unicode="&#xf64d;" horiz-adv-x="489" 
d="M331 605l32 5l-8 -77c47 -11 98 -41 98 -91c0 -38 -24 -50 -43 -50c-14 0 -30 10 -26 25c3 8 5 18 5 30c0 24 -10 45 -37 55c-13 -151 -27 -308 -39 -467c57 8 97 40 118 109l24 -13c-21 -84 -82 -124 -144 -133l-6 -79l-32 -8l8 83c-15 -1 -32 0 -46 2
c-2 -25 -4 -51 -6 -77l-33 -8l10 90c-122 26 -167 141 -167 257c0 132 72 257 213 278l4 69l33 5l-8 -71c17 1 34 0 46 -1zM211 61c13 149 28 297 38 445c-80 -26 -104 -151 -104 -243c0 -82 20 -166 66 -202zM285 34c13 158 27 316 39 476c-13 3 -29 4 -45 2
c-14 -158 -29 -311 -40 -468c14 -6 32 -11 46 -10z" />
    <glyph glyph-name="currency.taboldstyle" unicode="&#xe044;" horiz-adv-x="489" 
d="M244 391h-1c-76 0 -114 -65 -114 -148c0 -98 49 -151 114 -151c75 0 110 66 110 149c0 74 -26 150 -109 150zM247 433h1c31 0 77 -10 103 -32l58 73l44 -43l-70 -62c29 -31 42 -79 42 -127c0 -52 -19 -101 -46 -130l73 -66l-44 -45l-63 82c-27 -21 -67 -34 -107 -34
c-38 0 -80 12 -105 31l-58 -76l-40 43l66 63c-31 33 -45 83 -45 129c0 48 17 97 50 132l-68 60l42 44l59 -75c28 22 73 33 108 33z" />
    <glyph glyph-name="numbersign.taboldstyle" unicode="&#xf650;" horiz-adv-x="489" 
d="M308 336h-104l-31 -125h104zM218 536l43 3c-7 -20 -23 -75 -40 -135h102c14 51 26 97 33 132l45 3c-12 -37 -28 -86 -40 -135c47 0 72 0 92 1c-8 -21 -17 -54 -21 -71c-18 1 -44 1 -89 1l-30 -123c55 1 74 1 102 2c-7 -17 -15 -50 -19 -71c-25 0 -53 0 -100 1
c-15 -66 -25 -115 -33 -154l-45 -3c7 23 22 78 42 157h-103c-19 -71 -31 -124 -38 -154l-43 -6c8 25 20 69 44 160c-30 -1 -54 0 -88 -1c7 20 13 48 17 70c18 0 41 -1 88 -2l32 125c-41 1 -73 0 -103 -1c7 18 14 44 19 70c20 -1 58 -1 100 -1c14 51 26 101 33 132z" />
    <glyph glyph-name="a.superior" unicode="&#xf6e9;" horiz-adv-x="371" 
d="M221 460v24c0 24 -10 50 -52 50c-36 0 -51 -21 -51 -38c0 -7 2 -13 4 -19c3 -10 -1 -17 -9 -22c-9 -7 -21 -11 -36 -11c-20 0 -35 13 -35 32c0 46 64 84 139 84c69 0 97 -26 105 -38c7 -8 13 -24 13 -37c0 -14 -2 -109 -2 -145c0 -24 7 -30 17 -30c13 0 23 13 32 43
l22 -9c-12 -51 -44 -75 -86 -75c-40 0 -59 21 -62 45v4c-33 -30 -70 -49 -110 -49c-53 0 -85 37 -85 81c0 32 20 52 47 60c35 11 128 39 149 50zM221 380v55c-16 -7 -58 -22 -79 -32c-20 -9 -33 -17 -33 -43c0 -30 19 -48 46 -48c30 0 51 18 61 42c3 8 5 17 5 26z" />
    <glyph glyph-name="b.superior" unicode="&#xf6ea;" horiz-adv-x="402" 
d="M12 690v25c36 0 103 4 131 9c-1 -21 -4 -79 -4 -158v-55c37 29 71 49 115 49s76 -18 95 -45c15 -21 23 -53 23 -86c0 -97 -59 -160 -167 -160c-31 0 -64 9 -86 19c-12 -4 -31 -13 -55 -20l-6 4c1 28 3 91 3 165v150c0 46 0 72 -2 89c-1 12 -6 14 -47 14zM218 521h-1
c-34 0 -56 -20 -71 -43c-6 -11 -9 -28 -9 -74c0 -58 5 -70 11 -79c13 -19 32 -29 56 -29c54 0 82 44 82 125c0 32 -7 59 -18 74c-11 17 -28 26 -50 26z" />
    <glyph glyph-name="d.superior" unicode="&#xf6eb;" horiz-adv-x="407" 
d="M202 692l3 24c36 0 108 4 141 7c-2 -35 -5 -83 -6 -159v-140c0 -57 2 -84 3 -102c2 -16 5 -19 19 -19h35l-5 -25c-35 0 -99 -2 -132 -10c0 15 1 36 0 48l-1 1c-28 -26 -66 -48 -108 -48s-74 17 -93 42c-17 22 -27 57 -27 92c0 90 57 157 160 157c30 0 57 -7 71 -17
c0 68 0 109 -1 133c-2 15 -6 17 -59 16zM117 415v-1c0 -25 5 -55 18 -74c12 -20 32 -30 54 -30c23 0 47 10 65 43c5 10 9 27 8 85c0 34 -1 50 -4 59c-9 17 -29 35 -59 35c-58 0 -82 -50 -82 -117z" />
    <glyph glyph-name="e.superior" unicode="&#xf6ec;" horiz-adv-x="344" 
d="M316 359c-21 -60 -71 -90 -137 -90c-54 0 -93 14 -119 43c-18 21 -30 55 -30 96c0 79 52 152 156 152c113 0 132 -77 132 -114c0 -15 -5 -24 -15 -29c-9 -3 -43 -6 -78 -7c-33 -1 -79 -1 -108 0c-1 -23 5 -49 16 -67c13 -21 37 -35 68 -35c48 0 73 19 94 64zM183 534h-1
c-40 0 -61 -45 -64 -95c17 -2 31 -2 51 -2c30 0 47 1 57 3c9 3 12 9 12 19c0 37 -15 75 -55 75z" />
    <glyph glyph-name="egrave.superior" unicode="&#xe047;" horiz-adv-x="345" 
d="M212 602l-18 -12c-39 32 -83 67 -92 75c-10 9 -17 22 -17 32c0 19 17 32 33 32c18 0 30 -9 39 -23c10 -17 43 -85 55 -104zM316 359c-21 -60 -71 -90 -137 -90c-54 0 -93 14 -118 43c-18 21 -31 55 -31 96c0 79 52 152 156 152c113 0 132 -77 132 -114
c0 -15 -5 -24 -15 -29c-9 -3 -43 -6 -78 -7c-33 -1 -79 -1 -108 0c-1 -23 5 -49 16 -67c13 -21 37 -35 68 -35c48 0 73 19 94 64zM183 534h-1c-40 0 -61 -45 -64 -95c17 -2 31 -2 51 -2c30 0 47 1 57 3c9 3 12 9 12 19c0 37 -15 75 -55 75z" />
    <glyph glyph-name="g.superior" unicode="&#xe04c;" horiz-adv-x="366" 
d="M101 242l12 -16c-19 -7 -31 -18 -31 -38c0 -29 38 -51 98 -51c82 0 121 35 121 71c0 25 -21 38 -49 39h-127c-32 0 -62 7 -81 26c-13 12 -20 27 -20 48c0 32 26 56 51 70c-19 16 -28 40 -28 64c0 73 70 106 138 106c43 0 69 -11 77 -16c23 16 47 32 77 32
c19 0 34 -12 34 -21c-1 -10 -21 -29 -31 -32c-8 5 -19 11 -35 11c-9 0 -16 -1 -23 -4c20 -17 31 -44 31 -70c0 -72 -72 -102 -139 -102c-39 0 -66 8 -79 16c-17 -5 -25 -16 -25 -31c0 -17 19 -27 42 -27c41 0 85 2 153 2c22 0 45 -5 63 -16c21 -16 30 -40 30 -65
c0 -89 -101 -130 -198 -130c-87 0 -141 29 -141 73c0 17 9 30 29 41c11 7 34 15 51 20zM180 535h-1c-32 0 -50 -26 -50 -75c0 -39 15 -76 52 -76s51 33 51 76c0 40 -13 75 -52 75z" />
    <glyph glyph-name="h.superior" unicode="&#xf637;" horiz-adv-x="419" 
d="M72 394v191c0 57 -1 75 -2 91c-1 14 -5 14 -50 15v25c53 0 94 4 134 7c-1 -24 -4 -71 -4 -138v-77c27 24 65 52 117 52c43 0 64 -21 73 -36c8 -14 12 -30 12 -56v-95c0 -22 0 -40 1 -55c1 -12 7 -16 48 -18l-3 -25c-20 0 -54 2 -85 2c-34 0 -61 -2 -80 -2v25
c32 1 38 4 39 21c1 18 2 39 2 74c0 67 -2 86 -7 100c-5 15 -19 25 -40 25c-28 0 -53 -14 -69 -45c-6 -10 -8 -20 -8 -37v-66c0 -23 1 -39 2 -54c1 -13 6 -16 42 -18l-2 -25c-19 0 -54 2 -84 2c-32 0 -63 -2 -84 -2v25c39 2 45 4 46 20c1 18 2 38 2 74z" />
    <glyph glyph-name="i.superior" unicode="&#xf6ed;" horiz-adv-x="217" 
d="M106 701h1c28 0 44 -16 44 -44c0 -26 -21 -43 -48 -43c-23 0 -43 16 -43 42c0 27 19 45 46 45zM199 301v-26c-25 0 -56 2 -93 2c-40 0 -63 -2 -87 -2v26c45 1 50 7 51 19c2 12 3 38 3 78v49c0 36 -1 57 -2 68c-2 8 -7 10 -49 9l1 25c30 1 99 6 131 11
c-1 -16 -3 -46 -3 -102v-67c0 -38 1 -57 2 -71s7 -17 46 -19z" />
    <glyph glyph-name="l.superior" unicode="&#xf6ee;" horiz-adv-x="212" 
d="M16 691l-1 25c54 0 94 4 134 7c-1 -25 -4 -69 -4 -143v-156c0 -64 0 -88 2 -103c1 -16 8 -18 49 -20l-2 -26c-27 0 -64 2 -100 2c-40 0 -65 -2 -83 -2v26c44 1 51 6 52 22c1 11 4 55 4 109v153c0 58 -1 76 -2 91c-1 14 -6 15 -49 15z" />
    <glyph glyph-name="m.superior" unicode="&#xf6ef;" horiz-adv-x="617" 
d="M72 394v49c0 33 0 55 -2 73c-1 8 -5 11 -47 11l1 24c32 -1 91 5 119 9c2 -14 6 -43 7 -55c29 25 64 55 119 55c40 0 58 -18 66 -30c7 -8 11 -17 13 -24c28 25 67 54 118 54c42 0 63 -20 72 -35c8 -14 12 -34 12 -60v-91c0 -23 0 -41 1 -55c2 -14 6 -18 47 -19l-3 -25
c-19 0 -52 2 -83 2c-36 0 -61 -2 -81 -2v25c33 1 38 4 39 21c1 19 2 39 2 75c0 67 -2 85 -7 100c-6 14 -19 24 -38 24c-26 0 -52 -15 -69 -46c-5 -11 -8 -21 -8 -36v-64c0 -23 1 -41 2 -55s6 -17 43 -19l-3 -25c-21 0 -51 2 -82 2c-35 0 -59 -2 -80 -2v25c33 2 38 5 40 21
c1 19 2 39 2 75v39c0 28 -2 48 -7 61c-6 16 -19 24 -37 24c-28 0 -53 -17 -68 -46c-7 -11 -10 -22 -10 -37v-65c0 -22 1 -39 2 -54c1 -13 6 -16 41 -18l-3 -25c-18 0 -51 2 -80 2c-32 0 -60 -2 -85 -2v25c38 2 44 4 45 20c1 18 2 39 2 74z" />
    <glyph glyph-name="n.superior" unicode="&#x207f;" horiz-adv-x="421" 
d="M26 275v25c39 2 45 4 46 21c1 18 2 37 2 73v48c0 34 0 56 -2 74c-1 8 -6 11 -47 11l1 24c31 -1 88 4 118 9c3 -14 7 -41 8 -53c28 24 64 53 117 53c43 0 64 -20 73 -35c8 -14 12 -32 12 -58v-94c0 -22 0 -39 2 -54c0 -13 5 -17 46 -19l-3 -25c-19 0 -53 2 -84 2
c-34 0 -61 -2 -80 -2v25c32 1 38 5 39 21c1 19 2 39 2 74c0 67 -2 87 -7 101c-5 15 -19 24 -38 24c-28 0 -55 -15 -71 -45c-5 -11 -8 -21 -8 -38v-65c0 -23 1 -39 2 -54c1 -12 6 -16 42 -18l-3 -25c-18 0 -52 2 -82 2c-32 0 -63 -2 -85 -2z" />
    <glyph glyph-name="o.superior" unicode="&#xf6f0;" horiz-adv-x="383" 
d="M196 561h1c90 0 155 -49 155 -144c0 -85 -61 -148 -165 -148s-156 60 -156 141c0 84 60 151 165 151zM193 533h-1c-25 0 -40 -11 -52 -28c-13 -19 -20 -51 -20 -90c0 -34 5 -63 16 -84c12 -23 32 -35 57 -35c23 0 41 10 54 32c11 21 17 53 17 91c0 36 -6 63 -15 81
c-13 22 -30 33 -56 33z" />
    <glyph glyph-name="r.superior" unicode="&#xf6f1;" horiz-adv-x="308" 
d="M216 301l-3 -26c-32 1 -67 2 -100 2c-34 0 -64 -1 -94 -2l4 26c39 0 44 6 46 16c2 15 3 42 3 76v53c0 33 -1 53 -2 66c-1 7 -4 11 -12 11h-36l-1 26c55 1 101 7 119 12l3 -3c3 -20 4 -45 5 -70h3c26 54 53 72 91 72s52 -29 52 -51c0 -29 -21 -43 -40 -43
c-12 0 -19 4 -23 14c-6 15 -13 26 -28 26c-24 0 -40 -29 -48 -58c-4 -15 -6 -34 -6 -54c0 -24 1 -56 2 -72c1 -15 7 -18 65 -21z" />
    <glyph glyph-name="s.superior" unicode="&#xf6f2;" horiz-adv-x="321" 
d="M263 456l-22 -5c-5 48 -37 83 -90 83c-32 0 -50 -16 -50 -37c0 -12 7 -23 23 -29c26 -10 83 -23 113 -34c38 -13 54 -35 54 -68c0 -31 -16 -54 -35 -68c-21 -15 -57 -29 -111 -29c-43 0 -87 10 -111 17c0 16 2 59 1 108l22 1c2 -16 5 -38 16 -58c14 -24 46 -41 84 -41
c42 0 65 17 65 39c0 12 -6 23 -25 29c-27 9 -66 19 -97 29c-40 13 -61 36 -61 73c0 31 14 52 32 68c18 15 51 26 89 26c35 0 65 -10 78 -21l9 28l21 -5c-6 -37 -7 -73 -5 -106z" />
    <glyph glyph-name="t.superior" unicode="&#xf6f3;" horiz-adv-x="272" 
d="M151 550h103l-5 -27l-98 -4c-1 -18 -2 -42 -2 -91c0 -52 0 -83 3 -103c3 -13 12 -21 27 -21c30 0 52 26 61 61h11l9 -27c-19 -45 -63 -69 -113 -69c-33 0 -54 10 -64 22c-9 9 -14 22 -14 41c-1 57 2 148 3 187l-51 5l5 26h46c0 21 -1 44 0 64c33 10 61 24 76 34l7 -2
c-1 -17 -4 -61 -4 -96z" />
    <glyph glyph-name="zero.superior" unicode="&#x2070;" horiz-adv-x="367" 
d="M199 782h1c103 0 152 -80 152 -178c0 -105 -54 -187 -162 -187c-106 0 -154 78 -154 179c0 99 58 186 163 186zM196 755h-1c-20 0 -36 -10 -49 -33c-15 -28 -22 -77 -22 -123c0 -47 6 -88 20 -118c10 -22 28 -36 51 -36s40 12 51 34c14 27 21 74 21 124
c0 53 -8 95 -20 119c-12 23 -27 33 -51 33z" />
    <glyph glyph-name="one.superior" unicode="&#xb9;" horiz-adv-x="367" 
d="M310 449l1 -26c-49 0 -87 3 -117 3c-37 0 -72 -3 -106 -3l-2 26l50 4c17 2 22 8 23 17c1 19 3 47 3 88v86c0 38 -1 65 -2 84c-1 6 -3 9 -9 8c-10 -2 -37 -6 -61 -11l5 30c42 6 123 19 146 28l4 -2c0 -20 -3 -60 -3 -132v-91c0 -43 1 -65 2 -88c1 -10 8 -15 18 -16z" />
    <glyph glyph-name="two.superior" unicode="&#xb2;" horiz-adv-x="367" 
d="M328 548l24 -8c-18 -64 -24 -101 -26 -118c-16 1 -53 3 -200 3c-35 0 -62 0 -85 -2l-2 6c4 12 12 30 17 43c90 48 148 102 166 148c9 22 12 39 12 64c0 34 -14 71 -57 71s-58 -27 -58 -65c0 -8 2 -20 3 -28c2 -7 -1 -13 -7 -17c-6 -5 -17 -8 -27 -8c-26 0 -41 16 -41 44
c0 24 16 50 41 69c24 18 61 32 104 32c38 0 69 -10 89 -23c29 -19 43 -49 43 -85c0 -33 -12 -59 -40 -83c-24 -21 -78 -58 -151 -105c100 2 145 5 159 6c10 0 14 4 18 11c3 8 13 30 18 45z" />
    <glyph glyph-name="three.superior" unicode="&#xb3;" horiz-adv-x="367" 
d="M197 782h1c53 0 126 -21 126 -84c0 -31 -19 -48 -40 -60c-19 -9 -37 -15 -63 -22v-3c44 -2 79 -12 99 -27c18 -14 28 -33 28 -60c0 -35 -22 -61 -44 -77c-23 -16 -68 -32 -124 -32c-75 0 -138 32 -138 78c0 21 18 40 43 40c18 0 23 -9 28 -28c10 -42 36 -64 73 -64
c46 0 69 31 69 77c0 40 -18 74 -79 74c-15 0 -29 -2 -41 -5l-15 20l4 7c21 1 47 5 63 13c24 9 51 25 51 66c0 32 -19 60 -57 60c-45 0 -61 -24 -61 -56c0 -7 1 -16 2 -23c1 -10 -11 -18 -27 -18c-24 0 -40 12 -40 37c0 36 50 87 142 87z" />
    <glyph glyph-name="four.superior" unicode="&#x2074;" horiz-adv-x="367" 
d="M210 548c2 51 4 132 4 174c-49 -57 -99 -117 -136 -164c13 -4 65 -10 132 -10zM31 527l-8 21c75 80 159 177 190 215c23 5 57 13 77 20l5 -3c-2 -40 -3 -137 -3 -197v-33c39 2 60 10 72 15v-22c-12 -10 -37 -21 -72 -26c0 -25 1 -58 2 -90c-37 0 -66 -4 -84 -9l-5 3
c2 22 3 52 4 93c-75 0 -158 6 -178 13z" />
    <glyph glyph-name="five.superior" unicode="&#x2075;" horiz-adv-x="367" 
d="M83 563l-19 20c17 46 31 172 29 197c20 -6 64 -12 113 -12c69 0 101 5 121 32l14 -13c-10 -34 -33 -59 -54 -69c-18 -9 -48 -14 -87 -14c-33 0 -68 3 -81 5c-5 -26 -12 -71 -21 -99c12 8 28 16 47 23c19 6 41 10 64 10c77 0 137 -30 137 -105c0 -27 -10 -55 -29 -75
c-24 -25 -72 -46 -138 -46c-77 0 -135 31 -135 77c0 20 19 37 44 37c16 0 22 -10 28 -29c11 -40 33 -59 68 -59c49 0 71 36 71 86c0 27 -8 51 -26 64c-13 11 -30 16 -53 16c-48 0 -78 -22 -93 -46z" />
    <glyph glyph-name="six.superior" unicode="&#x2076;" horiz-adv-x="367" 
d="M313 778l2 -28c-10 3 -26 4 -37 4c-95 0 -145 -66 -151 -143c14 12 32 24 51 33s40 15 60 15c74 0 114 -43 114 -109c0 -89 -78 -133 -159 -133c-93 0 -155 53 -155 153c0 72 29 132 82 170c43 31 92 42 146 42c21 0 37 -3 47 -4zM196 443h1c49 0 70 49 70 98
c0 42 -19 81 -61 81c-37 0 -63 -23 -76 -48c-4 -10 -5 -20 -5 -32c0 -42 24 -99 71 -99z" />
    <glyph glyph-name="seven.superior" unicode="&#x2077;" horiz-adv-x="367" 
d="M69 640l-25 4c15 47 21 121 20 137c14 -4 36 -6 145 -6c96 0 116 0 132 1l4 -5c-6 -22 -15 -47 -29 -68c-70 -101 -119 -191 -118 -281l-7 -5c-19 0 -42 4 -54 9c-9 4 -16 13 -16 22c0 12 2 19 6 30c25 71 117 166 158 230c-21 3 -58 3 -102 3c-78 0 -87 -3 -95 -22
c-7 -14 -14 -29 -19 -49z" />
    <glyph glyph-name="eight.superior" unicode="&#x2078;" horiz-adv-x="367" 
d="M203 782h1c54 0 122 -24 122 -87c0 -21 -10 -36 -23 -46c-12 -9 -27 -19 -45 -30c75 -31 89 -57 89 -95c0 -32 -17 -57 -42 -74c-27 -20 -72 -33 -117 -33c-87 0 -143 37 -143 94c0 23 11 38 27 51c14 10 27 18 54 31c-45 21 -64 46 -64 84c0 25 10 46 26 63
c21 23 59 42 115 42zM192 755h-1c-34 0 -62 -20 -62 -51c0 -17 7 -30 26 -41c20 -13 49 -23 77 -33c24 14 36 33 36 58c0 44 -34 67 -76 67zM201 444h1c32 0 72 14 72 54c0 30 -30 51 -120 83c-24 -11 -43 -30 -43 -62c0 -35 29 -75 90 -75z" />
    <glyph glyph-name="nine.superior" unicode="&#x2079;" horiz-adv-x="367" 
d="M74 422l-1 27c14 -2 32 -4 53 -1c79 7 126 60 136 137c-31 -25 -70 -43 -109 -43c-76 0 -115 47 -115 108c0 84 75 133 157 133c100 0 154 -64 154 -161c0 -74 -33 -133 -78 -165c-45 -31 -98 -41 -144 -41c-20 0 -40 3 -53 6zM191 756h-1c-45 0 -68 -47 -68 -93
c0 -47 26 -83 69 -83c33 0 56 18 67 39c5 9 7 24 7 37c0 48 -22 100 -74 100z" />
    <glyph glyph-name="period.superior" unicode="&#xf6e8;" horiz-adv-x="166" 
d="M93 531h1c32 0 53 -25 53 -57c0 -34 -25 -57 -54 -57s-55 23 -55 57c0 33 26 57 55 57z" />
    <glyph glyph-name="comma.superior" unicode="&#xf6e2;" horiz-adv-x="166" 
d="M39 338l-5 23c44 9 80 39 80 78c0 5 -3 5 -6 2c-6 -3 -19 -7 -27 -7c-22 0 -42 20 -42 49s24 53 53 53c39 0 61 -33 61 -79c0 -77 -69 -115 -114 -119z" />
    <glyph glyph-name="dollar.superior" unicode="&#xf6e4;" horiz-adv-x="372" 
d="M117 702v-1c0 -27 20 -40 68 -54c4 42 8 85 10 106c-50 1 -78 -20 -78 -51zM278 501v1c0 36 -42 44 -74 55c-3 -37 -7 -83 -9 -112c42 1 83 17 83 56zM200 831l31 5l-6 -60c28 -2 56 -13 69 -22l13 26l20 -5c-10 -42 -11 -93 -11 -125l-22 -1c-3 62 -30 93 -72 102
c-2 -21 -6 -67 -10 -112c60 -18 86 -28 101 -39c25 -16 34 -39 34 -67c0 -80 -86 -110 -154 -112l-4 -60l-32 -6l7 67c-41 1 -89 12 -121 22c5 30 7 66 9 118l23 3c-1 -82 38 -112 91 -118c4 33 7 71 11 117c-19 7 -44 15 -60 21c-49 18 -65 49 -65 86c0 77 76 107 144 107z
" />
    <glyph glyph-name="cent.superior" unicode="&#xf6e0;" horiz-adv-x="369" 
d="M216 801l31 6l-6 -60c60 -4 104 -30 104 -73c0 -23 -16 -37 -39 -37c-16 0 -26 9 -24 19c2 9 4 13 4 25c0 23 -16 39 -48 43c-7 -77 -13 -167 -19 -245c58 0 91 24 109 74h12l3 -31c-18 -38 -67 -70 -125 -73l-4 -59l-31 -7l6 65c-51 2 -90 18 -113 44
c-20 22 -32 56 -32 99c0 93 71 153 169 156zM127 598v-1c0 -54 17 -103 64 -115c7 74 14 171 19 243c-61 -5 -83 -68 -83 -127z" />
    <glyph glyph-name="hyphen.superior" unicode="&#xf6e6;" horiz-adv-x="232" 
d="M38 571l10 54c57 -2 106 -2 166 0l-10 -54c-61 2 -109 2 -166 0z" />
    <glyph glyph-name="parenleft.superior" unicode="&#x207d;" horiz-adv-x="256" 
d="M233 349l-10 -26c-32 13 -62 32 -89 61c-50 50 -77 122 -77 216c0 90 29 167 80 219c24 24 55 45 86 58l10 -23c-28 -13 -68 -46 -85 -115c-11 -38 -15 -82 -15 -139c0 -55 4 -102 16 -142c17 -67 56 -97 84 -109z" />
    <glyph glyph-name="parenright.superior" unicode="&#x207e;" horiz-adv-x="256" 
d="M49 851l10 26c32 -13 62 -32 89 -60c50 -51 77 -123 77 -217c0 -90 -28 -167 -80 -218c-25 -25 -55 -46 -86 -59l-10 23c28 13 68 46 85 115c11 38 15 82 15 139c0 55 -4 102 -16 142c-17 67 -56 98 -84 109z" />
    <glyph glyph-name="zero.inferior" unicode="&#x2080;" horiz-adv-x="367" 
d="M149 230h1c103 0 152 -80 152 -178c0 -105 -54 -187 -162 -187c-106 0 -154 78 -154 179c0 99 58 186 163 186zM146 203h-1c-20 0 -36 -10 -49 -33c-15 -28 -22 -77 -22 -123c0 -47 6 -88 20 -118c10 -22 28 -36 51 -36s40 12 51 34c14 27 21 74 21 124
c0 53 -8 95 -20 119c-12 23 -27 33 -51 33z" />
    <glyph glyph-name="one.inferior" unicode="&#x2081;" horiz-adv-x="367" 
d="M260 -103l1 -26c-49 0 -87 3 -117 3c-37 0 -72 -3 -106 -3l-2 26l50 4c17 2 22 8 23 17c1 19 3 47 3 88v86c0 38 -1 65 -2 84c-1 6 -3 9 -9 8c-10 -2 -37 -6 -61 -11l5 30c42 6 123 19 146 28l4 -2c0 -20 -3 -60 -3 -132v-91c0 -43 1 -65 2 -88c1 -10 8 -15 18 -16z" />
    <glyph glyph-name="two.inferior" unicode="&#x2082;" horiz-adv-x="367" 
d="M278 -4l24 -8c-18 -64 -24 -101 -26 -118c-16 1 -53 3 -200 3c-35 0 -62 0 -85 -2l-2 6c4 12 12 30 17 43c90 48 148 102 166 148c9 22 12 39 12 64c0 34 -14 71 -57 71s-58 -27 -58 -65c0 -8 2 -20 3 -28c2 -7 -1 -13 -7 -17c-6 -5 -17 -8 -27 -8c-26 0 -41 16 -41 44
c0 24 16 50 41 69c24 18 61 32 104 32c38 0 69 -10 89 -23c29 -19 43 -49 43 -85c0 -33 -12 -59 -40 -83c-24 -21 -78 -58 -151 -105c100 2 145 5 159 6c10 0 14 4 18 11c3 8 13 30 18 45z" />
    <glyph glyph-name="three.inferior" unicode="&#x2083;" horiz-adv-x="367" 
d="M147 230h1c53 0 126 -21 126 -84c0 -31 -19 -48 -40 -60c-19 -9 -37 -15 -63 -22v-3c44 -2 79 -12 99 -27c18 -14 28 -33 28 -60c0 -35 -22 -61 -44 -77c-23 -16 -68 -32 -124 -32c-75 0 -138 32 -138 78c0 21 18 40 43 40c18 0 23 -9 28 -28c10 -42 36 -64 73 -64
c46 0 69 31 69 77c0 40 -18 74 -79 74c-15 0 -29 -2 -41 -5l-15 20l4 7c21 1 47 5 63 13c24 9 51 25 51 66c0 32 -19 60 -57 60c-45 0 -61 -24 -61 -56c0 -7 1 -16 2 -23c1 -10 -11 -18 -27 -18c-24 0 -40 12 -40 37c0 36 50 87 142 87z" />
    <glyph glyph-name="four.inferior" unicode="&#x2084;" horiz-adv-x="367" 
d="M160 -4c2 51 4 132 4 174c-49 -57 -99 -117 -136 -164c13 -4 65 -10 132 -10zM-19 -25l-8 21c75 80 159 177 190 215c23 5 57 13 77 20l5 -3c-2 -40 -3 -137 -3 -197v-33c39 2 60 10 72 15v-22c-12 -10 -37 -21 -72 -26c0 -25 1 -58 2 -90c-37 0 -66 -4 -84 -9l-5 3
c2 22 3 52 4 93c-75 0 -158 6 -178 13z" />
    <glyph glyph-name="five.inferior" unicode="&#x2085;" horiz-adv-x="367" 
d="M33 11l-19 20c17 46 31 172 29 197c20 -6 64 -12 113 -12c69 0 101 5 121 32l14 -13c-10 -34 -33 -59 -54 -69c-18 -9 -48 -14 -87 -14c-33 0 -68 3 -81 5c-5 -26 -12 -71 -21 -99c24 16 64 33 111 33c77 0 137 -30 137 -105c0 -27 -10 -55 -29 -75
c-24 -25 -72 -46 -138 -46c-77 0 -135 31 -135 77c0 20 19 37 44 37c16 0 22 -10 28 -29c11 -40 33 -59 68 -59c49 0 71 36 71 86c0 27 -8 51 -26 64c-13 11 -30 16 -53 16c-48 0 -78 -22 -93 -46z" />
    <glyph glyph-name="six.inferior" unicode="&#x2086;" horiz-adv-x="367" 
d="M263 226l2 -28c-10 3 -26 4 -37 4c-95 0 -145 -66 -151 -143c28 24 70 48 111 48c74 0 114 -43 114 -109c0 -89 -78 -133 -159 -133c-93 0 -155 53 -155 153c0 72 29 132 82 170c43 31 92 42 146 42c21 0 37 -3 47 -4zM146 -109h1c49 0 70 49 70 98c0 42 -19 81 -61 81
c-37 0 -63 -23 -76 -48c-4 -10 -5 -20 -5 -32c0 -42 24 -99 71 -99z" />
    <glyph glyph-name="seven.inferior" unicode="&#x2087;" horiz-adv-x="367" 
d="M19 88l-25 4c15 47 21 121 20 137c14 -4 36 -6 145 -6c96 0 116 0 132 1l4 -5c-6 -22 -15 -47 -29 -68c-70 -101 -119 -191 -118 -281l-7 -5c-19 0 -42 4 -54 9c-9 4 -16 13 -16 22c0 12 2 19 6 30c25 71 117 166 158 230c-21 3 -58 3 -102 3c-78 0 -87 -3 -95 -22
c-7 -14 -14 -29 -19 -49z" />
    <glyph glyph-name="eight.inferior" unicode="&#x2088;" horiz-adv-x="367" 
d="M153 230h1c54 0 122 -24 122 -87c0 -21 -10 -36 -23 -46c-12 -9 -27 -19 -45 -30c75 -31 89 -57 89 -95c0 -32 -17 -57 -42 -74c-27 -20 -72 -33 -117 -33c-87 0 -143 37 -143 94c0 23 11 38 27 51c14 10 27 18 54 31c-45 21 -64 46 -64 84c0 25 10 46 26 63
c21 23 59 42 115 42zM142 203h-1c-34 0 -62 -20 -62 -51c0 -17 7 -30 26 -41c20 -13 49 -23 77 -33c24 14 36 33 36 58c0 44 -34 67 -76 67zM151 -108h1c32 0 72 14 72 54c0 30 -30 51 -120 83c-24 -11 -43 -30 -43 -62c0 -35 29 -75 90 -75z" />
    <glyph glyph-name="nine.inferior" unicode="&#x2089;" horiz-adv-x="367" 
d="M24 -130l-1 27c14 -2 32 -4 53 -1c79 7 126 60 136 137c-31 -25 -70 -43 -109 -43c-76 0 -115 47 -115 108c0 84 75 133 157 133c100 0 154 -64 154 -161c0 -74 -33 -133 -78 -165c-45 -31 -98 -41 -144 -41c-20 0 -40 3 -53 6zM141 204h-1c-45 0 -68 -47 -68 -93
c0 -47 26 -83 69 -83c33 0 56 18 67 39c5 9 7 24 7 37c0 48 -22 100 -74 100z" />
    <glyph glyph-name="period.inferior" unicode="&#xf6e7;" horiz-adv-x="166" 
d="M43 -21h1c32 0 53 -25 53 -57c0 -34 -25 -57 -54 -57s-55 23 -55 57c0 33 26 57 55 57z" />
    <glyph glyph-name="comma.inferior" unicode="&#xf6e1;" horiz-adv-x="166" 
d="M-11 -214l-5 23c44 9 80 39 80 78c0 5 -3 5 -6 2c-6 -3 -19 -7 -27 -7c-22 0 -42 20 -42 49s24 53 53 53c39 0 61 -33 61 -79c0 -77 -69 -115 -114 -119z" />
    <glyph glyph-name="dollar.inferior" unicode="&#xf6e3;" horiz-adv-x="372" 
d="M67 150v-1c0 -27 20 -40 68 -54c4 42 8 85 10 106c-50 1 -78 -20 -78 -51zM228 -51v1c0 36 -42 44 -74 55c-3 -37 -7 -83 -9 -112c42 1 83 17 83 56zM150 279l31 5l-6 -60c28 -2 56 -13 69 -22l13 26l20 -5c-10 -42 -11 -93 -11 -125l-22 -1c-3 62 -30 93 -72 102
c-2 -21 -6 -67 -10 -112c60 -18 86 -28 101 -39c25 -16 34 -39 34 -67c0 -80 -86 -110 -154 -112l-4 -60l-32 -6l7 67c-41 1 -89 12 -121 22c5 30 7 66 9 118l23 3c-1 -82 38 -112 91 -118c4 33 7 71 11 117c-19 7 -44 15 -60 21c-49 18 -65 49 -65 86c0 77 76 107 144 107z
" />
    <glyph glyph-name="cent.inferior" unicode="&#xf6df;" horiz-adv-x="369" 
d="M166 249l31 6l-6 -60c60 -4 104 -30 104 -73c0 -23 -16 -37 -39 -37c-16 0 -26 9 -24 19c2 9 4 13 4 25c0 23 -16 39 -48 43c-7 -77 -13 -167 -19 -245c58 0 91 24 109 74h12l3 -31c-18 -38 -67 -70 -125 -73l-4 -59l-31 -7l6 65c-51 2 -90 18 -113 44
c-20 22 -32 56 -32 99c0 93 71 153 169 156zM77 46v-1c0 -54 17 -103 64 -115c7 74 14 171 19 243c-61 -5 -83 -68 -83 -127z" />
    <glyph glyph-name="hyphen.inferior" unicode="&#xf6e5;" horiz-adv-x="232" 
d="M-12 19l10 54c57 -2 106 -2 166 0l-10 -54c-61 2 -109 2 -166 0z" />
    <glyph glyph-name="parenleft.inferior" unicode="&#x208d;" horiz-adv-x="256" 
d="M183 -203l-10 -26c-32 13 -62 32 -89 61c-50 50 -77 122 -77 216c0 90 29 167 80 219c24 24 55 45 86 58l10 -23c-28 -13 -68 -46 -85 -115c-11 -38 -15 -82 -15 -139c0 -55 4 -102 16 -142c17 -67 56 -97 84 -109z" />
    <glyph glyph-name="parenright.inferior" unicode="&#x208e;" horiz-adv-x="256" 
d="M-1 299l10 26c32 -13 62 -32 89 -60c50 -51 77 -123 77 -217c0 -90 -28 -167 -80 -218c-25 -25 -55 -46 -86 -59l-10 23c28 13 68 46 85 115c11 38 15 82 15 139c0 55 -4 102 -16 142c-17 67 -56 98 -84 109z" />
    <glyph glyph-name="zero.numerator" unicode="&#xf661;" horiz-adv-x="367" 
d="M189 634h1c103 0 152 -80 152 -178c0 -105 -54 -187 -162 -187c-106 0 -154 78 -154 179c0 99 58 186 163 186zM186 607h-1c-20 0 -36 -10 -49 -33c-15 -28 -22 -77 -22 -123c0 -47 6 -88 20 -118c10 -22 28 -36 51 -36s40 12 51 34c14 27 21 74 21 124
c0 53 -8 95 -20 119c-12 23 -27 33 -51 33z" />
    <glyph glyph-name="one.numerator" unicode="&#xf662;" horiz-adv-x="367" 
d="M300 301l1 -26c-49 0 -87 3 -117 3c-37 0 -72 -3 -106 -3l-2 26l50 4c17 2 22 8 23 17c1 19 3 47 3 88v86c0 38 -1 65 -2 84c-1 6 -3 9 -9 8c-10 -2 -37 -6 -61 -11l5 30c42 6 123 19 146 28l4 -2c0 -20 -3 -60 -3 -132v-91c0 -43 1 -65 2 -88c1 -10 8 -15 18 -16z" />
    <glyph glyph-name="two.numerator" unicode="&#xf663;" horiz-adv-x="367" 
d="M318 400l24 -8c-18 -64 -24 -101 -26 -118c-16 1 -53 3 -200 3c-35 0 -62 0 -85 -2l-2 6c4 12 12 30 17 43c90 48 148 102 166 148c9 22 12 39 12 64c0 34 -14 71 -57 71s-58 -27 -58 -65c0 -8 2 -20 3 -28c2 -7 -1 -13 -7 -17c-6 -5 -17 -8 -27 -8c-26 0 -41 16 -41 44
c0 24 16 50 41 69c24 18 61 32 104 32c38 0 69 -10 89 -23c29 -19 43 -49 43 -85c0 -33 -12 -59 -40 -83c-24 -21 -78 -58 -151 -105c100 2 145 5 159 6c10 0 14 4 18 11c3 8 13 30 18 45z" />
    <glyph glyph-name="three.numerator" unicode="&#xf664;" horiz-adv-x="367" 
d="M187 634h1c53 0 126 -21 126 -84c0 -31 -19 -48 -40 -60c-19 -9 -37 -15 -63 -22v-3c44 -2 79 -12 99 -27c18 -14 28 -33 28 -60c0 -35 -22 -61 -44 -77c-23 -16 -68 -32 -124 -32c-75 0 -138 32 -138 78c0 21 18 40 43 40c18 0 23 -9 28 -28c10 -42 36 -64 73 -64
c46 0 69 31 69 77c0 40 -18 74 -79 74c-15 0 -29 -2 -41 -5l-15 20l4 7c21 1 47 5 63 13c24 9 51 25 51 66c0 32 -19 60 -57 60c-45 0 -61 -24 -61 -56c0 -7 1 -16 2 -23c1 -10 -11 -18 -27 -18c-24 0 -40 12 -40 37c0 36 50 87 142 87z" />
    <glyph glyph-name="four.numerator" unicode="&#xf665;" horiz-adv-x="367" 
d="M200 400c2 51 4 132 4 174c-49 -57 -99 -117 -136 -164c13 -4 65 -10 132 -10zM21 379l-8 21c75 80 159 177 190 215c23 5 57 13 77 20l5 -3c-2 -40 -3 -137 -3 -197v-33c39 2 60 10 72 15v-22c-12 -10 -37 -21 -72 -26c0 -25 1 -58 2 -90c-37 0 -66 -4 -84 -9l-5 3
c2 22 3 52 4 93c-75 0 -158 6 -178 13z" />
    <glyph glyph-name="five.numerator" unicode="&#xf666;" horiz-adv-x="367" 
d="M73 415l-19 20c17 46 31 172 29 197c20 -6 64 -12 113 -12c69 0 101 5 121 32l14 -13c-10 -34 -33 -59 -54 -69c-18 -9 -48 -14 -87 -14c-33 0 -68 3 -81 5c-5 -26 -12 -71 -21 -99c24 16 64 33 111 33c77 0 137 -30 137 -105c0 -27 -10 -55 -29 -75
c-24 -25 -72 -46 -138 -46c-77 0 -135 31 -135 77c0 20 19 37 44 37c16 0 22 -10 28 -29c11 -40 33 -59 68 -59c49 0 71 36 71 86c0 27 -8 51 -26 64c-13 11 -30 16 -53 16c-48 0 -78 -22 -93 -46z" />
    <glyph glyph-name="six.numerator" unicode="&#xf667;" horiz-adv-x="367" 
d="M303 630l2 -28c-10 3 -26 4 -37 4c-95 0 -145 -66 -151 -143c28 24 70 48 111 48c74 0 114 -43 114 -109c0 -89 -78 -133 -159 -133c-93 0 -155 53 -155 153c0 72 29 132 82 170c43 31 92 42 146 42c21 0 37 -3 47 -4zM186 295h1c49 0 70 49 70 98c0 42 -19 81 -61 81
c-37 0 -63 -23 -76 -48c-4 -10 -5 -20 -5 -32c0 -42 24 -99 71 -99z" />
    <glyph glyph-name="seven.numerator" unicode="&#xf668;" horiz-adv-x="367" 
d="M59 492l-25 4c15 47 21 121 20 137c14 -4 36 -6 145 -6c96 0 116 0 132 1l4 -5c-6 -22 -15 -47 -29 -68c-70 -101 -119 -191 -118 -281l-7 -5c-19 0 -42 4 -54 9c-9 4 -16 13 -16 22c0 12 2 19 6 30c25 71 117 166 158 230c-21 3 -58 3 -102 3c-78 0 -87 -3 -95 -22
c-7 -14 -14 -29 -19 -49z" />
    <glyph glyph-name="eight.numerator" unicode="&#xf669;" horiz-adv-x="367" 
d="M193 634h1c54 0 122 -24 122 -87c0 -21 -10 -36 -23 -46c-12 -9 -27 -19 -45 -30c75 -31 89 -57 89 -95c0 -32 -17 -57 -42 -74c-27 -20 -72 -33 -117 -33c-87 0 -143 37 -143 94c0 23 11 38 27 51c14 10 27 18 54 31c-45 21 -64 46 -64 84c0 25 10 46 26 63
c21 23 59 42 115 42zM182 607h-1c-34 0 -62 -20 -62 -51c0 -17 7 -30 26 -41c20 -13 49 -23 77 -33c24 14 36 33 36 58c0 44 -34 67 -76 67zM191 296h1c32 0 72 14 72 54c0 30 -30 51 -120 83c-24 -11 -43 -30 -43 -62c0 -35 29 -75 90 -75z" />
    <glyph glyph-name="nine.numerator" unicode="&#xf66a;" horiz-adv-x="367" 
d="M64 274l-1 27c14 -2 32 -4 53 -1c79 7 126 60 136 137c-31 -25 -70 -43 -109 -43c-76 0 -115 47 -115 108c0 84 75 133 157 133c100 0 154 -64 154 -161c0 -74 -33 -133 -78 -165c-45 -31 -98 -41 -144 -41c-20 0 -40 3 -53 6zM181 608h-1c-45 0 -68 -47 -68 -93
c0 -47 26 -83 69 -83c33 0 56 18 67 39c5 9 7 24 7 37c0 48 -22 100 -74 100z" />
    <glyph glyph-name="period.numerator" unicode="&#xf66c;" horiz-adv-x="166" 
d="M83 383h1c32 0 53 -25 53 -57c0 -34 -25 -57 -54 -57s-55 23 -55 57c0 33 26 57 55 57z" />
    <glyph glyph-name="comma.numerator" unicode="&#xf66b;" horiz-adv-x="166" 
d="M29 190l-5 23c44 9 80 39 80 78c0 5 -3 5 -6 2c-6 -3 -19 -7 -27 -7c-22 0 -42 20 -42 49s24 53 53 53c39 0 61 -33 61 -79c0 -77 -69 -115 -114 -119z" />
    </font>
</defs>
</svg>
